<?xml version="1.0" encoding="UTF-8"?>
<!-- Generator: visioncortex VTracer 0.6.3 -->
<svg version="1.1" xmlns="http://www.w3.org/2000/svg" width="1280" height="1280">
<path d="M0 0 C35.97 0 71.94 0 109 0 C108.67 1.98 108.34 3.96 108 6 C108.66 6 109.32 6 110 6 C110.33 4.68 110.66 3.36 111 2 C111.05 2.7 111.1 3.4 111.15 4.12 C111.22 5.03 111.3 5.94 111.38 6.88 C111.44 7.78 111.51 8.68 111.59 9.62 C111.8 12.18 111.8 12.18 114 14 C113.62 17.63 113.62 17.63 113 21 C113.66 21 114.32 21 115 21 C115.33 19.68 115.66 18.36 116 17 C116.05 17.7 116.1 18.4 116.15 19.12 C116.22 20.03 116.3 20.94 116.38 21.88 C116.44 22.78 116.51 23.68 116.59 24.62 C116.8 27.18 116.8 27.18 119 29 C118.63 32.62 118.63 32.62 118 36 C118.66 36 119.32 36 120 36 C120.33 34.68 120.66 33.36 121 32 C121.05 32.7 121.1 33.4 121.15 34.12 C121.22 35.03 121.3 35.94 121.38 36.88 C121.44 37.78 121.51 38.68 121.59 39.62 C121.8 42.18 121.8 42.18 124 44 C123.62 47.63 123.62 47.63 123 51 C123.66 51 124.32 51 125 51 C125.33 49.68 125.66 48.36 126 47 C126.05 47.7 126.1 48.4 126.15 49.12 C126.22 50.03 126.3 50.94 126.38 51.88 C126.44 52.78 126.51 53.68 126.59 54.62 C126.8 57.18 126.8 57.18 129 59 C128.63 62.62 128.63 62.62 128 66 C128.66 66 129.32 66 130 66 C130.33 64.68 130.66 63.36 131 62 C131.05 62.7 131.1 63.4 131.15 64.12 C131.22 65.03 131.3 65.94 131.38 66.88 C131.44 67.78 131.51 68.68 131.59 69.62 C131.8 72.18 131.8 72.18 134 74 C133.62 77.63 133.62 77.63 133 81 C133.66 81 134.32 81 135 81 C135.33 79.68 135.66 78.36 136 77 C136.13 77.98 136.27 78.95 136.4 79.96 C136.58 81.23 136.76 82.5 136.94 83.81 C137.11 85.08 137.29 86.34 137.46 87.64 C137.9 90.98 137.9 90.98 139 94 C138.67 94.66 138.34 95.32 138 96 C138.66 96 139.32 96 140 96 C140.33 94.68 140.66 93.36 141 92 C141.12 92.96 141.24 93.93 141.37 94.92 C141.53 96.19 141.7 97.45 141.88 98.75 C142.04 100 142.2 101.26 142.37 102.55 C143.11 106.59 143.76 108.85 146.77 111.65 C152.86 115.34 160.65 116.07 167.64 116.69 C174.6 117.6 181.38 119.75 188 122 C189.66 122.47 191.33 122.92 193 123.38 C203.6 126.24 214.09 129.31 224.49 132.83 C228.96 134.32 233.47 135.69 238 137 C238 136.34 238 135.68 238 135 C239.65 133.97 241.32 132.98 243 132 C244.53 130.75 246.03 129.45 247.5 128.12 C248.28 127.42 249.06 126.71 249.87 125.98 C251.47 124.49 253.03 122.94 254.56 121.38 C256.52 119.47 258.29 118.05 260.5 116.5 C265.28 113.03 269.27 108.83 273.34 104.58 C276.38 101.45 279.18 99.16 283 97 C284.53 95.75 286.03 94.45 287.5 93.12 C288.28 92.42 289.06 91.71 289.87 90.98 C291.47 89.49 293.03 87.94 294.56 86.38 C296.52 84.47 298.29 83.05 300.5 81.5 C305.28 78.03 309.27 73.83 313.34 69.58 C316.36 66.47 319.15 64.09 323 62 C324.49 60.89 324.49 60.89 326 59.75 C329 58 329 58 331.88 58.25 C332.58 58.5 333.28 58.74 334 59 C334 59.66 334 60.32 334 61 C334.72 61.27 335.44 61.54 336.19 61.81 C338.98 62.99 341.42 64.41 344 66 C345.33 66.67 346.67 67.33 348 68 C349.92 69.04 351.84 70.08 353.75 71.12 C355.23 71.93 355.23 71.93 356.73 72.76 C357.86 73.37 357.86 73.37 359 74 C359 74.66 359 75.32 359 76 C359.95 76.12 360.9 76.25 361.88 76.38 C365.59 77.12 366.39 78.39 369 81 C370.32 81.7 371.65 82.37 373 83 C376.33 84.67 379.67 86.33 383 88 C383 88.66 383 89.32 383 90 C383.72 90.28 384.44 90.56 385.18 90.84 C387.91 91.96 390.54 93.19 393.19 94.5 C394.05 94.92 394.91 95.35 395.79 95.78 C398 97 398 97 400 99 C402.72 100.42 405.47 101.75 408.25 103.06 C410.6 104.32 411.81 105.62 413 108 C414.32 108.37 415.66 108.69 417 109 C418.35 109.64 419.69 110.3 421 111 C421 113.31 421 115.62 421 118 C420.01 117.01 419.02 116.02 418 115 C418.01 115.75 418.02 116.5 418.04 117.27 C418.16 131.5 418.16 131.5 417 137 C416.34 137.66 415.68 138.32 415 139 C414.57 141.86 414.57 141.86 414.44 145.06 C414.1 150.9 414.1 150.9 413 152 C412.77 153.34 412.61 154.69 412.46 156.04 C412.33 157.25 412.33 157.25 412.2 158.49 C412.11 159.34 412.03 160.19 411.94 161.06 C411.85 161.92 411.76 162.77 411.66 163.65 C411.44 165.77 411.22 167.88 411 170 C410.67 170 410.34 170 410 170 C409.67 172.31 409.34 174.62 409 177 C408.34 177 407.68 177 407 177 C407.02 177.66 407.05 178.33 407.07 179.01 C407.1 180.34 407.1 180.34 407.12 181.69 C407.15 182.56 407.17 183.43 407.2 184.32 C406.98 187.26 406.11 189.29 405 192 C404.72 193.93 404.52 195.87 404.38 197.81 C404.3 198.79 404.23 199.76 404.15 200.77 C404.1 201.51 404.05 202.24 404 203 C403.67 203 403.34 203 403 203 C402.95 203.76 402.9 204.52 402.85 205.3 C402.78 206.29 402.7 207.29 402.62 208.31 C402.56 209.3 402.49 210.28 402.41 211.3 C402 214 402 214 400 217 C399.7 219.75 399.49 222.43 399.38 225.19 C399.32 226.31 399.32 226.31 399.26 227.46 C399.16 229.31 399.08 231.15 399 233 C399.6 233.29 400.21 233.58 400.83 233.88 C403.54 235.28 405.72 236.97 408 239 C408 239.66 408 240.32 408 241 C409.32 241.33 410.64 241.66 412 242 C412 242.66 412 243.32 412 244 C412.59 244.26 413.18 244.53 413.79 244.8 C416.08 246.04 417.57 247.33 419.4 249.18 C420.05 249.82 420.69 250.47 421.36 251.13 C422.38 252.17 422.38 252.17 423.43 253.24 C424.15 253.96 424.86 254.67 425.6 255.41 C427.88 257.71 430.16 260.01 432.44 262.31 C433.97 263.85 435.5 265.39 437.03 266.93 C440.46 270.38 443.88 273.83 447.3 277.3 C448.82 278.82 450.35 280.33 451.89 281.83 C454 284 454 284 455.31 286.38 C458.1 290.71 462.37 294.68 467 297 C467 296.34 467 295.68 467 295 C467.93 294.87 468.85 294.73 469.81 294.6 C471.01 294.42 472.2 294.24 473.44 294.06 C474.63 293.89 475.83 293.71 477.06 293.54 C479.88 293.31 479.88 293.31 481 292 C482.52 291.93 484.04 291.92 485.56 291.94 C486.39 291.95 487.22 291.96 488.07 291.96 C488.7 291.98 489.34 291.99 490 292 C490.33 291.34 490.66 290.68 491 290 C491 290.66 491 291.32 491 292 C491.66 292 492.32 292 493 292 C493 291.34 493 290.68 493 290 C493.93 289.87 494.85 289.73 495.81 289.6 C497.01 289.42 498.2 289.24 499.44 289.06 C500.63 288.89 501.83 288.71 503.06 288.54 C505.88 288.31 505.88 288.31 507 287 C509.84 286.68 512.68 286.49 515.53 286.28 C517.94 286.27 517.94 286.27 519 285 C521.33 284.45 523.65 283.96 526 283.5 C526.69 283.36 527.38 283.23 528.09 283.09 C531.53 282.42 534.94 281.84 538.44 281.56 C543.42 281.12 548.16 279.72 552.98 278.45 C557.88 277.19 562.61 276.53 567.66 276.21 C571.73 275.84 575.42 274.57 579.25 273.19 C581 273 581 273 582.75 274.31 C584 276 584 276 584 278 C584.66 278 585.32 278 586 278 C587.04 279.64 588.04 281.31 589 283 C589.66 283.66 590.32 284.32 591 285 C592.08 287.41 592.93 289.68 593.5 292.25 C593.75 293.12 593.75 293.12 594 294 C594.66 294.33 595.32 294.66 596 295 C596 295.99 596 296.98 596 298 C596.66 298.33 597.32 298.66 598 299 C597.67 299.66 597.34 300.32 597 301 C597.66 301 598.32 301 599 301 C602 306.75 602 306.75 602 309 C602.6 309.04 603.2 309.08 603.81 309.12 C606 310 606 310 607.75 312.75 C608.93 315.83 609.29 317.75 609 321 C609.66 321 610.32 321 611 321 C611.12 322.18 611.12 322.18 611.25 323.38 C611.62 324.67 611.62 324.67 612 326 C612.66 326.31 613.32 326.62 614 326.94 C614.66 327.29 615.32 327.64 616 328 C616.62 331.06 616.62 331.06 617 334 C617.66 334.33 618.32 334.66 619 335 C619.66 335.99 620.32 336.98 621 338 C621.66 338.33 622.32 338.66 623 339 C623.41 341.32 623.74 343.66 624 346 C624.66 346 625.32 346 626 346 C627.01 347.93 628.01 349.87 629 351.81 C629.56 352.89 630.11 353.97 630.69 355.08 C632 358 632 358 632 361 C632.66 361 633.32 361 634 361 C635.19 363.25 635.19 363.25 636 366 C634.75 368.31 634.75 368.31 633 370 C632.34 370 631.68 370 631 370 C630.74 371.24 630.74 371.24 630.47 372.51 C628.44 377.34 625.23 380.28 621.5 383.88 C620.81 384.56 620.12 385.25 619.41 385.96 C614.28 391 614.28 391 612 391 C611.86 391.78 611.71 392.57 611.56 393.38 C611 396 611 396 610 398 C609.34 398 608.68 398 608 398 C607.77 398.55 607.55 399.1 607.31 399.67 C605.61 402.69 603.45 404.81 601 407.25 C600.11 408.14 599.23 409.03 598.31 409.95 C596 412 596 412 594 412 C593.98 412.67 593.96 413.35 593.93 414.04 C592.51 418.54 589.41 421.09 586.06 424.31 C585.42 424.96 584.77 425.6 584.1 426.27 C579.28 431 579.28 431 577 431 C576.86 431.78 576.71 432.57 576.56 433.38 C576 436 576 436 575 438 C574.34 438 573.68 438 573 438 C572.74 438.59 572.49 439.19 572.23 439.8 C570.88 442.21 569.51 443.51 567.38 445.25 C566.43 446.03 566.43 446.03 565.46 446.83 C564.98 447.21 564.5 447.6 564 448 C563.34 447.67 562.68 447.34 562 447 C562.33 447.99 562.66 448.98 563 450 C562.03 450.34 562.03 450.34 561.05 450.68 C558.76 451.83 558.76 451.83 558.39 454.38 C558.32 455.74 558.32 455.74 558.25 457.12 C558.19 458.04 558.14 458.95 558.08 459.88 C558.05 460.58 558.03 461.28 558 462 C558.33 462 558.66 462 559 462 C560.76 466.97 562.33 471.74 563 477 C563.33 477 563.66 477 564 477 C565.48 481.86 566.53 486.65 567.34 491.67 C567.85 494.07 567.85 494.07 569.49 495.85 C571.61 498.87 571.75 501.61 572.19 505.25 C572.35 506.51 572.5 507.78 572.67 509.08 C572.83 510.52 572.83 510.52 573 512 C573.33 512 573.66 512 574 512 C574.05 512.6 574.1 513.21 574.15 513.83 C574.22 514.63 574.3 515.43 574.38 516.25 C574.44 517.04 574.51 517.83 574.59 518.64 C574.89 521.01 574.89 521.01 576 523 C577.16 525.31 577.4 527.18 577.62 529.75 C577.7 530.55 577.77 531.35 577.85 532.17 C577.9 532.78 577.95 533.38 578 534 C578.33 534 578.66 534 579 534 C579.33 538.29 579.66 542.58 580 547 C585.96 549.08 591.82 550.76 598 552 C598 552.33 598 552.66 598 553 C602.93 554.77 607.89 555.93 613 557 C613 557.33 613 557.66 613 558 C617.93 559.77 622.89 560.93 628 562 C628 562.33 628 562.66 628 563 C632.93 564.77 637.89 565.93 643 567 C643 567.33 643 567.66 643 568 C647.62 569.62 652.25 570.85 657 572 C657 572.66 657 573.32 657 574 C658.27 573.91 658.27 573.91 659.56 573.81 C663.74 574.04 666.22 575.26 670 577 C670.66 577 671.32 577 672 577 C672 577.66 672 578.32 672 579 C673.27 578.91 673.27 578.91 674.56 578.81 C678.74 579.04 681.22 580.26 685 582 C685.66 582 686.32 582 687 582 C687 582.66 687 583.32 687 584 C688.42 583.97 688.42 583.97 689.88 583.94 C693 584 693 584 695 585 C695 620.97 695 656.94 695 694 C683.75 697.38 683.75 697.38 679 697 C679 697.66 679 698.32 679 699 C673.9 700.91 669.54 702.43 664 702 C664 702.66 664 703.32 664 704 C658.9 705.91 654.54 707.43 649 707 C649 707.66 649 708.32 649 709 C643.9 710.91 639.54 712.43 634 712 C634 712.66 634 713.32 634 714 C628.9 715.91 624.54 717.43 619 717 C619 717.66 619 718.32 619 719 C613.9 720.91 609.54 722.43 604 722 C604 722.66 604 723.32 604 724 C599.71 725.32 595.42 726.64 591 728 C591 728.33 591 728.66 591 729 C590.37 729.1 589.75 729.2 589.1 729.3 C588.28 729.45 587.47 729.6 586.62 729.75 C585.81 729.89 585 730.03 584.16 730.17 C581.9 730.81 581.9 730.81 580.75 732.72 C579.86 735.42 579.61 737.86 579.44 740.69 C579.1 745.9 579.1 745.9 578 747 C577.6 749.01 577.26 751.04 576.94 753.06 C576.76 754.17 576.58 755.27 576.4 756.41 C576.27 757.26 576.14 758.12 576 759 C575.34 759 574.68 759 574 759 C574 761.97 574 764.94 574 768 C573.67 768 573.34 768 573 768 C572.95 768.61 572.9 769.23 572.85 769.86 C572.74 771.08 572.74 771.08 572.62 772.31 C572.52 773.51 572.52 773.51 572.41 774.74 C572 777 572 777 570 780 C569.01 780 568.02 780 567 780 C567.99 780.5 567.99 780.5 569 781 C569.21 784.72 568.64 786.72 567 790 C567.33 790.99 567.66 791.98 568 793 C567.55 793.6 567.09 794.2 566.62 794.81 C564.61 797.52 564.43 799.7 564 803 C563.67 803.66 563.34 804.32 563 805 C562.69 806.45 562.4 807.91 562.12 809.38 C561.36 813.02 560.31 815.06 558 818 C557.34 822.31 558.59 824.47 561 828 C562.98 830.15 565.07 832.17 567.19 834.19 C569.18 836.09 571.1 838 573 840 C573 840.66 573 841.32 573 842 C573.99 842.33 574.98 842.66 576 843 C576.41 843.87 576.83 844.73 577.25 845.62 C579.48 849.93 582.49 852.71 586 856 C590.89 860.68 590.89 860.68 592 864 C592.66 864 593.32 864 594 864 C594.42 864.71 594.84 865.42 595.27 866.14 C597.3 869.5 599.86 872.01 602.69 874.69 C604.51 876.42 606.26 878.17 608 880 C608 880.66 608 881.32 608 882 C608.99 882.33 609.98 882.66 611 883 C611.41 883.87 611.83 884.73 612.25 885.62 C614.49 889.94 617.49 892.7 621 896 C622.67 897.67 624.33 899.33 626 901 C626.54 901.5 627.07 901.99 627.62 902.5 C629.44 904.48 630.63 906.7 632 909 C633.31 910.68 634.64 912.36 636 914 C635.34 915.65 634.68 917.3 634 919 C633.34 919 632.68 919 632 919 C631.86 919.76 631.71 920.53 631.56 921.31 C631 924 631 924 630 927 C629.01 927 628.02 927 627 927 C626.67 929.31 626.34 931.62 626 934 C625.34 934 624.68 934 624 934 C623.92 934.91 623.84 935.82 623.75 936.75 C622.9 940.42 621.92 941.7 619 944 C618.34 944 617.68 944 617 944 C616.67 946.31 616.34 948.62 616 951 C614.68 951.33 613.36 951.66 612 952 C611.67 954.31 611.34 956.62 611 959 C610.34 959 609.68 959 609 959 C609 959.99 609 960.98 609 962 C608.34 962 607.68 962 607 962 C607.33 962.99 607.66 963.98 608 965 C605.67 969.67 605.67 969.67 603 971 C601.88 972.88 601.88 972.88 600.88 975.06 C600.52 975.8 600.17 976.53 599.8 977.29 C599.54 977.85 599.27 978.42 599 979 C598.34 979 597.68 979 597 979 C596.9 979.7 596.79 980.4 596.69 981.12 C595.48 986.18 592.84 990.68 590 995 C589.34 995.33 588.68 995.66 588 996 C587.27 997.98 586.6 999.98 586 1002 C585.34 1002 584.68 1002 584 1002 C583.34 1003.32 582.68 1004.64 582 1006 C580.35 1006 578.7 1006 577 1006 C577 1005.67 577 1005.34 577 1005 C574.69 1004.67 572.38 1004.34 570 1004 C570 1003.67 570 1003.34 570 1003 C563.73 1002.34 557.46 1001.68 551 1001 C551.99 1000.34 552.98 999.68 554 999 C550.7 999 547.4 999 544 999 C544 998.67 544 998.34 544 998 C538.06 997.34 532.12 996.68 526 996 C526.99 995.34 527.98 994.68 529 994 C525.7 994 522.4 994 519 994 C519 993.67 519 993.34 519 993 C517.94 992.87 516.88 992.73 515.79 992.6 C514.4 992.42 513.01 992.24 511.62 992.06 C510.93 991.98 510.23 991.89 509.51 991.8 C504.23 991.11 504.23 991.11 502 990 C500.46 989.78 498.92 989.59 497.38 989.44 C496.56 989.35 495.74 989.27 494.9 989.18 C494.27 989.12 493.65 989.06 493 989 C493 988.34 493 987.68 493 987 C492.01 987.33 491.02 987.66 490 988 C487.37 987.73 487.37 987.73 484.44 987.19 C483.47 987.02 482.5 986.84 481.5 986.67 C479 986 479 986 477 984 C474.63 983.76 474.63 983.76 472 983.88 C470.67 983.9 470.67 983.9 469.31 983.93 C468.55 983.95 467.79 983.98 467 984 C466.34 984 465.68 984 465 984 C463.65 985.1 462.34 986.25 461.06 987.44 C458.59 989.73 457.24 990.92 454 992 C453.54 993.45 453.54 993.45 453.06 994.94 C452 998 452 998 450 999.12 C449.34 999.41 448.68 999.7 448 1000 C447.33 1001.33 446.66 1002.66 446 1004 C444.53 1005.73 444.53 1005.73 442.81 1007.48 C442.16 1008.14 441.51 1008.8 440.84 1009.48 C440.15 1010.19 439.45 1010.89 438.73 1011.61 C438.01 1012.34 437.29 1013.06 436.54 1013.81 C435.02 1015.34 433.5 1016.87 431.97 1018.4 C429.63 1020.74 427.31 1023.1 424.98 1025.46 C423.5 1026.95 422.02 1028.44 420.54 1029.92 C419.84 1030.63 419.15 1031.34 418.43 1032.07 C417.78 1032.72 417.13 1033.37 416.45 1034.03 C415.88 1034.61 415.31 1035.18 414.72 1035.77 C413 1037 413 1037 409 1037 C408.79 1037.54 408.59 1038.07 408.38 1038.62 C406.47 1041.92 403.95 1044.59 401 1047 C400.34 1047 399.68 1047 399 1047 C399.11 1049.61 399.24 1052.21 399.38 1054.81 C399.41 1055.55 399.44 1056.29 399.47 1057.05 C399.67 1060.82 399.86 1062.8 402 1066 C402.41 1068.92 402.41 1068.92 402.62 1072.19 C402.7 1073.27 402.77 1074.36 402.85 1075.48 C402.9 1076.31 402.95 1077.14 403 1078 C403.33 1078 403.66 1078 404 1078 C403.97 1079.03 403.97 1079.03 403.93 1080.08 C403.9 1081.43 403.9 1081.43 403.88 1082.81 C403.84 1084.15 403.84 1084.15 403.8 1085.52 C403.82 1088.25 403.82 1088.25 406 1091 C406.56 1093.16 406.56 1093.16 407 1095.62 C407.89 1100.45 408.92 1105.22 410 1110 C410.33 1110 410.66 1110 411 1110 C411.66 1116.93 412.32 1123.86 413 1131 C413.33 1131 413.66 1131 414 1131 C414 1134.96 414 1138.92 414 1143 C414.99 1143 415.98 1143 417 1143 C416.97 1143.9 416.97 1143.9 416.93 1144.83 C416.9 1146.03 416.9 1146.03 416.88 1147.25 C416.84 1148.43 416.84 1148.43 416.8 1149.64 C417.02 1152.23 417.77 1153.74 419 1156 C419.37 1157.99 419.71 1159.99 420 1162 C420.23 1162.7 420.45 1163.4 420.69 1164.12 C421.11 1166.64 420.29 1167.87 419 1170 C418.34 1169.67 417.68 1169.34 417 1169 C417 1169.66 417 1170.32 417 1171 C415.87 1171.27 414.73 1171.54 413.56 1171.81 C412.39 1172.2 411.21 1172.6 410 1173 C409.67 1173.99 409.34 1174.98 409 1176 C406.75 1177.1 406.75 1177.1 404 1178.06 C400.24 1179.14 400.24 1179.14 398 1182 C396.68 1182 395.36 1182 394 1182 C394 1182.66 394 1183.32 394 1184 C393.04 1184.19 393.04 1184.19 392.06 1184.38 C391.04 1184.68 391.04 1184.68 390 1185 C389.67 1185.66 389.34 1186.32 389 1187 C387.67 1187.67 386.33 1188.33 385 1189 C384.67 1189.66 384.34 1190.32 384 1191 C381.56 1192.19 381.56 1192.19 379 1193 C378.34 1192.67 377.68 1192.34 377 1192 C377 1192.66 377 1193.32 377 1194 C373.27 1196.03 371.33 1197 367 1197 C367 1198.32 367 1199.64 367 1201 C365.02 1201.73 363.02 1202.39 361 1203 C360.34 1202.67 359.68 1202.34 359 1202 C359 1202.66 359 1203.32 359 1204 C353.96 1208.8 349.18 1212 342 1212 C341.67 1213.32 341.34 1214.64 341 1216 C338.69 1216.33 336.38 1216.66 334 1217 C334 1217.66 334 1218.32 334 1219 C331 1221 331 1221 328 1221 C326.31 1219.36 324.65 1217.69 323 1216 C321.61 1215.1 321.61 1215.1 320.19 1214.18 C316.82 1211.88 314.1 1209.26 311.31 1206.31 C307.71 1202.39 307.71 1202.39 303 1200 C302.67 1199.34 302.34 1198.68 302 1198 C301.34 1198 300.68 1198 300 1198 C300 1197.34 300 1196.68 300 1196 C299.01 1195.67 298.02 1195.34 297 1195 C296.67 1194.34 296.34 1193.68 296 1193 C295.01 1192.1 293.98 1191.22 292.94 1190.38 C289.28 1187.32 285.99 1183.99 282.7 1180.54 C281.14 1178.78 281.14 1178.78 279 1179 C279 1178.34 279 1177.68 279 1177 C278.42 1176.74 277.84 1176.48 277.25 1176.21 C274.86 1174.93 273.08 1173.49 271.06 1171.69 C270.02 1170.76 270.02 1170.76 268.96 1169.82 C267.3 1168.28 265.7 1166.7 264.12 1165.06 C262.25 1162.77 262.25 1162.77 260 1163 C260 1162.34 260 1161.68 260 1161 C259.01 1160.67 258.02 1160.34 257 1160 C256.67 1159.34 256.34 1158.68 256 1158 C255.01 1157.1 253.98 1156.22 252.94 1155.38 C249.28 1152.32 245.99 1148.99 242.7 1145.54 C241.14 1143.78 241.14 1143.78 239 1144 C239 1143.34 239 1142.68 239 1142 C238.22 1142.19 237.43 1142.37 236.62 1142.56 C234 1143 234 1143 232 1142 C232 1142.66 232 1143.32 232 1144 C230.35 1144 228.7 1144 227 1144 C227 1144.66 227 1145.32 227 1146 C221.9 1147.91 217.54 1149.43 212 1149 C212 1149.66 212 1150.32 212 1151 C210.21 1151.36 208.42 1151.71 206.62 1152.06 C205.63 1152.26 204.63 1152.46 203.6 1152.66 C201 1153 201 1153 199 1152 C199 1152.66 199 1153.32 199 1154 C193.66 1155.92 188.65 1157.4 183 1158 C183 1158.33 183 1158.66 183 1159 C181.14 1159.19 181.14 1159.19 179.25 1159.38 C176.86 1159.61 175.18 1159.91 173.03 1161 C170.71 1162.14 168.88 1162.36 166.31 1162.56 C163.36 1162.6 163.36 1162.6 161 1164 C158.52 1164.24 156.03 1164.38 153.54 1164.52 C150.63 1165.07 149.27 1166.16 147 1168 C146.34 1168 145.68 1168 145 1168 C144.88 1169.28 144.75 1170.56 144.62 1171.88 C144.25 1175.75 144.25 1175.75 142 1178 C141.6 1179.99 141.26 1181.99 141 1184 C140.34 1184 139.68 1184 139 1184 C139.04 1185.09 139.08 1186.19 139.12 1187.31 C139 1191 139 1191 137 1194 C136.62 1195.66 136.27 1197.32 136 1199 C135.34 1199 134.68 1199 134 1199 C134.04 1200.09 134.08 1201.19 134.12 1202.31 C134 1206 134 1206 132 1209 C131.62 1210.66 131.27 1212.32 131 1214 C130.34 1214 129.68 1214 129 1214 C129.04 1215.09 129.08 1216.19 129.12 1217.31 C129 1221 129 1221 127 1224 C126.62 1225.66 126.27 1227.32 126 1229 C125.34 1229 124.68 1229 124 1229 C124.04 1230.09 124.08 1231.19 124.12 1232.31 C124 1236 124 1236 122 1239 C121.45 1240.99 120.95 1242.99 120.5 1245 C119.68 1248.65 119.09 1250.86 117 1254 C116.62 1255.66 116.27 1257.32 116 1259 C115.34 1259 114.68 1259 114 1259 C114.06 1260.67 114.06 1260.67 114.12 1262.38 C114 1266 114 1266 112 1268 C111.01 1271.96 110.02 1275.92 109 1280 C73.03 1280 37.06 1280 0 1280 C-0.99 1276.7 -1.98 1273.4 -3 1270 C-3.56 1268.76 -4.11 1267.53 -4.69 1266.25 C-6.05 1262.89 -6.26 1260.59 -6 1257 C-6.66 1256.67 -7.32 1256.34 -8 1256 C-8.7 1253.68 -9.37 1251.34 -10 1249 C-10.33 1248.67 -10.66 1248.34 -11 1248 C-11.04 1246 -11.04 1244 -11 1242 C-11.66 1241.67 -12.32 1241.34 -13 1241 C-13.7 1238.68 -14.37 1236.34 -15 1234 C-15.33 1233.67 -15.66 1233.34 -16 1233 C-16.04 1231 -16.04 1229 -16 1227 C-16.66 1226.67 -17.32 1226.34 -18 1226 C-18.7 1223.68 -19.37 1221.34 -20 1219 C-20.33 1218.67 -20.66 1218.34 -21 1218 C-21.04 1216 -21.04 1214 -21 1212 C-21.66 1211.67 -22.32 1211.34 -23 1211 C-23.7 1208.68 -24.37 1206.34 -25 1204 C-25.33 1203.67 -25.66 1203.34 -26 1203 C-26.04 1201 -26.04 1199 -26 1197 C-26.66 1196.67 -27.32 1196.34 -28 1196 C-28.7 1193.68 -29.37 1191.34 -30 1189 C-30.33 1188.67 -30.66 1188.34 -31 1188 C-31.04 1186 -31.04 1184 -31 1182 C-31.66 1181.67 -32.32 1181.34 -33 1181 C-33.51 1179.38 -34 1177.76 -34.43 1176.12 C-35.44 1172.36 -36.75 1168.69 -38 1165 C-42.29 1164.67 -46.58 1164.34 -51 1164 C-51 1163.67 -51 1163.34 -51 1163 C-55.29 1162.34 -59.58 1161.68 -64 1161 C-64 1160.34 -64 1159.68 -64 1159 C-64.61 1159.01 -65.23 1159.02 -65.86 1159.04 C-67.08 1159.05 -67.08 1159.05 -68.31 1159.06 C-69.11 1159.07 -69.91 1159.09 -70.74 1159.1 C-73 1159 -73 1159 -76 1158 C-77.39 1157.64 -78.79 1157.28 -80.19 1156.94 C-82.07 1156.47 -82.07 1156.47 -84 1156 C-84 1155.34 -84 1154.68 -84 1154 C-85.55 1154.06 -85.55 1154.06 -87.12 1154.12 C-91.74 1153.98 -95.16 1152.77 -99.38 1151 C-101.59 1150.16 -103.64 1149.59 -105.94 1149.06 C-109.6 1148.2 -112.63 1146.69 -116 1145 C-119.24 1144.29 -119.24 1144.29 -122 1144 C-122 1143.34 -122 1142.68 -122 1142 C-124.34 1142.31 -126.67 1142.65 -129 1143 C-129.76 1143.1 -130.53 1143.21 -131.31 1143.31 C-133.16 1143.84 -133.16 1143.84 -133.79 1145.71 C-135.42 1148.79 -137.64 1150.83 -140.12 1153.25 C-141.49 1154.59 -141.49 1154.59 -142.88 1155.95 C-143.58 1156.63 -144.28 1157.3 -145 1158 C-145.99 1157.67 -146.98 1157.34 -148 1157 C-147.67 1157.99 -147.34 1158.98 -147 1160 C-148.58 1160.84 -148.58 1160.84 -150.19 1161.69 C-157.06 1165.93 -162.44 1172.21 -168 1178 C-168.99 1177.67 -169.98 1177.34 -171 1177 C-171 1177.66 -171 1178.32 -171 1179 C-171.66 1179 -172.32 1179 -173 1179 C-173.34 1179.83 -173.34 1179.83 -173.68 1180.67 C-175.4 1183.71 -177.63 1185.81 -180.12 1188.25 C-181.49 1189.59 -181.49 1189.59 -182.88 1190.95 C-183.58 1191.63 -184.28 1192.3 -185 1193 C-185.99 1192.67 -186.98 1192.34 -188 1192 C-187.67 1192.99 -187.34 1193.98 -187 1195 C-188.69 1195.62 -190.39 1196.24 -192.08 1196.86 C-194.73 1198.44 -196.12 1200.55 -198 1203 C-199.81 1204.97 -201.63 1206.9 -203.5 1208.81 C-203.97 1209.31 -204.45 1209.82 -204.93 1210.33 C-206.34 1211.77 -206.34 1211.77 -209 1214 C-210.32 1214 -211.64 1214 -213 1214 C-213.66 1215.32 -214.32 1216.64 -215 1218 C-215.99 1217.67 -216.98 1217.34 -218 1217 C-217.67 1217.99 -217.34 1218.98 -217 1220 C-218.81 1220.62 -218.81 1220.62 -221 1221 C-221.99 1220.34 -222.98 1219.68 -224 1219 C-224 1218.34 -224 1217.68 -224 1217 C-224.74 1216.9 -225.49 1216.79 -226.25 1216.69 C-229.17 1215.96 -230.73 1214.93 -233 1213 C-233.33 1213.33 -233.66 1213.66 -234 1214 C-236.5 1212.62 -236.5 1212.62 -239 1211 C-239 1210.34 -239 1209.68 -239 1209 C-239.72 1208.92 -240.44 1208.84 -241.19 1208.75 C-244.55 1207.85 -246.36 1206.21 -249 1204 C-249.66 1204 -250.32 1204 -251 1204 C-251 1203.34 -251 1202.68 -251 1202 C-251.97 1201.71 -252.94 1201.42 -253.94 1201.12 C-257 1200 -257 1200 -258 1198 C-260.11 1197.09 -260.11 1197.09 -262.56 1196.38 C-263.39 1196.11 -264.22 1195.85 -265.07 1195.59 C-265.7 1195.39 -266.34 1195.2 -267 1195 C-267 1194.01 -267 1193.02 -267 1192 C-267.99 1192.33 -268.98 1192.66 -270 1193 C-270.66 1191.68 -271.32 1190.36 -272 1189 C-273.32 1189 -274.64 1189 -276 1189 C-276 1188.34 -276 1187.68 -276 1187 C-277.98 1186.67 -279.96 1186.34 -282 1186 C-282 1185.34 -282 1184.68 -282 1184 C-282.66 1184 -283.32 1184 -284 1184 C-284 1183.34 -284 1182.68 -284 1182 C-284.74 1181.88 -285.49 1181.75 -286.25 1181.62 C-288.8 1181.05 -290.73 1180.26 -293 1179 C-293 1178.34 -293 1177.68 -293 1177 C-294.09 1176.92 -295.19 1176.84 -296.31 1176.75 C-300 1176 -300 1176 -301.69 1174 C-302.12 1173.34 -302.55 1172.68 -303 1172 C-305.09 1171.2 -305.09 1171.2 -307 1171 C-307 1170.34 -307 1169.68 -307 1169 C-308.32 1169 -309.64 1169 -311 1169 C-310.86 1166.71 -310.71 1164.42 -310.56 1162.12 C-310.48 1160.85 -310.4 1159.57 -310.32 1158.26 C-310 1155 -310 1155 -309 1153 C-308.65 1151.21 -308.35 1149.42 -308.06 1147.62 C-307.89 1146.56 -307.72 1145.49 -307.54 1144.39 C-307.18 1142.12 -306.82 1139.85 -306.46 1137.57 C-306.2 1135.96 -306.2 1135.96 -305.94 1134.31 C-305.78 1133.32 -305.63 1132.32 -305.46 1131.3 C-305 1129 -305 1129 -304 1128 C-303.64 1126.26 -303.34 1124.51 -303.06 1122.75 C-302.81 1121.14 -302.81 1121.14 -302.54 1119.49 C-302.36 1118.34 -302.18 1117.19 -302 1116 C-301.81 1114.82 -301.62 1113.64 -301.43 1112.42 C-300.38 1106.24 -300.38 1106.24 -300 1100 C-299.34 1100 -298.68 1100 -298 1100 C-298.03 1098.14 -298.03 1098.14 -298.06 1096.25 C-298.11 1093.28 -297.75 1090.86 -297 1088 C-296.63 1085.75 -296.28 1083.5 -295.94 1081.25 C-295.76 1080.08 -295.58 1078.91 -295.4 1077.7 C-295.27 1076.81 -295.14 1075.92 -295 1075 C-294.34 1075 -293.68 1075 -293 1075 C-293.01 1074.39 -293.02 1073.77 -293.04 1073.14 C-293.05 1071.92 -293.05 1071.92 -293.06 1070.69 C-293.07 1069.89 -293.09 1069.09 -293.1 1068.26 C-293 1066 -293 1066 -292 1063 C-291.62 1061.15 -291.27 1059.3 -290.94 1057.44 C-290.76 1056.47 -290.58 1055.5 -290.4 1054.5 C-289.71 1050.17 -290.45 1048.62 -293 1045 C-296.39 1041.68 -300.15 1038.88 -304 1036.12 C-307.43 1033.58 -310.02 1030.81 -312.75 1027.55 C-317.66 1022 -323.04 1016.88 -328.31 1011.68 C-329.78 1010.21 -331.25 1008.74 -332.72 1007.27 C-334.14 1005.85 -335.57 1004.45 -337.02 1003.05 C-337.91 1002.19 -337.91 1002.19 -338.81 1001.31 C-339.42 1000.73 -340.02 1000.15 -340.64 999.55 C-342 998 -342 998 -342 996 C-342.66 996 -343.32 996 -344 996 C-344 995.34 -344 994.68 -344 994 C-344.66 994 -345.32 994 -346 994 C-347.36 992.02 -348.69 990.02 -350 988 C-351.33 986.28 -351.33 986.28 -353 985 C-355.92 984.73 -358.59 984.63 -361.5 984.69 C-362.27 984.68 -363.04 984.68 -363.84 984.68 C-367.72 984.71 -369.7 984.8 -373 987 C-375.26 987.41 -375.26 987.41 -377.69 987.62 C-378.5 987.7 -379.3 987.77 -380.14 987.85 C-380.75 987.9 -381.37 987.95 -382 988 C-382 988.33 -382 988.66 -382 989 C-382.9 989.05 -383.81 989.1 -384.74 989.15 C-385.92 989.22 -387.1 989.3 -388.31 989.38 C-389.48 989.44 -390.66 989.51 -391.86 989.59 C-395.16 989.79 -395.16 989.79 -398 992 C-400.48 992.41 -400.48 992.41 -403.19 992.62 C-404.09 992.7 -404.99 992.77 -405.92 992.85 C-406.61 992.9 -407.29 992.95 -408 993 C-408 993.33 -408 993.66 -408 994 C-410.31 994.33 -412.62 994.66 -415 995 C-415 995.33 -415 995.66 -415 996 C-416.29 996.13 -417.58 996.27 -418.9 996.4 C-420.58 996.58 -422.26 996.76 -423.94 996.94 C-424.79 997.02 -425.64 997.11 -426.51 997.2 C-427.73 997.33 -427.73 997.33 -428.96 997.46 C-429.71 997.54 -430.46 997.62 -431.23 997.7 C-433.02 997.83 -433.02 997.83 -434 999 C-436.02 999.07 -438.04 999.08 -440.06 999.06 C-441.17 999.05 -442.27 999.04 -443.41 999.04 C-444.69 999.02 -444.69 999.02 -446 999 C-446 999.66 -446 1000.32 -446 1001 C-448.85 1001.8 -451.48 1002.16 -454.44 1002.28 C-455.27 1002.32 -456.1 1002.36 -456.96 1002.39 C-458.7 1002.47 -460.44 1002.54 -462.18 1002.61 C-463.01 1002.64 -463.84 1002.68 -464.69 1002.72 C-465.45 1002.75 -466.2 1002.78 -466.98 1002.81 C-469.2 1002.94 -469.2 1002.94 -472 1004 C-472 1004.66 -472 1005.32 -472 1006 C-475.59 1004.21 -477.5 1001.69 -479 998 C-479 997.01 -479 996.02 -479 995 C-479.66 995 -480.32 995 -481 995 C-481 994.01 -481 993.02 -481 992 C-481.66 992 -482.32 992 -483 992 C-483.56 990.55 -483.56 990.55 -484.12 989.06 C-485.82 985.08 -488.14 981.69 -490.58 978.14 C-492.89 974.67 -494.61 971.11 -496 967.19 C-496.33 966.47 -496.66 965.74 -497 965 C-497.99 964.67 -498.98 964.34 -500 964 C-501.06 961.19 -501.06 961.19 -502 958 C-502.37 957.26 -502.74 956.51 -503.12 955.75 C-504 954 -504 954 -504 952 C-504.66 952 -505.32 952 -506 952 C-509 946.25 -509 946.25 -509 944 C-509.66 944 -510.32 944 -511 944 C-512 942 -513 940 -514 938 C-514.39 937.26 -514.78 936.51 -515.19 935.75 C-516 934 -516 934 -516 932 C-516.66 932 -517.32 932 -518 932 C-520.59 927.68 -522.4 923.79 -524 919 C-524.66 918.67 -525.32 918.34 -526 918 C-527 915.88 -527 915.88 -527 913 C-525.7 911.1 -524.25 909.5 -522.64 907.84 C-520.91 906.04 -520.91 906.04 -519.74 903.72 C-516.87 899.23 -512.86 895.82 -509.01 892.17 C-505.61 888.88 -503.66 886.48 -502 882 C-499.73 879.53 -499.73 879.53 -497 877 C-495.12 875.17 -493.25 873.34 -491.38 871.5 C-490.43 870.58 -489.49 869.66 -488.52 868.72 C-485.99 866.2 -485.99 866.2 -484.61 863.59 C-481.84 859.12 -477.81 855.77 -474.01 852.17 C-470.73 849 -468.24 846.53 -467 842 C-466.34 842 -465.68 842 -465 842 C-465 841.34 -465 840.68 -465 840 C-464.34 840 -463.68 840 -463 840 C-462.77 839.44 -462.55 838.89 -462.32 838.32 C-460.61 835.32 -458.43 833.31 -455.94 830.94 C-452.17 827.48 -452.17 827.48 -450 823 C-449.34 823 -448.68 823 -448 823 C-450.04 816.23 -452.15 809.5 -454.44 802.81 C-456.35 797.12 -458.08 791.41 -459.69 785.62 C-459.99 784.54 -459.99 784.54 -460.3 783.43 C-461.51 779.02 -462.54 774.6 -463.51 770.14 C-463.95 768.2 -464.49 766.29 -465.04 764.38 C-466.03 760.9 -466.76 757.43 -467.44 753.88 C-467.7 752.56 -467.96 751.26 -468.22 749.95 C-468.73 747.38 -469.23 744.81 -469.72 742.24 C-469.96 741.09 -470.19 739.94 -470.44 738.75 C-470.74 737.2 -470.74 737.2 -471.06 735.61 C-472.16 732.54 -473.2 731.6 -476 730 C-477.66 729.63 -479.33 729.29 -481 729 C-482.33 728.33 -483.67 727.67 -485 727 C-486.66 726.62 -488.32 726.28 -490 726 C-490 725.34 -490 724.68 -490 724 C-491.36 724.06 -491.36 724.06 -492.75 724.12 C-496 724 -497.24 723.51 -500 722 C-501.66 721.62 -503.32 721.28 -505 721 C-505 720.34 -505 719.68 -505 719 C-506.36 719.06 -506.36 719.06 -507.75 719.12 C-511 719 -512.24 718.51 -515 717 C-516.66 716.62 -518.32 716.28 -520 716 C-520 715.34 -520 714.68 -520 714 C-521.36 714.06 -521.36 714.06 -522.75 714.12 C-526 714 -527.24 713.51 -530 712 C-531.66 711.62 -533.32 711.28 -535 711 C-535 710.34 -535 709.68 -535 709 C-536.36 709.06 -536.36 709.06 -537.75 709.12 C-541 709 -542.24 708.51 -545 707 C-546.66 706.62 -548.32 706.28 -550 706 C-550 705.34 -550 704.68 -550 704 C-551.36 704.06 -551.36 704.06 -552.75 704.12 C-556 704 -557.24 703.51 -560 702 C-561.66 701.62 -563.32 701.28 -565 701 C-565 700.34 -565 699.68 -565 699 C-566.36 699.06 -566.36 699.06 -567.75 699.12 C-571 699 -571 699 -575 697 C-579.95 695.51 -579.95 695.51 -585 694 C-585 658.03 -585 622.06 -585 585 C-576 581.62 -576 581.62 -572 582 C-572 581.34 -572 580.68 -572 580 C-570.44 579.49 -568.88 578.99 -567.31 578.5 C-566.01 578.08 -566.01 578.08 -564.68 577.66 C-562.01 577 -559.74 576.88 -557 577 C-557 576.34 -557 575.68 -557 575 C-555.44 574.49 -553.88 573.99 -552.31 573.5 C-551.01 573.08 -551.01 573.08 -549.68 572.66 C-547.01 572 -544.74 571.88 -542 572 C-542 571.34 -542 570.68 -542 570 C-540.44 569.49 -538.88 568.99 -537.31 568.5 C-536.01 568.08 -536.01 568.08 -534.68 567.66 C-532.01 567 -529.74 566.88 -527 567 C-527 566.34 -527 565.68 -527 565 C-525.44 564.49 -523.88 563.99 -522.31 563.5 C-521.01 563.08 -521.01 563.08 -519.68 562.66 C-517.01 562 -514.74 561.88 -512 562 C-512 561.34 -512 560.68 -512 560 C-510.44 559.49 -508.88 558.99 -507.31 558.5 C-506.01 558.08 -506.01 558.08 -504.68 557.66 C-502.01 557 -499.74 556.88 -497 557 C-497 556.34 -497 555.68 -497 555 C-495.44 554.49 -493.88 553.99 -492.31 553.5 C-491.01 553.08 -491.01 553.08 -489.68 552.66 C-487.01 552 -484.74 551.88 -482 552 C-482 551.34 -482 550.68 -482 550 C-480.11 549.41 -480.11 549.41 -478.19 548.81 C-475.34 547.73 -474.12 547.14 -472.06 544.81 C-470.69 541.18 -470.39 537.86 -470 534 C-469.67 533.67 -469.34 533.34 -469 533 C-468.71 530.84 -468.55 528.69 -468.38 526.52 C-467.93 523.52 -466.97 520.87 -466 518 C-465.28 515.22 -464.64 512.42 -464 509.62 C-463.67 508.18 -463.33 506.73 -463 505.29 C-462.84 504.59 -462.68 503.88 -462.51 503.16 C-461.71 499.76 -460.85 496.38 -460 493 C-459.34 493 -458.68 493 -458 493 C-458.06 492.05 -458.12 491.1 -458.19 490.12 C-458.17 483.37 -455.49 477.1 -452.94 470.94 C-450.68 465.47 -449 459.95 -449 454 C-449.66 454 -450.32 454 -451 454 C-451.89 452.63 -452.78 451.25 -453.65 449.86 C-455.86 446.82 -458.59 444.33 -461.29 441.73 C-463 440 -463 440 -464 438 C-465.18 436.86 -465.18 436.86 -466.38 435.69 C-469 433 -469 433 -470.62 430.25 C-471.86 427.69 -471.86 427.69 -475 427 C-475.67 425.67 -476.33 424.33 -477 423 C-477.87 422.13 -478.73 421.27 -479.62 420.38 C-480.41 419.59 -481.19 418.81 -482 418 C-482 417.34 -482 416.68 -482 416 C-482.66 416 -483.32 416 -484 416 C-484 415.34 -484 414.68 -484 414 C-484.66 414 -485.32 414 -486 414 C-486.89 412.63 -487.78 411.25 -488.65 409.86 C-490.86 406.82 -493.59 404.33 -496.29 401.73 C-498 400 -498 400 -499 398 C-500.18 396.86 -500.18 396.86 -501.38 395.69 C-504 393 -504 393 -505.62 390.25 C-506.86 387.69 -506.86 387.69 -510 387 C-510.67 385.67 -511.33 384.33 -512 383 C-512.87 382.13 -513.73 381.27 -514.62 380.38 C-515.41 379.59 -516.19 378.81 -517 378 C-517 377.34 -517 376.68 -517 376 C-517.66 376 -518.32 376 -519 376 C-519 375.34 -519 374.68 -519 374 C-519.66 374 -520.32 374 -521 374 C-523.47 370.91 -525.43 367.63 -527 364 C-526.38 360.38 -526.38 360.38 -525 358 C-524.34 358 -523.68 358 -523 358 C-522.67 356.35 -522.34 354.7 -522 353 C-521.34 353 -520.68 353 -520 353 C-520 352.01 -520 351.02 -520 350 C-519.34 350 -518.68 350 -518 350 C-517.01 347.03 -516.02 344.06 -515 341 C-514.34 341 -513.68 341 -513 341 C-511.92 338.35 -510.91 335.72 -510 333 C-509.34 333 -508.68 333 -508 333 C-507.73 332.11 -507.46 331.23 -507.19 330.31 C-505.82 326.49 -503.93 323.44 -501.73 320.05 C-501.28 319.35 -500.84 318.66 -500.38 317.94 C-499.95 317.29 -499.52 316.64 -499.09 315.96 C-497.99 313.97 -497.45 312.22 -497 310 C-496.34 310 -495.68 310 -495 310 C-494.71 309.05 -494.42 308.1 -494.12 307.12 C-493 304 -493 304 -491 302 C-490.88 301.38 -490.75 300.76 -490.62 300.12 C-490 298 -490 298 -488.25 296.38 C-485.44 293.41 -484.05 290.26 -482.29 286.61 C-480.46 282.91 -478.4 279.36 -476 276 C-475.58 275.42 -475.16 274.83 -474.73 274.23 C-473 273 -473 273 -470.12 273.11 C-469.05 273.32 -467.98 273.53 -466.88 273.75 C-465.8 273.95 -464.72 274.15 -463.62 274.36 C-461 275 -461 275 -460 276 C-458.67 276.27 -457.33 276.49 -455.99 276.68 C-455.17 276.81 -454.35 276.93 -453.5 277.06 C-451.77 277.31 -450.05 277.56 -448.32 277.81 C-443.4 278.54 -438.79 279.62 -434 281 C-430.85 281.61 -427.68 282.09 -424.5 282.56 C-423.28 282.75 -423.28 282.75 -422.03 282.94 C-417.46 283.64 -417.46 283.64 -412.88 284.28 C-408.1 284.9 -408.1 284.9 -407 286 C-405.42 286.34 -403.82 286.64 -402.22 286.9 C-400.74 287.15 -400.74 287.15 -399.22 287.41 C-398.18 287.59 -397.14 287.76 -396.06 287.94 C-388.68 289.18 -381.33 290.5 -374 292 C-371.23 292.55 -368.46 293.09 -365.69 293.62 C-365.01 293.76 -364.34 293.89 -363.64 294.03 C-360.04 294.72 -356.66 295.16 -353 295 C-352.73 294.41 -352.45 293.81 -352.17 293.2 C-350.7 290.43 -348.84 288.34 -346.77 286.01 C-345.65 284.74 -344.53 283.46 -343.43 282.17 C-339.12 277.18 -334.61 272.45 -329.95 267.78 C-329.21 267.04 -328.47 266.29 -327.71 265.53 C-326.16 263.97 -324.61 262.42 -323.06 260.87 C-320.67 258.48 -318.3 256.09 -315.92 253.7 C-314.41 252.18 -312.9 250.67 -311.39 249.16 C-310.68 248.44 -309.96 247.72 -309.23 246.98 C-308.57 246.32 -307.91 245.67 -307.24 244.99 C-306.66 244.41 -306.08 243.83 -305.48 243.24 C-304 242 -304 242 -302 242 C-302 241.34 -302 240.68 -302 240 C-300.35 238.98 -298.68 237.98 -297 237 C-293.83 234.62 -291.22 232.34 -289 229 C-289.35 225.95 -289.35 225.95 -290.25 222.56 C-291.56 217 -292.63 211.47 -293.47 205.82 C-293.97 202.9 -293.97 202.9 -294.96 199.72 C-296.15 195.47 -296.88 191.24 -297.56 186.88 C-297.81 185.31 -298.06 183.74 -298.32 182.18 C-298.49 181.08 -298.49 181.08 -298.67 179.96 C-299.06 177.63 -299.52 175.32 -300 173 C-301.25 166.75 -301.25 166.75 -301.63 164.86 C-302.5 160.48 -303.38 156.11 -304.27 151.74 C-304.72 149.51 -305.17 147.29 -305.62 145.06 C-305.84 144 -306.06 142.93 -306.29 141.83 C-307.18 137.39 -308.05 132.97 -308.59 128.47 C-309.02 124.81 -309.97 121.53 -311 118 C-311.37 115.67 -311.71 113.34 -312 111 C-302 105 -302 105 -299.43 103.46 C-297.22 102.13 -295.01 100.79 -292.81 99.44 C-292.14 99.02 -291.46 98.61 -290.77 98.18 C-288.86 96.99 -288.86 96.99 -287 95 C-280.65 92 -280.65 92 -277 92 C-277 91.34 -277 90.68 -277 90 C-275.55 89.32 -275.55 89.32 -274.06 88.62 C-270.93 87.34 -270.93 87.34 -270 85 C-263.77 82 -263.77 82 -260 82 C-260 81.34 -260 80.68 -260 80 C-254.25 77 -254.25 77 -252 77 C-252 76.34 -252 75.68 -252 75 C-251.13 74.59 -250.27 74.17 -249.38 73.75 C-245.97 72.08 -245.97 72.08 -242.94 69.88 C-240.13 68.08 -238.27 67.38 -235 67 C-235 66.34 -235 65.68 -235 65 C-234.01 65 -233.02 65 -232 65 C-231.67 64.34 -231.34 63.68 -231 63 C-228.94 62.38 -228.94 62.38 -227 62 C-227 61.34 -227 60.68 -227 60 C-224.38 58.81 -224.38 58.81 -221 58 C-217.75 59.31 -217.75 59.31 -215 61 C-214.34 61.33 -213.68 61.66 -213 62 C-213 62.66 -213 63.32 -213 64 C-212.36 64.27 -211.72 64.54 -211.06 64.81 C-209 66 -209 66 -208 69 C-206.67 69.67 -205.33 70.33 -204 71 C-202.35 72.58 -200.75 74.21 -199.19 75.88 C-195.34 79.82 -191.95 82.63 -187 85 C-187 85.66 -187 86.32 -187 87 C-186.41 87.26 -185.83 87.51 -185.22 87.78 C-182.81 89.1 -181.31 90.56 -179.44 92.56 C-177.17 95 -176.23 95.92 -173 97 C-173 97.66 -173 98.32 -173 99 C-172.36 99.27 -171.72 99.54 -171.06 99.81 C-169 101 -169 101 -168 104 C-166.67 104.67 -165.33 105.33 -164 106 C-162.35 107.58 -160.75 109.21 -159.19 110.88 C-155.34 114.82 -151.95 117.63 -147 120 C-147 120.66 -147 121.32 -147 122 C-146.41 122.26 -145.82 122.52 -145.22 122.78 C-142.15 124.47 -140.15 126.8 -137.78 129.34 C-136.07 131.1 -136.07 131.1 -133.84 132.03 C-132 133 -132 133 -131 136 C-125.5 136.48 -121.87 135.33 -116.84 133.15 C-112.54 131.41 -108.13 130.15 -103.69 128.83 C-101.06 128.1 -101.06 128.1 -99 127 C-96.67 126.96 -94.33 126.96 -92 127 C-92 126.34 -92 125.68 -92 125 C-87.7 123.89 -83.43 122.88 -79.06 122.06 C-74.93 121.26 -71.06 120.11 -67.11 118.68 C-63.47 117.5 -59.74 116.95 -55.97 116.35 C-55.24 116.23 -54.51 116.11 -53.76 115.99 C-52.26 115.75 -50.75 115.51 -49.24 115.28 C-44.93 114.57 -41.5 113.79 -38 111 C-36.79 109 -36.79 109 -36.19 106.81 C-35.6 104.93 -35.6 104.93 -35 103 C-34.34 103 -33.68 103 -33 103 C-32.88 101.82 -32.75 100.65 -32.62 99.44 C-32.14 95.46 -31.19 91.82 -30 88 C-29.34 88 -28.68 88 -28 88 C-27.88 86.82 -27.75 85.65 -27.62 84.44 C-27.14 80.46 -26.19 76.82 -25 73 C-24.34 73 -23.68 73 -23 73 C-22.88 71.82 -22.75 70.65 -22.62 69.44 C-22.14 65.46 -21.19 61.82 -20 58 C-19.34 58 -18.68 58 -18 58 C-17.88 56.82 -17.75 55.65 -17.62 54.44 C-17.14 50.46 -16.19 46.82 -15 43 C-14.34 43 -13.68 43 -13 43 C-12.88 41.82 -12.75 40.65 -12.62 39.44 C-12.14 35.46 -11.19 31.82 -10 28 C-9.34 28 -8.68 28 -8 28 C-7.88 26.82 -7.75 25.65 -7.62 24.44 C-7.14 20.46 -6.19 16.82 -5 13 C-4.34 13 -3.68 13 -3 13 C-2.88 11.78 -2.75 10.57 -2.62 9.31 C-2.25 5.67 -1.45 3.62 0 0 Z M412 141 C412 142.98 412 144.96 412 147 C412.33 147 412.66 147 413 147 C413 145.02 413 143.04 413 141 C412.67 141 412.34 141 412 141 Z M407 166 C407 168.64 407 171.28 407 174 C407.33 174 407.66 174 408 174 C408 171.36 408 168.72 408 166 C407.67 166 407.34 166 407 166 Z M402 194 C402 195.65 402 197.3 402 199 C402.33 199 402.66 199 403 199 C403 197.35 403 195.7 403 194 C402.67 194 402.34 194 402 194 Z M397 217 C396.78 218.77 396.57 220.54 396.38 222.31 C396.26 223.3 396.14 224.28 396.02 225.3 C395.75 228.23 395.75 228.23 398 231 C398 226.38 398 221.76 398 217 C397.67 217 397.34 217 397 217 Z M592 291 C593 294 593 294 593 294 Z M607 316 C608 318 608 318 608 318 Z M563 483 C564 485 564 485 564 485 Z M577 735 C577 737.31 577 739.62 577 742 C577.33 742 577.66 742 578 742 C578 739.69 578 737.38 578 735 C577.67 735 577.34 735 577 735 Z M577 744 C578 746 578 746 578 746 Z M-366 982 C-366 982.33 -366 982.66 -366 983 C-362.04 983 -358.08 983 -354 983 C-354 982.67 -354 982.34 -354 982 C-357.96 982 -361.92 982 -366 982 Z M592 986 C593 989 593 989 593 989 Z M495 987 C495 987.33 495 987.66 495 988 C496.98 988 498.96 988 501 988 C501 987.67 501 987.34 501 987 C499.02 987 497.04 987 495 987 Z M-444 997 C-444 997.33 -444 997.66 -444 998 C-440.7 998 -437.4 998 -434 998 C-434 997.67 -434 997.34 -434 997 C-437.3 997 -440.6 997 -444 997 Z M397 1048 C397 1048.99 397 1049.98 397 1051 C396.01 1051.49 396.01 1051.49 395 1052 C395.66 1052 396.32 1052 397 1052 C397 1054.97 397 1057.94 397 1061 C397.33 1061 397.66 1061 398 1061 C398 1056.71 398 1052.42 398 1048 C397.67 1048 397.34 1048 397 1048 Z M408 1115 C409 1118 409 1118 409 1118 Z M-132 1140 C-131 1142 -131 1142 -131 1142 Z M-150 1157 C-149 1160 -149 1160 -149 1160 Z M142 1170 C143 1173 143 1173 143 1173 Z M137 1185 C138 1187 138 1187 138 1187 Z M-190 1192 C-189 1195 -189 1195 -189 1195 Z M132 1200 C133 1202 133 1202 133 1202 Z M127 1215 C128 1217 128 1217 128 1217 Z M122 1230 C123 1232 123 1232 123 1232 Z M117 1245 C118 1247 118 1247 118 1247 Z M112 1260 C113 1262 113 1262 113 1262 Z " fill="#313A48" transform="translate(585,0)"/>
<path d="M0 0 C2.83 1.65 5.68 3.21 8.57 4.75 C14.59 8.02 20.28 11.68 25.96 15.48 C27 16.18 28.04 16.87 29.11 17.59 C41.34 25.86 53.15 34.69 63.95 44.77 C66.4 46.99 68.93 49.04 71.52 51.1 C77.37 55.86 82.72 61.01 88.02 66.36 C89.34 67.66 89.34 67.66 90.68 68.99 C95.9 74.23 100.73 79.65 105.32 85.45 C107.52 88.13 109.83 90.65 112.21 93.17 C123.65 105.65 133.01 119.94 142.4 133.98 C142.84 134.65 143.29 135.31 143.75 135.99 C148.25 142.73 152.31 149.5 155.82 156.82 C157.3 159.79 158.9 162.64 160.56 165.5 C182.55 203.45 194.82 247.32 201.65 290.36 C201.8 291.31 201.95 292.25 202.11 293.23 C204.95 312.3 205.77 331.29 205.71 350.55 C205.71 351.68 205.71 352.82 205.71 353.99 C205.67 371.53 204.95 388.61 202.4 405.98 C202.13 408.04 201.86 410.09 201.59 412.15 C196.38 449.8 185.02 489.28 167.4 522.98 C166.31 525.19 165.23 527.4 164.15 529.61 C157.9 542.1 151.14 554.35 143.4 565.98 C142.96 566.65 142.53 567.31 142.08 567.99 C131.35 584.2 119.87 600.21 106.66 614.51 C105.42 615.87 104.18 617.25 102.97 618.65 C98.11 624.32 92.93 629.64 87.65 634.92 C86.16 636.41 84.68 637.91 83.2 639.41 C77.62 645.01 71.91 650.21 65.72 655.14 C63.77 656.69 61.89 658.27 60.02 659.92 C47.86 670.41 34.53 679.92 20.91 688.4 C18.54 689.89 16.25 691.46 13.96 693.05 C9.72 695.89 5.28 698.13 0.69 700.36 C-2.87 702.12 -6.36 703.98 -9.85 705.86 C-28.87 716.05 -48.14 724.14 -68.6 730.98 C-69.46 731.27 -70.32 731.56 -71.21 731.86 C-95.29 739.89 -120.42 744.96 -145.6 747.98 C-146.34 748.08 -147.07 748.17 -147.83 748.26 C-162.58 750.06 -177.25 750.38 -192.1 750.36 C-193.3 750.36 -194.51 750.36 -195.75 750.36 C-216.28 750.32 -236.32 749.2 -256.6 745.98 C-257.77 745.8 -258.93 745.62 -260.13 745.43 C-300.81 738.85 -340.74 725.55 -377.04 706.05 C-377.68 705.7 -378.32 705.36 -378.98 705.01 C-380.85 704 -382.73 702.99 -384.6 701.98 C-385.59 701.46 -386.57 700.93 -387.59 700.38 C-390.27 698.93 -392.94 697.47 -395.6 695.98 C-396.52 695.48 -397.44 694.97 -398.38 694.45 C-407.15 689.47 -415.39 683.81 -423.6 677.98 C-424.23 677.54 -424.87 677.09 -425.52 676.62 C-439.8 666.45 -453.3 655.48 -466.05 643.44 C-468.15 641.47 -470.28 639.53 -472.42 637.59 C-479.2 631.42 -485.68 625.15 -491.67 618.2 C-493.85 615.7 -496.1 613.29 -498.35 610.86 C-514.12 593.52 -527.42 573.96 -539.6 553.98 C-540.6 552.35 -540.6 552.35 -541.62 550.68 C-589.36 470.87 -603.84 372.93 -588.6 281.98 C-588.43 280.94 -588.25 279.9 -588.08 278.83 C-576.84 213.54 -547.69 150.06 -505.6 98.98 C-504.94 98.15 -504.29 97.32 -503.61 96.47 C-489.17 78.38 -472.44 60.14 -454.14 45.96 C-451.74 44.09 -449.46 42.13 -447.19 40.12 C-439.83 33.69 -431.91 28.25 -423.79 22.83 C-420.59 20.69 -417.59 18.41 -414.6 15.98 C-412.91 14.95 -411.2 14.03 -409.45 13.11 C-407.44 11.95 -407.44 11.95 -405.22 10.03 C-402.61 7.99 -400.15 6.64 -397.16 5.23 C-392.75 3.09 -388.51 0.8 -384.29 -1.7 C-301.26 -49.94 -196.67 -60.76 0 0 Z " fill="#F6C965" transform="translate(833.6015625,289.015625)"/>
<path d="M0 0 C1.16 0 2.31 0 3.5 0.01 C4.15 0 4.79 0 5.45 0 C7.61 -0 9.78 0.01 11.94 0.02 C13.49 0.02 15.04 0.02 16.58 0.02 C20.79 0.02 25 0.03 29.21 0.04 C33.6 0.06 38 0.06 42.39 0.06 C50.72 0.07 59.04 0.08 67.37 0.1 C76.85 0.12 86.33 0.14 95.8 0.15 C115.3 0.17 134.8 0.2 154.3 0.25 C155.91 4.27 154.62 7.1 153.25 11.07 C153.02 11.76 152.79 12.44 152.56 13.14 C151.79 15.41 151 17.67 150.22 19.94 C149.67 21.56 149.12 23.18 148.57 24.79 C147.41 28.21 146.24 31.63 145.07 35.05 C142.52 42.52 140.03 50.01 137.54 57.5 C136.12 61.79 134.68 66.08 133.25 70.37 C132.66 72.14 132.07 73.92 131.48 75.69 C131.18 76.58 130.88 77.47 130.58 78.39 C127.06 88.94 123.54 99.49 120.02 110.04 C116.68 120.06 113.34 130.07 110 140.09 C107.05 148.93 104.1 157.77 101.15 166.61 C99.6 171.27 98.04 175.92 96.49 180.57 C95.04 184.91 93.59 189.25 92.15 193.6 C91.62 195.19 91.08 196.79 90.55 198.38 C89.83 200.55 89.11 202.71 88.39 204.88 C87.98 206.09 87.58 207.3 87.16 208.55 C86.25 210.93 86.25 210.93 86.3 212.25 C86.92 212.25 87.54 212.25 88.17 212.26 C103.16 212.36 118.15 212.47 133.14 212.59 C140.38 212.64 147.63 212.69 154.88 212.74 C161.2 212.79 167.51 212.83 173.83 212.88 C177.18 212.91 180.52 212.93 183.87 212.96 C187.6 212.98 191.33 213.01 195.06 213.04 C196.17 213.05 197.29 213.05 198.44 213.06 C199.96 213.07 199.96 213.07 201.51 213.09 C202.39 213.09 203.27 213.1 204.18 213.11 C206.3 213.25 206.3 213.25 208.3 214.25 C207.69 218.15 206.49 221.24 204.73 224.77 C203.9 226.42 203.9 226.42 203.06 228.11 C202.45 229.33 201.84 230.55 201.22 231.77 C200.57 233.07 199.92 234.37 199.28 235.67 C197.49 239.24 195.7 242.81 193.91 246.37 C191.98 250.22 190.06 254.07 188.14 257.92 C184.8 264.59 181.46 271.26 178.12 277.93 C173.29 287.57 168.46 297.21 163.64 306.85 C155.81 322.5 147.98 338.14 140.15 353.78 C132.54 368.97 124.93 384.17 117.32 399.37 C116.86 400.3 116.39 401.24 115.9 402.2 C113.55 406.9 111.2 411.6 108.85 416.3 C89.34 455.29 69.82 494.27 50.3 533.25 C32.81 533.25 15.32 533.25 -2.7 533.25 C-3.72 529.17 -3.61 527.89 -2.61 523.98 C-2.35 522.91 -2.08 521.85 -1.81 520.75 C-1.5 519.58 -1.2 518.41 -0.89 517.21 C-0.58 515.98 -0.27 514.75 0.05 513.48 C0.9 510.09 1.76 506.7 2.63 503.32 C3.55 499.72 4.46 496.11 5.37 492.51 C7.29 484.92 9.22 477.34 11.15 469.76 C13.85 459.18 16.54 448.59 19.23 438.01 C20.1 434.56 20.98 431.12 21.85 427.67 C29.08 399.27 36.11 370.82 43.07 342.35 C43.34 341.27 43.6 340.18 43.88 339.06 C44.12 338.05 44.37 337.05 44.62 336.01 C45.05 334.28 45.48 332.55 45.94 330.83 C46.82 327.47 47.3 324.76 47.3 321.25 C12.98 320.92 -21.34 320.59 -56.7 320.25 C-58.06 317.53 -57.49 316.01 -56.99 313.01 C-56.81 311.9 -56.63 310.78 -56.44 309.63 C-56.23 308.4 -56.02 307.16 -55.81 305.89 C-55.59 304.58 -55.37 303.26 -55.15 301.94 C-54.55 298.32 -53.95 294.69 -53.34 291.07 C-52.69 287.18 -52.04 283.28 -51.39 279.39 C-50.13 271.78 -48.86 264.18 -47.59 256.57 C-46.11 247.74 -44.64 238.91 -43.17 230.07 C-40.74 215.44 -38.3 200.8 -35.85 186.17 C-32.56 166.43 -29.28 146.69 -26 126.94 C-24.21 116.17 -22.42 105.39 -20.63 94.61 C-20.5 93.82 -20.36 93.03 -20.23 92.21 C-19.96 90.62 -19.7 89.04 -19.44 87.45 C-18.65 82.74 -17.87 78.02 -17.09 73.31 C-15.85 65.84 -14.61 58.37 -13.36 50.9 C-12.8 47.51 -12.23 44.11 -11.67 40.72 C-7.8 17.42 -7.8 17.42 -6.03 8.16 C-5.82 7.03 -5.61 5.91 -5.39 4.76 C-4.43 1.27 -3.64 0.33 0 0 Z " fill="#FBFDFD" transform="translate(563.6980228424072,398.75390434265137)"/>
<path d="M0 0 C6.05 2.79 10.91 6.06 16.06 10.25 C51.98 38.79 93.02 63.46 135.77 80.28 C137.24 80.87 137.24 80.87 138.75 81.46 C140.65 82.22 142.56 82.96 144.48 83.68 C150.35 85.99 154.43 88.64 159 93 C158.36 93.13 157.72 93.26 157.06 93.39 C156.04 93.69 156.04 93.69 155 94 C154.3 95.31 153.64 96.65 153 98 C151.34 99.8 149.63 101.54 147.88 103.25 C146.96 104.14 146.05 105.03 145.12 105.95 C144.42 106.63 143.72 107.3 143 108 C142.01 107.67 141.02 107.34 140 107 C140.33 107.99 140.66 108.98 141 110 C139.95 110.56 138.9 111.11 137.81 111.69 C130.94 115.93 125.56 122.21 120 128 C119.01 127.67 118.02 127.34 117 127 C117 127.66 117 128.32 117 129 C116.34 129 115.68 129 115 129 C114.66 129.83 114.66 129.83 114.32 130.67 C112.6 133.71 110.37 135.81 107.88 138.25 C106.96 139.14 106.05 140.03 105.12 140.95 C104.07 141.97 104.07 141.97 103 143 C102.01 142.67 101.02 142.34 100 142 C100.33 142.99 100.66 143.98 101 145 C99.31 145.62 97.61 146.24 95.92 146.86 C93.27 148.44 91.88 150.55 90 153 C88.19 154.97 86.37 156.9 84.5 158.81 C84.03 159.31 83.55 159.82 83.07 160.33 C81.66 161.77 81.66 161.77 79 164 C77.68 164 76.36 164 75 164 C74.34 165.32 73.68 166.64 73 168 C72.01 167.67 71.02 167.34 70 167 C70.33 167.99 70.66 168.98 71 170 C69.19 170.62 69.19 170.62 67 171 C65.51 170.01 65.51 170.01 64 169 C64 168.34 64 167.68 64 167 C62.89 166.85 62.89 166.85 61.75 166.69 C58.83 165.96 57.27 164.93 55 163 C54.67 163.33 54.34 163.66 54 164 C51.5 162.62 51.5 162.62 49 161 C49 160.34 49 159.68 49 159 C48.28 158.92 47.56 158.84 46.81 158.75 C43.45 157.85 41.64 156.21 39 154 C38.34 154 37.68 154 37 154 C37 153.34 37 152.68 37 152 C36.03 151.71 35.06 151.42 34.06 151.12 C31 150 31 150 30 148 C27.89 147.09 27.89 147.09 25.44 146.38 C24.61 146.11 23.78 145.85 22.93 145.59 C22.3 145.39 21.66 145.2 21 145 C21 144.01 21 143.02 21 142 C20.01 142.33 19.02 142.66 18 143 C17.01 141.02 17.01 141.02 16 139 C14.68 139 13.36 139 12 139 C12 138.34 12 137.68 12 137 C10.02 136.67 8.04 136.34 6 136 C6 135.34 6 134.68 6 134 C5.34 134 4.68 134 4 134 C4 133.34 4 132.68 4 132 C2.89 131.81 2.89 131.81 1.75 131.62 C-0.8 131.05 -2.73 130.26 -5 129 C-5 128.34 -5 127.68 -5 127 C-6.09 126.92 -7.19 126.84 -8.31 126.75 C-12 126 -12 126 -13.69 124 C-14.12 123.34 -14.55 122.68 -15 122 C-17.09 121.2 -17.09 121.2 -19 121 C-19 120.34 -19 119.68 -19 119 C-20.32 119 -21.64 119 -23 119 C-22.86 116.71 -22.71 114.42 -22.56 112.12 C-22.48 110.85 -22.4 109.57 -22.32 108.26 C-22 105 -22 105 -21 103 C-20.65 101.21 -20.35 99.42 -20.06 97.62 C-19.8 96.03 -19.8 96.03 -19.54 94.39 C-19.18 92.12 -18.82 89.85 -18.46 87.57 C-18.2 85.96 -18.2 85.96 -17.94 84.31 C-17.7 82.82 -17.7 82.82 -17.46 81.3 C-17 79 -17 79 -16 78 C-15.64 76.26 -15.34 74.51 -15.06 72.75 C-14.89 71.67 -14.72 70.6 -14.54 69.49 C-14.27 67.76 -14.27 67.76 -14 66 C-13.81 64.82 -13.62 63.64 -13.43 62.42 C-12.38 56.24 -12.38 56.24 -12 50 C-11.34 50 -10.68 50 -10 50 C-10.02 48.76 -10.04 47.53 -10.06 46.25 C-10.11 43.28 -9.75 40.86 -9 38 C-8.63 35.75 -8.28 33.5 -7.94 31.25 C-7.76 30.08 -7.58 28.91 -7.4 27.7 C-7.27 26.81 -7.14 25.92 -7 25 C-6.34 25 -5.68 25 -5 25 C-5.01 24.39 -5.02 23.77 -5.04 23.14 C-5.04 22.33 -5.05 21.52 -5.06 20.69 C-5.07 19.89 -5.09 19.09 -5.1 18.26 C-5 16 -5 16 -4 13 C-3.5 10.17 -3.05 7.33 -2.6 4.5 C-2 2 -2 2 0 0 Z M138 107 C139 110 139 110 139 110 Z M98 142 C99 145 99 145 99 145 Z " fill="#3D4957" transform="translate(297,1050)"/>
<path d="M0 0 C2.15 0.31 4.29 0.62 6.44 0.94 C8.23 1.2 8.23 1.2 10.06 1.46 C13 2 13 2 14 3 C15.33 3.27 16.67 3.49 18.01 3.68 C18.83 3.81 19.65 3.93 20.5 4.06 C22.23 4.31 23.95 4.56 25.68 4.81 C30.6 5.54 35.21 6.62 40 8 C43.15 8.61 46.32 9.09 49.5 9.56 C50.32 9.69 51.13 9.81 51.97 9.94 C56.54 10.64 56.54 10.64 61.12 11.28 C65.9 11.9 65.9 11.9 67 13 C68.58 13.34 70.18 13.64 71.78 13.9 C72.77 14.07 73.76 14.24 74.78 14.41 C76.34 14.67 76.34 14.67 77.94 14.94 C84.54 16.05 91.11 17.19 97.67 18.53 C99.89 18.98 102.11 19.39 104.34 19.78 C105.01 19.9 105.68 20.02 106.37 20.14 C107.73 20.39 109.09 20.62 110.45 20.86 C113.93 21.48 116.94 22.18 120 24 C119.01 24.66 118.02 25.32 117 26 C116.03 27.69 115.05 29.38 114.12 31.1 C112.27 34.25 109.91 36.95 107.56 39.75 C101.06 47.71 95.29 56.09 89.59 64.63 C88.08 66.89 86.54 69.13 85 71.37 C65.67 99.63 49.7 130.17 36.65 161.79 C34.82 166.14 32.96 170.46 30.98 174.74 C30.3 176.22 30.3 176.22 29.61 177.73 C28 180 28 180 25.31 180.83 C24.55 180.89 23.79 180.94 23 181 C22.5 180.18 22.01 179.35 21.5 178.5 C19.04 174.77 15.92 171.81 12.71 168.73 C11 167 11 167 10 165 C9.22 164.24 8.43 163.47 7.62 162.69 C5 160 5 160 3.38 157.25 C2.14 154.69 2.14 154.69 -1 154 C-1.67 152.67 -2.33 151.33 -3 150 C-3.87 149.13 -4.73 148.27 -5.62 147.38 C-6.8 146.2 -6.8 146.2 -8 145 C-8 144.34 -8 143.68 -8 143 C-8.66 143 -9.32 143 -10 143 C-10 142.34 -10 141.68 -10 141 C-10.66 141 -11.32 141 -12 141 C-12.89 139.63 -13.78 138.25 -14.65 136.86 C-16.86 133.82 -19.59 131.33 -22.29 128.73 C-24 127 -24 127 -25 125 C-26.18 123.86 -26.18 123.86 -27.38 122.69 C-30 120 -30 120 -31.62 117.25 C-32.86 114.69 -32.86 114.69 -36 114 C-36.67 112.67 -37.33 111.33 -38 110 C-38.87 109.13 -39.73 108.27 -40.62 107.38 C-41.8 106.2 -41.8 106.2 -43 105 C-43 104.34 -43 103.68 -43 103 C-43.66 103 -44.32 103 -45 103 C-45 102.34 -45 101.68 -45 101 C-45.66 101 -46.32 101 -47 101 C-49.47 97.91 -51.43 94.63 -53 91 C-52.38 87.38 -52.38 87.38 -51 85 C-50.34 85 -49.68 85 -49 85 C-48.67 83.35 -48.34 81.7 -48 80 C-47.34 80 -46.68 80 -46 80 C-46 79.01 -46 78.02 -46 77 C-45.34 77 -44.68 77 -44 77 C-43.01 74.03 -42.02 71.06 -41 68 C-40.34 68 -39.68 68 -39 68 C-37.92 65.35 -36.91 62.72 -36 60 C-35.34 60 -34.68 60 -34 60 C-33.6 58.67 -33.6 58.67 -33.19 57.31 C-31.82 53.49 -29.93 50.44 -27.73 47.05 C-27.28 46.35 -26.84 45.66 -26.38 44.94 C-25.95 44.29 -25.52 43.64 -25.09 42.96 C-23.99 40.97 -23.45 39.22 -23 37 C-22.34 37 -21.68 37 -21 37 C-20.71 36.05 -20.42 35.1 -20.12 34.12 C-19 31 -19 31 -17 29 C-16.88 28.38 -16.75 27.76 -16.62 27.12 C-16 25 -16 25 -14.25 23.38 C-11.44 20.41 -10.05 17.26 -8.3 13.61 C-5.92 8.83 -2.96 4.44 0 0 Z " fill="#3C4856" transform="translate(111,273)"/>
<path d="M0 0 C0.99 0.49 0.99 0.49 2 1 C2 1.66 2 2.32 2 3 C2.96 3.4 2.96 3.4 3.94 3.81 C6 5 6 5 7 8 C8.33 8.67 9.67 9.33 11 10 C12.65 11.58 14.25 13.21 15.81 14.88 C19.66 18.82 23.05 21.63 28 24 C28 24.66 28 25.32 28 26 C28.59 26.26 29.17 26.51 29.78 26.78 C32.19 28.1 33.69 29.56 35.56 31.56 C37.83 34 38.77 34.92 42 36 C42 36.66 42 37.32 42 38 C42.64 38.27 43.28 38.54 43.94 38.81 C46 40 46 40 47 43 C48.33 43.67 49.67 44.33 51 45 C52.65 46.58 54.25 48.21 55.81 49.88 C59.66 53.82 63.05 56.63 68 59 C68 59.66 68 60.32 68 61 C68.59 61.26 69.18 61.52 69.78 61.78 C72.85 63.47 74.85 65.8 77.22 68.34 C78.93 70.1 78.93 70.1 81.17 71.05 C81.78 71.37 82.38 71.68 83 72 C83.75 74.62 83.75 74.62 84 77 C78.4 80.75 72.73 83.57 66.5 86.12 C64.63 86.91 62.75 87.71 60.88 88.5 C59.91 88.91 58.94 89.32 57.95 89.74 C14.55 108.27 -27 132.56 -63.5 162.57 C-70.2 168 -70.2 168 -74 168 C-75.71 160.3 -77.31 152.62 -78.47 144.82 C-78.97 141.9 -78.97 141.9 -79.96 138.72 C-81.15 134.47 -81.88 130.24 -82.56 125.88 C-82.81 124.31 -83.06 122.74 -83.32 121.18 C-83.43 120.45 -83.55 119.72 -83.67 118.96 C-84.06 116.63 -84.52 114.32 -85 112 C-86.25 105.75 -86.25 105.75 -86.63 103.86 C-87.5 99.48 -88.38 95.11 -89.27 90.74 C-89.72 88.51 -90.17 86.29 -90.62 84.06 C-90.84 83 -91.06 81.93 -91.29 80.83 C-92.18 76.39 -93.05 71.97 -93.59 67.47 C-94.02 63.81 -94.97 60.53 -96 57 C-96.37 54.67 -96.71 52.34 -97 50 C-87 44 -87 44 -84.43 42.46 C-82.22 41.13 -80.01 39.79 -77.81 38.44 C-77.14 38.02 -76.46 37.61 -75.77 37.18 C-73.86 35.99 -73.86 35.99 -72 34 C-65.65 31 -65.65 31 -62 31 C-62 30.34 -62 29.68 -62 29 C-61.03 28.55 -60.06 28.09 -59.06 27.62 C-55.93 26.34 -55.93 26.34 -55 24 C-48.77 21 -48.77 21 -45 21 C-45 20.34 -45 19.68 -45 19 C-39.25 16 -39.25 16 -37 16 C-37 15.34 -37 14.68 -37 14 C-36.13 13.59 -35.27 13.17 -34.38 12.75 C-30.97 11.08 -30.97 11.08 -27.94 8.88 C-25.13 7.08 -23.27 6.38 -20 6 C-20 5.34 -20 4.68 -20 4 C-19.01 4 -18.02 4 -17 4 C-16.67 3.34 -16.34 2.68 -16 2 C-13.94 1.38 -13.94 1.38 -12 1 C-12 0.34 -12 -0.32 -12 -1 C-7.2 -3.76 -4.74 -2.41 0 0 Z " fill="#3C4856" transform="translate(370,61)"/>
<path d="M0 0 C0.69 2.06 0.69 2.06 1 4 C1.66 4 2.32 4 3 4 C4.04 5.64 5.04 7.31 6 9 C6.99 9.99 6.99 9.99 8 11 C9.08 13.41 9.93 15.68 10.5 18.25 C10.66 18.83 10.83 19.4 11 20 C11.66 20.33 12.32 20.66 13 21 C13 21.99 13 22.98 13 24 C13.66 24.33 14.32 24.66 15 25 C14.67 25.66 14.34 26.32 14 27 C14.66 27 15.32 27 16 27 C19 32.75 19 32.75 19 35 C19.6 35.04 20.2 35.08 20.81 35.12 C23 36 23 36 24.75 38.75 C25.93 41.83 26.29 43.75 26 47 C26.66 47 27.32 47 28 47 C28.08 47.78 28.16 48.57 28.25 49.38 C28.5 50.24 28.74 51.11 29 52 C29.66 52.31 30.32 52.62 31 52.94 C31.99 53.46 31.99 53.46 33 54 C33.62 57.06 33.62 57.06 34 60 C34.66 60.33 35.32 60.66 36 61 C36.66 61.99 37.32 62.98 38 64 C38.66 64.33 39.32 64.66 40 65 C40.41 67.32 40.74 69.66 41 72 C41.66 72 42.32 72 43 72 C44.01 73.93 45.01 75.87 46 77.81 C46.56 78.89 47.11 79.97 47.69 81.08 C49 84 49 84 49 87 C49.66 87 50.32 87 51 87 C52.19 89.25 52.19 89.25 53 92 C51.75 94.31 51.75 94.31 50 96 C49.34 96 48.68 96 48 96 C47.82 96.83 47.65 97.66 47.47 98.51 C45.44 103.34 42.23 106.28 38.5 109.88 C37.81 110.56 37.12 111.25 36.41 111.96 C31.28 117 31.28 117 29 117 C28.86 117.78 28.71 118.57 28.56 119.38 C28 122 28 122 27 124 C26.34 124 25.68 124 25 124 C24.66 124.83 24.66 124.83 24.31 125.67 C22.61 128.69 20.45 130.81 18 133.25 C16.67 134.59 16.67 134.59 15.31 135.95 C13 138 13 138 11 138 C10.98 138.67 10.96 139.35 10.93 140.04 C9.51 144.54 6.41 147.09 3.06 150.31 C2.42 150.96 1.77 151.6 1.1 152.27 C-3.72 157 -3.72 157 -6 157 C-6.14 157.78 -6.29 158.57 -6.44 159.38 C-7 162 -7 162 -8 164 C-8.66 164 -9.32 164 -10 164 C-10.26 164.59 -10.51 165.19 -10.77 165.8 C-12.12 168.21 -13.49 169.51 -15.62 171.25 C-16.57 172.03 -16.57 172.03 -17.54 172.83 C-18.02 173.21 -18.5 173.6 -19 174 C-19.66 173.67 -20.32 173.34 -21 173 C-20.67 173.99 -20.34 174.98 -20 176 C-20.64 176.25 -21.28 176.5 -21.94 176.75 C-24.19 177.8 -24.19 177.8 -24.63 180.08 C-24.75 180.71 -24.87 181.35 -25 182 C-29.67 176.39 -32.56 170.92 -35.12 164.12 C-42.96 144.27 -52.04 125.11 -62.56 106.53 C-63.94 104.11 -65.29 101.69 -66.64 99.25 C-78.43 78.22 -92.12 57.78 -107.21 38.96 C-107.98 38 -107.98 38 -108.76 37.02 C-109.72 35.84 -110.69 34.67 -111.66 33.5 C-114.24 30.34 -115.39 28.02 -116 24 C-116.66 23.67 -117.32 23.34 -118 23 C-117.34 23 -116.68 23 -116 23 C-116 22.34 -116 21.68 -116 21 C-114.61 20.8 -114.61 20.8 -113.19 20.6 C-111.99 20.42 -110.8 20.24 -109.56 20.06 C-108.37 19.89 -107.17 19.71 -105.94 19.54 C-103.12 19.31 -103.12 19.31 -102 18 C-100.48 17.93 -98.96 17.92 -97.44 17.94 C-96.61 17.95 -95.78 17.96 -94.93 17.96 C-93.98 17.98 -93.98 17.98 -93 18 C-92.67 17.34 -92.34 16.68 -92 16 C-92 16.66 -92 17.32 -92 18 C-91.34 18 -90.68 18 -90 18 C-90 17.34 -90 16.68 -90 16 C-89.07 15.87 -88.15 15.73 -87.19 15.6 C-85.99 15.42 -84.8 15.24 -83.56 15.06 C-82.37 14.89 -81.17 14.71 -79.94 14.54 C-77.12 14.31 -77.12 14.31 -76 13 C-73.16 12.68 -70.32 12.49 -67.47 12.28 C-65.06 12.27 -65.06 12.27 -64 11 C-61.67 10.45 -59.35 9.96 -57 9.5 C-56.31 9.36 -55.62 9.23 -54.91 9.09 C-51.47 8.42 -48.06 7.84 -44.56 7.56 C-39.58 7.12 -34.84 5.72 -30.02 4.45 C-25.12 3.19 -20.4 2.53 -15.34 2.21 C-12.03 1.91 -9.15 1.05 -6 0 C-3 -1 -3 -1 0 0 Z M9 17 C10 20 10 20 10 20 Z M24 42 C25 44 25 44 25 44 Z " fill="#3D4957" transform="translate(1168,274)"/>
<path d="M0 0 C0.66 0 1.32 0 2 0 C6.28 5.21 8.66 10.56 11.06 16.81 C29.38 62.84 54.41 104.46 84.36 143.78 C85.22 144.91 86.08 146.05 86.93 147.18 C88.04 148.64 89.15 150.09 90.26 151.55 C91.76 153.66 92.86 155.69 94 158 C94.66 158.66 95.32 159.32 96 160 C94.88 160.05 93.76 160.1 92.61 160.15 C91.13 160.22 89.66 160.3 88.19 160.38 C87.08 160.42 87.08 160.42 85.95 160.47 C82.18 160.67 80.2 160.86 77 163 C74.74 163.41 74.74 163.41 72.31 163.62 C71.5 163.7 70.7 163.77 69.86 163.85 C68.94 163.93 68.94 163.93 68 164 C68 164.33 68 164.66 68 165 C67.1 165.05 66.19 165.1 65.26 165.15 C64.08 165.22 62.9 165.3 61.69 165.38 C59.93 165.48 59.93 165.48 58.14 165.59 C54.84 165.79 54.84 165.79 52 168 C49.52 168.41 49.52 168.41 46.81 168.62 C45.46 168.74 45.46 168.74 44.08 168.85 C43.39 168.9 42.71 168.95 42 169 C42 169.33 42 169.66 42 170 C39.69 170.33 37.38 170.66 35 171 C35 171.33 35 171.66 35 172 C33.71 172.13 32.42 172.27 31.1 172.4 C29.42 172.58 27.74 172.76 26.06 172.94 C25.21 173.02 24.36 173.11 23.49 173.2 C22.68 173.29 21.87 173.38 21.04 173.46 C20.29 173.54 19.54 173.62 18.77 173.7 C16.98 173.83 16.98 173.83 16 175 C13.98 175.07 11.96 175.08 9.94 175.06 C8.83 175.05 7.73 175.04 6.59 175.04 C5.31 175.02 5.31 175.02 4 175 C4 175.66 4 176.32 4 177 C1.15 177.8 -1.48 178.16 -4.44 178.28 C-5.27 178.32 -6.1 178.36 -6.96 178.39 C-8.7 178.47 -10.44 178.54 -12.18 178.61 C-13.42 178.66 -13.42 178.66 -14.69 178.72 C-15.45 178.75 -16.2 178.78 -16.98 178.81 C-19.2 178.94 -19.2 178.94 -22 180 C-22 180.66 -22 181.32 -22 182 C-25.59 180.21 -27.5 177.69 -29 174 C-29 173.01 -29 172.02 -29 171 C-29.66 171 -30.32 171 -31 171 C-31 170.01 -31 169.02 -31 168 C-31.66 168 -32.32 168 -33 168 C-33.37 167.03 -33.74 166.06 -34.12 165.06 C-35.82 161.08 -38.14 157.69 -40.58 154.14 C-42.89 150.67 -44.61 147.11 -46 143.19 C-46.33 142.47 -46.66 141.74 -47 141 C-47.99 140.67 -48.98 140.34 -50 140 C-51.06 137.19 -51.06 137.19 -52 134 C-52.56 132.89 -52.56 132.89 -53.12 131.75 C-54 130 -54 130 -54 128 C-54.66 128 -55.32 128 -56 128 C-59 122.25 -59 122.25 -59 120 C-59.66 120 -60.32 120 -61 120 C-62 118 -63 116 -64 114 C-64.39 113.26 -64.78 112.51 -65.19 111.75 C-66 110 -66 110 -66 108 C-66.66 108 -67.32 108 -68 108 C-70.59 103.68 -72.4 99.79 -74 95 C-74.66 94.67 -75.32 94.34 -76 94 C-77 91.88 -77 91.88 -77 89 C-75.7 87.1 -74.25 85.5 -72.64 83.84 C-70.91 82.04 -70.91 82.04 -69.74 79.72 C-66.87 75.23 -62.86 71.82 -59.01 68.17 C-55.61 64.88 -53.66 62.48 -52 58 C-49.73 55.53 -49.73 55.53 -47 53 C-45.12 51.17 -43.25 49.34 -41.38 47.5 C-40.43 46.58 -39.49 45.66 -38.52 44.72 C-35.99 42.2 -35.99 42.2 -34.61 39.59 C-31.84 35.12 -27.81 31.77 -24.01 28.17 C-20.73 25 -18.24 22.53 -17 18 C-16.34 18 -15.68 18 -15 18 C-15 17.34 -15 16.68 -15 16 C-14.34 16 -13.68 16 -13 16 C-12.77 15.45 -12.55 14.89 -12.32 14.32 C-10.61 11.31 -8.42 9.27 -5.94 6.88 C-2.54 3.76 -2.54 3.76 0 0 Z M6 173 C6 173.33 6 173.66 6 174 C9.3 174 12.6 174 16 174 C16 173.67 16 173.34 16 173 C12.7 173 9.4 173 6 173 Z " fill="#3D4856" transform="translate(135,824)"/>
<path d="M0 0 C0.89 0.25 1.77 0.49 2.69 0.75 C2.69 1.41 2.69 2.07 2.69 2.75 C3.77 3.15 3.77 3.15 4.88 3.56 C7.67 4.74 10.11 6.16 12.69 7.75 C14.02 8.42 15.35 9.08 16.69 9.75 C18.61 10.79 20.52 11.83 22.44 12.88 C23.42 13.41 24.41 13.95 25.42 14.51 C26.17 14.92 26.92 15.33 27.69 15.75 C27.69 16.41 27.69 17.07 27.69 17.75 C28.64 17.87 29.59 18 30.56 18.12 C34.27 18.87 35.08 20.14 37.69 22.75 C39 23.45 40.34 24.12 41.69 24.75 C45.02 26.42 48.35 28.08 51.69 29.75 C51.69 30.41 51.69 31.07 51.69 31.75 C52.41 32.03 53.12 32.31 53.86 32.59 C56.6 33.71 59.23 34.94 61.88 36.25 C62.73 36.67 63.59 37.1 64.48 37.53 C66.69 38.75 66.69 38.75 68.69 40.75 C71.41 42.17 74.16 43.5 76.94 44.81 C79.29 46.07 80.5 47.37 81.69 49.75 C83.01 50.12 84.35 50.44 85.69 50.75 C87.04 51.39 88.37 52.05 89.69 52.75 C89.69 55.06 89.69 57.37 89.69 59.75 C88.7 58.76 87.71 57.77 86.69 56.75 C86.7 57.5 86.71 58.25 86.72 59.02 C86.85 73.25 86.85 73.25 85.69 78.75 C85.03 79.41 84.37 80.07 83.69 80.75 C83.26 83.61 83.26 83.61 83.12 86.81 C82.78 92.65 82.78 92.65 81.69 93.75 C81.46 95.09 81.29 96.44 81.15 97.79 C81.02 99 81.02 99 80.89 100.24 C80.8 101.09 80.71 101.94 80.62 102.81 C80.53 103.67 80.44 104.52 80.35 105.4 C80.12 107.52 79.91 109.63 79.69 111.75 C79.36 111.75 79.03 111.75 78.69 111.75 C78.36 114.06 78.03 116.37 77.69 118.75 C77.03 118.75 76.37 118.75 75.69 118.75 C75.71 119.41 75.73 120.08 75.76 120.76 C75.78 121.64 75.79 122.53 75.81 123.44 C75.84 124.31 75.86 125.18 75.88 126.07 C75.67 129.01 74.79 131.04 73.69 133.75 C73.41 135.68 73.2 137.62 73.06 139.56 C72.95 141.03 72.95 141.03 72.84 142.52 C72.76 143.62 72.76 143.62 72.69 144.75 C72.36 144.75 72.03 144.75 71.69 144.75 C71.61 145.89 71.61 145.89 71.54 147.05 C71.46 148.04 71.39 149.04 71.31 150.06 C71.21 151.54 71.21 151.54 71.1 153.05 C70.69 155.75 70.69 155.75 68.69 158.75 C68.39 161.14 68.19 163.54 68.06 165.94 C67.99 167.21 67.91 168.48 67.84 169.79 C67.79 170.77 67.74 171.74 67.69 172.75 C67.03 171.43 66.37 170.11 65.69 168.75 C65.03 169.08 64.37 169.41 63.69 169.75 C59.01 166.62 54.45 163.4 50.07 159.87 C30.3 144 8.91 129.93 -13.31 117.75 C-14.69 116.98 -14.69 116.98 -16.1 116.2 C-32.27 107.22 -48.61 98.86 -65.64 91.61 C-66.27 91.34 -66.9 91.07 -67.55 90.79 C-70.66 89.47 -73.77 88.16 -76.9 86.86 C-88.14 82.14 -88.14 82.14 -92.31 78.75 C-92.31 78.09 -92.31 77.43 -92.31 76.75 C-90.63 75.28 -88.89 73.87 -87.12 72.5 C-82.54 68.89 -82.54 68.89 -78.69 64.56 C-76.52 62 -75.16 60.93 -72.38 59.25 C-66.92 55.83 -62.69 51.32 -58.27 46.69 C-55.14 43.43 -52.29 40.97 -48.31 38.75 C-46.78 37.5 -45.28 36.2 -43.81 34.88 C-43.03 34.17 -42.25 33.46 -41.44 32.73 C-39.84 31.24 -38.28 29.69 -36.75 28.12 C-34.79 26.22 -33.02 24.8 -30.81 23.25 C-26.03 19.78 -22.04 15.58 -17.97 11.33 C-14.95 8.21 -12.15 5.87 -8.31 3.75 C-7.51 3.01 -6.7 2.27 -5.88 1.5 C-3.31 -0.25 -3.31 -0.25 0 0 Z M80.69 82.75 C80.69 84.73 80.69 86.71 80.69 88.75 C81.02 88.75 81.35 88.75 81.69 88.75 C81.69 86.77 81.69 84.79 81.69 82.75 C81.36 82.75 81.03 82.75 80.69 82.75 Z M75.69 107.75 C75.69 110.39 75.69 113.03 75.69 115.75 C76.02 115.75 76.35 115.75 76.69 115.75 C76.69 113.11 76.69 110.47 76.69 107.75 C76.36 107.75 76.03 107.75 75.69 107.75 Z M70.69 135.75 C70.69 137.4 70.69 139.05 70.69 140.75 C71.02 140.75 71.35 140.75 71.69 140.75 C71.69 139.1 71.69 137.45 71.69 135.75 C71.36 135.75 71.03 135.75 70.69 135.75 Z " fill="#3D4956" transform="translate(916.3125,58.25)"/>
<path d="M0 0 C4.69 0.08 6.94 2.47 10.06 5.61 C10.64 6.21 11.22 6.82 11.81 7.44 C12.41 8.04 13.01 8.64 13.62 9.25 C18 13.72 18 13.72 18 16 C19.48 16.5 19.48 16.5 21 17 C21.41 17.87 21.83 18.73 22.25 19.62 C24.48 23.93 27.49 26.71 31 30 C35.89 34.68 35.89 34.68 37 38 C37.66 38 38.32 38 39 38 C39.42 38.71 39.84 39.42 40.27 40.14 C42.3 43.5 44.86 46.01 47.69 48.69 C49.51 50.42 51.26 52.17 53 54 C53 54.66 53 55.32 53 56 C53.99 56.33 54.98 56.66 56 57 C56.62 58.3 56.62 58.3 57.25 59.62 C59.49 63.94 62.49 66.7 66 70 C67.67 71.67 69.33 73.33 71 75 C71.54 75.5 72.07 75.99 72.62 76.5 C74.44 78.48 75.63 80.7 77 83 C78.31 84.68 79.64 86.36 81 88 C80.34 89.65 79.68 91.3 79 93 C78.34 93 77.68 93 77 93 C76.86 93.76 76.71 94.53 76.56 95.31 C76 98 76 98 75 101 C74.01 101 73.02 101 72 101 C71.67 103.31 71.34 105.62 71 108 C70.34 108 69.68 108 69 108 C68.92 108.91 68.84 109.82 68.75 110.75 C67.9 114.42 66.92 115.7 64 118 C63.34 118 62.68 118 62 118 C61.67 120.31 61.34 122.62 61 125 C59.68 125.33 58.36 125.66 57 126 C56.67 128.31 56.34 130.62 56 133 C55.34 133 54.68 133 54 133 C54 133.99 54 134.98 54 136 C53.34 136 52.68 136 52 136 C52.33 136.99 52.66 137.98 53 139 C50.67 143.67 50.67 143.67 48 145 C46.88 146.88 46.88 146.88 45.88 149.06 C45.35 150.16 45.35 150.16 44.8 151.29 C44.54 151.85 44.27 152.42 44 153 C43.34 153 42.68 153 42 153 C41.9 153.7 41.79 154.4 41.69 155.12 C40.48 160.18 37.84 164.68 35 169 C34.34 169.33 33.68 169.66 33 170 C32.27 171.98 31.6 173.98 31 176 C30.34 176 29.68 176 29 176 C28.34 177.32 27.68 178.64 27 180 C25.35 180 23.7 180 22 180 C22 179.67 22 179.34 22 179 C19.69 178.67 17.38 178.34 15 178 C15 177.67 15 177.34 15 177 C8.73 176.34 2.46 175.68 -4 175 C-3.01 174.34 -2.02 173.68 -1 173 C-4.3 173 -7.6 173 -11 173 C-11 172.67 -11 172.34 -11 172 C-16.94 171.34 -22.88 170.68 -29 170 C-28.01 169.34 -27.02 168.68 -26 168 C-29.3 168 -32.6 168 -36 168 C-36 167.67 -36 167.34 -36 167 C-37.06 166.87 -38.12 166.73 -39.21 166.6 C-40.6 166.42 -41.99 166.24 -43.38 166.06 C-44.42 165.93 -44.42 165.93 -45.49 165.8 C-50.77 165.11 -50.77 165.11 -53 164 C-54.54 163.78 -56.08 163.59 -57.62 163.44 C-58.44 163.35 -59.26 163.27 -60.1 163.18 C-60.73 163.12 -61.35 163.06 -62 163 C-62 162.34 -62 161.68 -62 161 C-62.99 161.33 -63.98 161.66 -65 162 C-67.63 161.73 -67.63 161.73 -70.56 161.19 C-71.53 161.02 -72.5 160.84 -73.5 160.67 C-76 160 -76 160 -78 158 C-80.44 157.76 -80.44 157.76 -83.12 157.88 C-84.04 157.89 -84.95 157.91 -85.88 157.93 C-86.58 157.95 -87.28 157.98 -88 158 C-88.39 153.07 -87.66 150.82 -84.62 146.94 C-83.89 145.98 -83.15 145.01 -82.39 144.02 C-81.21 142.53 -81.21 142.53 -80 141 C-61.49 117.32 -45.45 92.35 -31 66 C-30.52 65.12 -30.03 64.24 -29.53 63.34 C-19.51 45 -11.34 25.87 -3.37 6.57 C-1.1 1.1 -1.1 1.1 0 0 Z M37 160 C38 163 38 163 38 163 Z M-60 161 C-60 161.33 -60 161.66 -60 162 C-58.02 162 -56.04 162 -54 162 C-54 161.67 -54 161.34 -54 161 C-55.98 161 -57.96 161 -60 161 Z " fill="#3D4957" transform="translate(1140,826)"/>
<path d="M0 0 C0.33 0 0.66 0 1 0 C1.05 1.05 1.1 2.1 1.15 3.18 C1.22 4.55 1.3 5.93 1.38 7.31 C1.42 8.35 1.42 8.35 1.47 9.4 C1.68 13.07 1.92 14.88 4 18 C4.41 20.92 4.41 20.92 4.62 24.19 C4.74 25.82 4.74 25.82 4.85 27.48 C4.9 28.31 4.95 29.14 5 30 C5.33 30 5.66 30 6 30 C5.98 30.69 5.95 31.37 5.93 32.08 C5.91 32.98 5.89 33.88 5.88 34.81 C5.85 35.71 5.83 36.6 5.8 37.52 C5.82 40.25 5.82 40.25 8 43 C8.56 45.16 8.56 45.16 9 47.62 C9.89 52.45 10.92 57.22 12 62 C12.33 62 12.66 62 13 62 C13.99 72.39 13.99 72.39 15 83 C15.33 83 15.66 83 16 83 C16 86.96 16 90.92 16 95 C16.99 95 17.98 95 19 95 C18.98 95.6 18.95 96.21 18.93 96.83 C18.91 97.63 18.89 98.43 18.88 99.25 C18.85 100.04 18.83 100.83 18.8 101.64 C19.02 104.23 19.77 105.74 21 108 C21.37 109.99 21.71 111.99 22 114 C22.23 114.7 22.45 115.4 22.69 116.12 C23.11 118.64 22.29 119.87 21 122 C20.34 121.67 19.68 121.34 19 121 C19 121.66 19 122.32 19 123 C17.3 123.4 17.3 123.4 15.56 123.81 C14.39 124.2 13.21 124.6 12 125 C11.67 125.99 11.34 126.98 11 128 C8.75 129.1 8.75 129.1 6 130.06 C2.24 131.14 2.24 131.14 0 134 C-1.32 134 -2.64 134 -4 134 C-4 134.66 -4 135.32 -4 136 C-4.64 136.12 -5.28 136.25 -5.94 136.38 C-6.62 136.58 -7.3 136.79 -8 137 C-8.33 137.66 -8.66 138.32 -9 139 C-10.33 139.67 -11.67 140.33 -13 141 C-13.33 141.66 -13.66 142.32 -14 143 C-16.44 144.19 -16.44 144.19 -19 145 C-19.66 144.67 -20.32 144.34 -21 144 C-21 144.66 -21 145.32 -21 146 C-24.73 148.03 -26.67 149 -31 149 C-31 150.32 -31 151.64 -31 153 C-32.98 153.73 -34.98 154.39 -37 155 C-37.66 154.67 -38.32 154.34 -39 154 C-39 154.66 -39 155.32 -39 156 C-44.04 160.8 -48.82 164 -56 164 C-56.33 165.32 -56.66 166.64 -57 168 C-59.31 168.33 -61.62 168.66 -64 169 C-64 169.66 -64 170.32 -64 171 C-67 173 -67 173 -70 173 C-71.69 171.36 -73.35 169.69 -75 168 C-75.93 167.4 -76.86 166.8 -77.81 166.18 C-81.18 163.88 -83.9 161.26 -86.69 158.31 C-90.29 154.39 -90.29 154.39 -95 152 C-95.33 151.34 -95.66 150.68 -96 150 C-96.66 150 -97.32 150 -98 150 C-98 149.34 -98 148.68 -98 148 C-98.99 147.67 -99.98 147.34 -101 147 C-101.33 146.34 -101.66 145.68 -102 145 C-102.99 144.1 -104.02 143.22 -105.06 142.38 C-108.72 139.32 -112.01 135.99 -115.3 132.54 C-116.86 130.78 -116.86 130.78 -119 131 C-119 130.34 -119 129.68 -119 129 C-119.58 128.74 -120.16 128.48 -120.75 128.21 C-123.14 126.93 -124.92 125.49 -126.94 123.69 C-127.63 123.07 -128.32 122.46 -129.04 121.82 C-130.7 120.28 -132.3 118.7 -133.88 117.06 C-135.75 114.77 -135.75 114.77 -138 115 C-138 114.34 -138 113.68 -138 113 C-139.49 112.51 -139.49 112.51 -141 112 C-141.33 111.34 -141.66 110.68 -142 110 C-142.99 109.1 -144.02 108.22 -145.06 107.38 C-147.92 104.94 -150.75 102.49 -153.5 99.94 C-154.19 99.31 -154.88 98.68 -155.59 98.03 C-157 96 -157 96 -156.89 93.53 C-156 91 -156 91 -153.94 89.63 C-153.04 89.28 -152.13 88.93 -151.2 88.56 C-150.17 88.15 -149.15 87.74 -148.09 87.31 C-146.97 86.88 -145.84 86.45 -144.69 86 C-142.3 85.03 -139.91 84.06 -137.52 83.09 C-136.59 82.71 -136.59 82.71 -135.64 82.33 C-101.54 68.45 -68.96 50.39 -39 29 C-38.27 28.49 -37.55 27.97 -36.8 27.44 C-26.72 20.31 -26.72 20.31 -16.96 12.77 C-16.33 12.26 -15.7 11.75 -15.06 11.22 C-13.89 10.27 -12.73 9.31 -11.59 8.34 C-8.12 5.49 -5.48 4.35 -1 4 C-0.67 2.68 -0.34 1.36 0 0 Z M10 67 C11 70 11 70 11 70 Z " fill="#3D4957" transform="translate(983,1048)"/>
<path d="M0 0 C35.97 0 71.94 0 109 0 C108.67 1.98 108.34 3.96 108 6 C108.66 6 109.32 6 110 6 C110.33 4.68 110.66 3.36 111 2 C111.05 2.7 111.1 3.4 111.15 4.12 C111.26 5.48 111.26 5.48 111.38 6.88 C111.48 8.23 111.48 8.23 111.59 9.62 C111.8 12.18 111.8 12.18 114 14 C113.62 17.63 113.62 17.63 113 21 C113.66 21 114.32 21 115 21 C115.33 19.68 115.66 18.36 116 17 C116.05 17.7 116.1 18.4 116.15 19.12 C116.26 20.48 116.26 20.48 116.38 21.88 C116.48 23.23 116.48 23.23 116.59 24.62 C116.8 27.18 116.8 27.18 119 29 C118.62 32.63 118.62 32.63 118 36 C118.66 36 119.32 36 120 36 C120.33 34.68 120.66 33.36 121 32 C121.05 32.7 121.1 33.4 121.15 34.12 C121.26 35.48 121.26 35.48 121.38 36.88 C121.48 38.23 121.48 38.23 121.59 39.62 C121.8 42.18 121.8 42.18 124 44 C123.62 47.63 123.62 47.63 123 51 C123.66 51 124.32 51 125 51 C125.33 49.68 125.66 48.36 126 47 C126.05 47.7 126.1 48.4 126.15 49.12 C126.26 50.48 126.26 50.48 126.38 51.88 C126.48 53.23 126.48 53.23 126.59 54.62 C126.8 57.18 126.8 57.18 129 59 C128.62 62.63 128.62 62.63 128 66 C128.66 66 129.32 66 130 66 C130.33 64.68 130.66 63.36 131 62 C131.05 62.7 131.1 63.4 131.15 64.12 C131.26 65.48 131.26 65.48 131.38 66.88 C131.48 68.23 131.48 68.23 131.59 69.62 C131.8 72.18 131.8 72.18 134 74 C133.62 77.63 133.62 77.63 133 81 C133.66 81 134.32 81 135 81 C135.33 79.68 135.66 78.36 136 77 C136.13 77.98 136.27 78.95 136.4 79.96 C136.67 81.87 136.67 81.87 136.94 83.81 C137.11 85.08 137.29 86.34 137.46 87.64 C137.9 90.98 137.9 90.98 139 94 C138.67 94.66 138.34 95.32 138 96 C138.66 96 139.32 96 140 96 C140.33 94.68 140.66 93.36 141 92 C141.13 92.96 141.27 93.93 141.4 94.92 C141.58 96.19 141.76 97.45 141.94 98.75 C142.11 100 142.29 101.26 142.46 102.55 C142.9 105.83 142.9 105.83 143.63 108.27 C144 110 144 110 143 113 C131.53 112.48 120.15 111.34 108.73 110.1 C107.55 109.98 106.37 109.85 105.15 109.72 C104.11 109.6 103.07 109.49 102 109.37 C91.63 108.36 81.31 107.84 70.89 107.83 C69.69 107.83 68.49 107.83 67.25 107.82 C64.71 107.82 62.18 107.81 59.65 107.81 C55.87 107.81 52.09 107.79 48.31 107.78 C25.4 107.72 2.86 109.26 -19.82 112.41 C-24.59 113.03 -29.2 113.11 -34 113 C-34 112.34 -34 111.68 -34 111 C-34.66 110.67 -35.32 110.34 -36 110 C-35.5 109.5 -35.5 109.5 -35 109 C-34.96 107 -34.96 105 -35 103 C-34.34 103 -33.68 103 -33 103 C-32.88 101.82 -32.75 100.65 -32.62 99.44 C-32.14 95.46 -31.19 91.82 -30 88 C-29.34 88 -28.68 88 -28 88 C-27.88 86.82 -27.75 85.65 -27.62 84.44 C-27.14 80.46 -26.19 76.82 -25 73 C-24.34 73 -23.68 73 -23 73 C-22.88 71.82 -22.75 70.65 -22.62 69.44 C-22.14 65.46 -21.19 61.82 -20 58 C-19.34 58 -18.68 58 -18 58 C-17.88 56.82 -17.75 55.65 -17.62 54.44 C-17.14 50.46 -16.19 46.82 -15 43 C-14.34 43 -13.68 43 -13 43 C-12.88 41.82 -12.75 40.65 -12.62 39.44 C-12.14 35.46 -11.19 31.82 -10 28 C-9.34 28 -8.68 28 -8 28 C-7.88 26.82 -7.75 25.65 -7.62 24.44 C-7.14 20.46 -6.19 16.82 -5 13 C-4.34 13 -3.68 13 -3 13 C-2.81 11.17 -2.81 11.17 -2.62 9.31 C-2.25 5.67 -1.45 3.62 0 0 Z " fill="#3D4856" transform="translate(585,0)"/>
<path d="M0 0 C3.97 0.55 7.3 1.48 11 3 C12.66 3.37 14.32 3.71 16 4 C16 4.33 16 4.66 16 5 C20.93 6.77 25.89 7.93 31 9 C31 9.33 31 9.66 31 10 C35.93 11.77 40.89 12.93 46 14 C46 14.33 46 14.66 46 15 C50.93 16.77 55.89 17.93 61 19 C61 19.33 61 19.66 61 20 C65.62 21.62 70.25 22.85 75 24 C75 24.66 75 25.32 75 26 C75.85 25.94 76.69 25.88 77.56 25.81 C81.74 26.04 84.22 27.26 88 29 C88.66 29 89.32 29 90 29 C90 29.66 90 30.32 90 31 C90.85 30.94 91.69 30.88 92.56 30.81 C96.74 31.04 99.22 32.26 103 34 C103.66 34 104.32 34 105 34 C105 34.66 105 35.32 105 36 C105.95 35.98 106.9 35.96 107.88 35.94 C111 36 111 36 113 37 C113 72.97 113 108.94 113 146 C101.75 149.38 101.75 149.38 97 149 C97 149.66 97 150.32 97 151 C91.9 152.91 87.54 154.43 82 154 C82 154.66 82 155.32 82 156 C76.9 157.91 72.54 159.43 67 159 C67 159.66 67 160.32 67 161 C61.9 162.91 57.54 164.43 52 164 C52 164.66 52 165.32 52 166 C46.9 167.91 42.54 169.43 37 169 C37 169.66 37 170.32 37 171 C31.9 172.91 27.54 174.43 22 174 C22 174.66 22 175.32 22 176 C15.57 177.98 15.57 177.98 9 180 C9 180.33 9 180.66 9 181 C5.04 181.99 5.04 181.99 1 183 C-2.87 175.25 0.87 162.69 1.94 154.31 C4.35 135.19 5.19 116.42 5.19 97.14 C5.19 93.3 5.21 89.46 5.22 85.61 C5.28 62.7 3.8 40.16 0.59 17.47 C-0.15 11.64 -0.13 5.87 0 0 Z " fill="#3D4856" transform="translate(1167,548)"/>
<path d="M0 0 C9.35 -0.29 18.48 0.84 27.75 1.94 C47.61 4.28 67.05 5.2 87.06 5.19 C88.31 5.19 89.57 5.19 90.86 5.19 C114.51 5.16 137.71 4.27 161.16 0.97 C166.84 0.18 172.26 -0.13 178 0 C178.2 6.84 178.2 6.84 178 9 C177.34 9.66 176.68 10.32 176 11 C175.6 12.99 175.26 14.99 175 17 C174.34 17 173.68 17 173 17 C173.04 18.09 173.08 19.19 173.12 20.31 C173 24 173 24 171 27 C170.62 28.66 170.27 30.32 170 32 C169.34 32 168.68 32 168 32 C168.04 33.09 168.08 34.19 168.12 35.31 C168 39 168 39 166 42 C165.62 43.66 165.27 45.32 165 47 C164.34 47 163.68 47 163 47 C163.04 48.09 163.08 49.19 163.12 50.31 C163 54 163 54 161 57 C160.62 58.66 160.27 60.32 160 62 C159.34 62 158.68 62 158 62 C158.04 63.09 158.08 64.19 158.12 65.31 C158 69 158 69 156 72 C155.45 73.99 154.95 75.99 154.5 78 C153.68 81.65 153.09 83.86 151 87 C150.62 88.66 150.27 90.32 150 92 C149.34 92 148.68 92 148 92 C148.04 93.11 148.08 94.23 148.12 95.38 C148 99 148 99 146 101 C145.01 104.96 144.02 108.92 143 113 C107.03 113 71.06 113 34 113 C33.01 109.7 32.02 106.4 31 103 C30.44 101.76 29.89 100.53 29.31 99.25 C27.95 95.89 27.74 93.59 28 90 C27.34 89.67 26.68 89.34 26 89 C25.3 86.68 24.63 84.34 24 82 C23.5 81.51 23.5 81.51 23 81 C22.96 79 22.96 77 23 75 C22.34 74.67 21.68 74.34 21 74 C20.3 71.68 19.63 69.34 19 67 C18.5 66.51 18.5 66.51 18 66 C17.96 64 17.96 62 18 60 C17.34 59.67 16.68 59.34 16 59 C15.3 56.68 14.63 54.34 14 52 C13.67 51.67 13.34 51.34 13 51 C12.96 49 12.96 47 13 45 C12.34 44.67 11.68 44.34 11 44 C10.3 41.68 9.63 39.34 9 37 C8.67 36.67 8.34 36.34 8 36 C7.96 34 7.96 32 8 30 C7.34 29.67 6.68 29.34 6 29 C5.3 26.68 4.63 24.34 4 22 C3.67 21.67 3.34 21.34 3 21 C2.96 19 2.96 17 3 15 C2.34 14.67 1.68 14.34 1 14 C0.33 11.35 0.33 11.35 -0.19 8.06 C-0.37 6.98 -0.55 5.9 -0.73 4.79 C-1 2 -1 2 0 0 Z M176 3 C177 6 177 6 177 6 Z M171 18 C172 20 172 20 172 20 Z M166 33 C167 35 167 35 167 35 Z M161 48 C162 50 162 50 162 50 Z M156 63 C157 65 157 65 157 65 Z M151 78 C152 80 152 80 152 80 Z M146 93 C147 95 147 95 147 95 Z " fill="#3D4856" transform="translate(551,1167)"/>
<path d="M0 0 C0.28 9.2 -0.82 18.14 -1.94 27.25 C-2.22 29.54 -2.49 31.82 -2.76 34.11 C-2.93 35.52 -3.1 36.93 -3.28 38.33 C-4.62 49.55 -5.16 60.78 -5.2 72.08 C-5.21 73.28 -5.22 74.48 -5.22 75.71 C-5.24 79.56 -5.25 83.4 -5.25 87.25 C-5.25 88.56 -5.25 89.87 -5.26 91.23 C-5.26 113.11 -4.28 134.49 -1.46 156.19 C-1.37 156.9 -1.27 157.61 -1.18 158.34 C-0.92 160.34 -0.66 162.33 -0.39 164.32 C0.17 169.56 0.18 174.74 0 180 C-4.33 178.99 -8.05 178.04 -12 176 C-13.66 175.62 -15.32 175.28 -17 175 C-17 174.34 -17 173.68 -17 173 C-17.91 173.04 -18.81 173.08 -19.75 173.12 C-23 173 -24.24 172.51 -27 171 C-28.66 170.62 -30.32 170.28 -32 170 C-32 169.34 -32 168.68 -32 168 C-32.91 168.04 -33.81 168.08 -34.75 168.12 C-38 168 -39.24 167.51 -42 166 C-43.66 165.62 -45.32 165.28 -47 165 C-47 164.34 -47 163.68 -47 163 C-47.91 163.04 -48.81 163.08 -49.75 163.12 C-53 163 -54.24 162.51 -57 161 C-58.66 160.62 -60.32 160.28 -62 160 C-62 159.34 -62 158.68 -62 158 C-62.91 158.04 -63.81 158.08 -64.75 158.12 C-68 158 -69.24 157.51 -72 156 C-73.66 155.62 -75.32 155.28 -77 155 C-77 154.34 -77 153.68 -77 153 C-77.91 153.04 -78.81 153.08 -79.75 153.12 C-83 153 -84.24 152.51 -87 151 C-88.66 150.62 -90.32 150.28 -92 150 C-92 149.34 -92 148.68 -92 148 C-92.91 148.04 -93.81 148.08 -94.75 148.12 C-98 148 -98 148 -102 146 C-105.3 145.01 -108.6 144.02 -112 143 C-112 107.03 -112 71.06 -112 34 C-103 30.62 -103 30.62 -99 31 C-99 30.34 -99 29.68 -99 29 C-97.44 28.49 -95.88 27.99 -94.31 27.5 C-93.44 27.22 -92.57 26.94 -91.68 26.66 C-89.01 26 -86.74 25.88 -84 26 C-84 25.34 -84 24.68 -84 24 C-82.44 23.49 -80.88 22.99 -79.31 22.5 C-78.44 22.22 -77.57 21.94 -76.68 21.66 C-74.01 21 -71.74 20.88 -69 21 C-69 20.34 -69 19.68 -69 19 C-67.44 18.49 -65.88 17.99 -64.31 17.5 C-63.44 17.22 -62.57 16.94 -61.68 16.66 C-59.01 16 -56.74 15.88 -54 16 C-54 15.34 -54 14.68 -54 14 C-52.44 13.49 -50.88 12.99 -49.31 12.5 C-48.44 12.22 -47.57 11.94 -46.68 11.66 C-44.01 11 -41.74 10.88 -39 11 C-39 10.34 -39 9.68 -39 9 C-37.44 8.49 -35.88 7.99 -34.31 7.5 C-33.44 7.22 -32.57 6.94 -31.68 6.66 C-29.01 6 -26.74 5.88 -24 6 C-24 5.34 -24 4.68 -24 4 C-8.44 -0.59 -8.44 -0.59 0 0 Z " fill="#3D4957" transform="translate(112,551)"/>
<path d="M0 0 C7.23 -0.03 14.45 -0.04 21.68 -0.05 C24.14 -0.06 26.6 -0.07 29.06 -0.08 C32.59 -0.09 36.12 -0.09 39.65 -0.1 C40.75 -0.1 41.86 -0.11 43 -0.11 C44.02 -0.11 45.04 -0.11 46.09 -0.11 C46.99 -0.12 47.89 -0.12 48.82 -0.12 C51 0 51 0 53 1 C53 18.16 53 35.32 53 53 C44.44 53.02 35.88 53.04 27.06 53.06 C23 53.08 23 53.08 18.86 53.09 C16.73 53.09 14.6 53.1 12.47 53.1 C11.35 53.1 10.24 53.11 9.09 53.11 C8.03 53.11 6.97 53.11 5.89 53.11 C4.5 53.12 4.5 53.12 3.09 53.12 C1 53 1 53 0 52 C-0.96 46.01 -1.15 40.16 -1.13 34.1 C-1.13 33.19 -1.13 32.27 -1.14 31.33 C-1.14 29.4 -1.13 27.48 -1.13 25.56 C-1.12 22.61 -1.13 19.66 -1.14 16.71 C-1.14 14.84 -1.13 12.97 -1.13 11.1 C-1.13 10.22 -1.14 9.34 -1.14 8.42 C-1.11 2.23 -1.11 2.23 0 0 Z " fill="#3C4856" transform="translate(320,613)"/>
<path d="M0 0 C1.02 -0 2.04 -0.01 3.08 -0.01 C4.19 -0.01 5.3 -0.01 6.44 -0 C7.57 -0 8.7 -0.01 9.86 -0.01 C12.25 -0.01 14.64 -0.01 17.03 -0 C20.7 0 24.38 -0 28.05 -0.01 C30.37 -0.01 32.69 -0.01 35 -0 C36.66 -0.01 36.66 -0.01 38.36 -0.01 C39.38 -0.01 40.39 -0 41.44 0 C42.79 0 42.79 0 44.17 0 C46.22 0.13 46.22 0.13 47.22 1.13 C47.31 2.76 47.34 4.39 47.33 6.02 C47.33 7.06 47.33 8.1 47.33 9.17 C47.33 10.3 47.32 11.44 47.32 12.6 C47.32 13.75 47.32 14.91 47.31 16.1 C47.31 19.79 47.3 23.49 47.28 27.19 C47.28 29.69 47.27 32.19 47.27 34.69 C47.26 40.84 47.24 46.98 47.22 53.13 C39.83 53.15 32.45 53.17 25.06 53.18 C22.54 53.19 20.03 53.2 17.51 53.2 C13.91 53.22 10.3 53.22 6.69 53.23 C4.99 53.23 4.99 53.23 3.26 53.24 C2.22 53.24 1.18 53.24 0.11 53.24 C-1.27 53.25 -1.27 53.25 -2.68 53.25 C-4.78 53.13 -4.78 53.13 -5.78 52.13 C-5.88 50.54 -5.91 48.94 -5.91 47.35 C-5.91 46.33 -5.91 45.31 -5.92 44.27 C-5.92 43.16 -5.91 42.05 -5.91 40.91 C-5.91 39.78 -5.91 38.65 -5.92 37.49 C-5.92 35.1 -5.91 32.71 -5.91 30.32 C-5.9 26.65 -5.91 22.97 -5.92 19.3 C-5.92 16.98 -5.91 14.66 -5.91 12.35 C-5.92 10.69 -5.92 10.69 -5.92 8.99 C-5.92 7.98 -5.91 6.96 -5.91 5.91 C-5.91 5.01 -5.91 4.11 -5.91 3.18 C-5.66 -0.77 -3.43 0 0 0 Z " fill="#3C4856" transform="translate(911.779296875,612.87060546875)"/>
<path d="M0 0 C0.66 0.33 1.32 0.66 2 1 C-10.87 13.87 -23.74 26.74 -37 40 C-37 37 -37 37 -35.03 34.84 C-33.34 33.28 -31.66 31.72 -29.97 30.16 C-27.66 28.12 -27.66 28.12 -28 25 C-27.46 24.95 -26.91 24.89 -26.35 24.83 C-22.93 23.62 -20.83 21.2 -18.36 18.65 C-17.83 18.12 -17.31 17.59 -16.76 17.04 C-15.08 15.35 -13.42 13.64 -11.75 11.94 C-10.61 10.79 -9.47 9.63 -8.34 8.48 C-5.55 5.66 -2.77 2.83 0 0 Z " fill="#151B22" transform="translate(281,245)"/>
<path d="M0 0 C0.99 0.33 1.98 0.66 3 1 C-5.58 9.58 -14.16 18.16 -23 27 C-23.66 26.34 -24.32 25.68 -25 25 C-16.75 16.75 -8.5 8.5 0 0 Z " fill="#454F5D" transform="translate(279,244)"/>
<path d="M0 0 C0.99 0 1.98 0 3 0 C1.52 5.23 -1.82 8.17 -5.62 11.81 C-6.54 12.71 -6.54 12.71 -7.48 13.62 C-8.98 15.09 -10.49 16.55 -12 18 C-12.33 17.01 -12.66 16.02 -13 15 C-11.72 13.75 -11.72 13.75 -10.41 12.48 C-9.29 11.38 -8.18 10.29 -7.06 9.19 C-6.5 8.64 -5.93 8.09 -5.35 7.53 C-1.99 4.22 -1.99 4.22 0 0 Z " fill="#4E5A68" transform="translate(82,884)"/>
<path d="M0 0 C0.99 0 1.98 0 3 0 C1.52 5.23 -1.82 8.17 -5.62 11.81 C-6.54 12.71 -6.54 12.71 -7.48 13.62 C-8.98 15.09 -10.49 16.55 -12 18 C-12.33 17.01 -12.66 16.02 -13 15 C-11.72 13.75 -11.72 13.75 -10.41 12.48 C-9.29 11.38 -8.18 10.29 -7.06 9.19 C-6.5 8.64 -5.93 8.09 -5.35 7.53 C-1.99 4.22 -1.99 4.22 0 0 Z " fill="#4E5A68" transform="translate(117,844)"/>
<path d="M0 0 C0.66 0.66 1.32 1.32 2 2 C-1.63 5.63 -5.26 9.26 -9 13 C-9.66 12.34 -10.32 11.68 -11 11 C-7.37 7.37 -3.74 3.74 0 0 Z " fill="#434D5A" transform="translate(252,271)"/>
<path d="M0 0 C0.33 0 0.66 0 1 0 C1 6.27 1 12.54 1 19 C-0.32 18.34 -1.64 17.68 -3 17 C-2.01 11.39 -1.02 5.78 0 0 Z " fill="#252C35" transform="translate(280,1129)"/>
<path d="M0 0 C0.99 0.33 1.98 0.66 3 1 C0.03 3.97 -2.94 6.94 -6 10 C-6.99 9.67 -7.98 9.34 -9 9 C-6.03 6.03 -3.06 3.06 0 0 Z " fill="#3E4754" transform="translate(279,244)"/>
<path d="M0 0 C3.45 1.48 5.65 3.44 8.25 6.12 C8.96 6.85 9.66 7.57 10.39 8.32 C11.19 9.15 11.19 9.15 12 10 C11.67 10.66 11.34 11.32 11 12 C9.16 10.38 7.33 8.76 5.5 7.12 C4.98 6.66 4.45 6.2 3.91 5.73 C2.57 4.53 1.28 3.27 0 2 C0 1.34 0 0.68 0 0 Z " fill="#363D47" transform="translate(418,105)"/>
<path d="M0 0 C3.45 1.48 5.65 3.44 8.25 6.12 C8.96 6.85 9.66 7.57 10.39 8.32 C11.19 9.15 11.19 9.15 12 10 C11.67 10.66 11.34 11.32 11 12 C9.16 10.38 7.33 8.76 5.5 7.12 C4.98 6.66 4.45 6.2 3.91 5.73 C2.57 4.53 1.28 3.27 0 2 C0 1.34 0 0.68 0 0 Z " fill="#363D47" transform="translate(378,70)"/>
<path d="M0 0 C0.66 0.33 1.32 0.66 2 1 C1.34 1.66 0.68 2.32 0 3 C0 3.99 0 4.98 0 6 C-2.5 8.19 -2.5 8.19 -5 10 C-5.99 9.34 -6.98 8.68 -8 8 C-7.24 7.42 -6.47 6.84 -5.69 6.25 C-3.34 4.28 -1.71 2.52 0 0 Z " fill="#1B2028" transform="translate(840,120)"/>
<path d="M0 0 C0.66 0.33 1.32 0.66 2 1 C1.34 1.66 0.68 2.32 0 3 C0 3.99 0 4.98 0 6 C-2.5 8.19 -2.5 8.19 -5 10 C-5.99 9.34 -6.98 8.68 -8 8 C-7.24 7.42 -6.47 6.84 -5.69 6.25 C-3.34 4.28 -1.71 2.52 0 0 Z " fill="#1B2028" transform="translate(880,85)"/>
<path d="M0 0 C0.99 0 1.98 0 3 0 C1.85 2.47 0.95 4.05 -1 6 C-1.99 6 -2.98 6 -4 6 C-4.33 6.99 -4.66 7.98 -5 9 C-5.66 9 -6.32 9 -7 9 C-7 8.34 -7 7.68 -7 7 C-6.34 7 -5.68 7 -5 7 C-5 6.34 -5 5.68 -5 5 C-4.34 5 -3.68 5 -3 5 C-2.69 4.36 -2.38 3.72 -2.06 3.06 C-1 1 -1 1 0 0 Z " fill="#353C44" transform="translate(125,835)"/>
<path d="M0 0 C0.33 0 0.66 0 1 0 C1 3.3 1 6.6 1 10 C0.67 10 0.34 10 0 10 C0 6.7 0 3.4 0 0 Z " fill="#6F7C8B" transform="translate(1003,115)"/>
<path d="M0 0 C2.97 0 5.94 0 9 0 C9 0.33 9 0.66 9 1 C6.03 1 3.06 1 0 1 C0 0.67 0 0.34 0 0 Z " fill="#758291" transform="translate(116,1003)"/>
<path d="M0 0 C0.33 0 0.66 0 1 0 C0.67 2.31 0.34 4.62 0 7 C-1.04 3.87 -0.93 3.01 0 0 Z " fill="#0C1014" transform="translate(1000,1136)"/>
<path d="M0 0 C0.33 0 0.66 0 1 0 C1 1.65 1 3.3 1 5 C0.67 5 0.34 5 0 5 C0 3.35 0 1.7 0 0 Z " fill="#000002" transform="translate(985,1058)"/>
<path d="M0 0 C1.65 0 3.3 0 5 0 C5 0.33 5 0.66 5 1 C3.35 1 1.7 1 0 1 C0 0.67 0 0.34 0 0 Z " fill="#050609" transform="translate(114,1005)"/>
<path d="M0 0 C1.65 0 3.3 0 5 0 C5 0.33 5 0.66 5 1 C3.35 1 1.7 1 0 1 C0 0.67 0 0.34 0 0 Z " fill="#000002" transform="translate(217,985)"/>
<path d="M0 0 C0.33 0 0.66 0 1 0 C1 1.65 1 3.3 1 5 C0.67 5 0.34 5 0 5 C0 3.35 0 1.7 0 0 Z " fill="#000002" transform="translate(985,217)"/>
<path d="M0 0 C1 4 1 4 1 4 Z " fill="#000002" transform="translate(697,1268)"/>
<path d="M0 0 C1 4 1 4 1 4 Z " fill="#000002" transform="translate(727,1178)"/>
<path d="M0 0 C1 4 1 4 1 4 Z " fill="#000002" transform="translate(990,1084)"/>
<path d="M0 0 C4 1 4 1 4 1 Z " fill="#000002" transform="translate(140,1000)"/>
<path d="M0 0 C4 1 4 1 4 1 Z " fill="#000002" transform="translate(192,990)"/>
<path d="M0 0 C4 1 4 1 4 1 Z " fill="#000002" transform="translate(1059,985)"/>
<path d="M0 0 C1 4 1 4 1 4 Z " fill="#000002" transform="translate(990,192)"/>
<path d="M0 0 C1 4 1 4 1 4 Z " fill="#000002" transform="translate(1000,140)"/>
<path d="M0 0 C1 4 1 4 1 4 Z " fill="#000002" transform="translate(727,98)"/>
<path d="M0 0 C1 4 1 4 1 4 Z " fill="#000002" transform="translate(722,83)"/>
<path d="M0 0 C1 4 1 4 1 4 Z " fill="#000002" transform="translate(717,68)"/>
<path d="M0 0 C1 4 1 4 1 4 Z " fill="#000002" transform="translate(712,53)"/>
<path d="M0 0 C1 4 1 4 1 4 Z " fill="#000002" transform="translate(707,38)"/>
<path d="M0 0 C1 4 1 4 1 4 Z " fill="#000002" transform="translate(702,23)"/>
<path d="M0 0 C1 4 1 4 1 4 Z " fill="#000002" transform="translate(697,8)"/>
<path d="" fill="#000002" transform="translate(0,0)"/>
<path d="" fill="#000002" transform="translate(0,0)"/>
<path d="" fill="#000002" transform="translate(0,0)"/>
<path d="" fill="#000002" transform="translate(0,0)"/>
<path d="" fill="#000002" transform="translate(0,0)"/>
<path d="" fill="#000002" transform="translate(0,0)"/>
<path d="" fill="#000002" transform="translate(0,0)"/>
<path d="" fill="#000002" transform="translate(0,0)"/>
<path d="" fill="#000002" transform="translate(0,0)"/>
<path d="" fill="#000002" transform="translate(0,0)"/>
<path d="M0 0 C3 1 3 1 3 1 Z " fill="#000002" transform="translate(736,1165)"/>
<path d="" fill="#000002" transform="translate(0,0)"/>
<path d="" fill="#000002" transform="translate(0,0)"/>
<path d="M0 0 C2 1 2 1 2 1 Z " fill="#000002" transform="translate(361,1220)"/>
<path d="M0 0 C2 1 2 1 2 1 Z " fill="#000002" transform="translate(931,1212)"/>
<path d="M0 0 C2 1 2 1 2 1 Z " fill="#000002" transform="translate(956,1197)"/>
<path d="M0 0 C2 1 2 1 2 1 Z " fill="#000002" transform="translate(322,1197)"/>
<path d="M0 0 C2 1 2 1 2 1 Z " fill="#000002" transform="translate(305,1187)"/>
<path d="M0 0 C2 1 2 1 2 1 Z " fill="#758291" transform="translate(975,1185)"/>
<path d="" fill="#000002" transform="translate(0,0)"/>
<path d="M0 0 C2 1 2 1 2 1 Z " fill="#000002" transform="translate(280,1172)"/>
<path d="M0 0 C2 1 2 1 2 1 Z " fill="#000002" transform="translate(542,1165)"/>
<path d="M0 0 C2 1 2 1 2 1 Z " fill="#000002" transform="translate(761,1160)"/>
<path d="M0 0 C2 1 2 1 2 1 Z " fill="#000002" transform="translate(518,1160)"/>
<path d="M0 0 C2 1 2 1 2 1 Z " fill="#000002" transform="translate(481,1150)"/>
<path d="M0 0 C2 1 2 1 2 1 Z " fill="#000002" transform="translate(807,1147)"/>
<path d="" fill="#000002" transform="translate(0,0)"/>
<path d="M0 0 C2 1 2 1 2 1 Z " fill="#000002" transform="translate(1085,990)"/>
<path d="" fill="#000002" transform="translate(0,0)"/>
<path d="" fill="#000002" transform="translate(0,0)"/>
<path d="" fill="#000002" transform="translate(0,0)"/>
<path d="" fill="#000002" transform="translate(0,0)"/>
<path d="" fill="#000002" transform="translate(0,0)"/>
<path d="" fill="#000002" transform="translate(0,0)"/>
<path d="M0 0 C2 1 2 1 2 1 Z " fill="#000002" transform="translate(1171,730)"/>
<path d="M0 0 C2 1 2 1 2 1 Z " fill="#000002" transform="translate(1180,727)"/>
<path d="M0 0 C2 1 2 1 2 1 Z " fill="#000002" transform="translate(98,727)"/>
<path d="M0 0 C2 1 2 1 2 1 Z " fill="#000002" transform="translate(1186,725)"/>
<path d="M0 0 C2 1 2 1 2 1 Z " fill="#000002" transform="translate(1195,722)"/>
<path d="M0 0 C2 1 2 1 2 1 Z " fill="#000002" transform="translate(83,722)"/>
<path d="M0 0 C2 1 2 1 2 1 Z " fill="#000002" transform="translate(1201,720)"/>
<path d="M0 0 C2 1 2 1 2 1 Z " fill="#000002" transform="translate(1210,717)"/>
<path d="M0 0 C2 1 2 1 2 1 Z " fill="#000002" transform="translate(68,717)"/>
<path d="M0 0 C2 1 2 1 2 1 Z " fill="#000002" transform="translate(1216,715)"/>
<path d="M0 0 C2 1 2 1 2 1 Z " fill="#000002" transform="translate(1225,712)"/>
<path d="M0 0 C2 1 2 1 2 1 Z " fill="#000002" transform="translate(53,712)"/>
<path d="M0 0 C2 1 2 1 2 1 Z " fill="#000002" transform="translate(1231,710)"/>
<path d="M0 0 C2 1 2 1 2 1 Z " fill="#000002" transform="translate(1240,707)"/>
<path d="M0 0 C2 1 2 1 2 1 Z " fill="#000002" transform="translate(38,707)"/>
<path d="M0 0 C2 1 2 1 2 1 Z " fill="#000002" transform="translate(1246,705)"/>
<path d="M0 0 C2 1 2 1 2 1 Z " fill="#000002" transform="translate(1255,702)"/>
<path d="M0 0 C2 1 2 1 2 1 Z " fill="#000002" transform="translate(23,702)"/>
<path d="M0 0 C2 1 2 1 2 1 Z " fill="#000002" transform="translate(1261,700)"/>
<path d="M0 0 C2 1 2 1 2 1 Z " fill="#000002" transform="translate(1270,697)"/>
<path d="M0 0 C2 1 2 1 2 1 Z " fill="#000002" transform="translate(8,697)"/>
<path d="M0 0 C2 1 2 1 2 1 Z " fill="#000002" transform="translate(1276,695)"/>
<path d="M0 0 C2 1 2 1 2 1 Z " fill="#000002" transform="translate(2,695)"/>
<path d="" fill="#000002" transform="translate(0,0)"/>
<path d="" fill="#000002" transform="translate(0,0)"/>
<path d="" fill="#000002" transform="translate(0,0)"/>
<path d="" fill="#000002" transform="translate(0,0)"/>
<path d="" fill="#000002" transform="translate(0,0)"/>
<path d="" fill="#000002" transform="translate(0,0)"/>
<path d="" fill="#000002" transform="translate(0,0)"/>
<path d="" fill="#FBFDFD" transform="translate(0,0)"/>
<path d="" fill="#FBFDFD" transform="translate(0,0)"/>
<path d="" fill="#FBFDFD" transform="translate(0,0)"/>
<path d="" fill="#000002" transform="translate(0,0)"/>
<path d="" fill="#000002" transform="translate(0,0)"/>
<path d="" fill="#000002" transform="translate(0,0)"/>
<path d="" fill="#000002" transform="translate(0,0)"/>
<path d="" fill="#FBFDFD" transform="translate(0,0)"/>
<path d="" fill="#000002" transform="translate(0,0)"/>
<path d="" fill="#000002" transform="translate(0,0)"/>
<path d="" fill="#000002" transform="translate(0,0)"/>
<path d="" fill="#000002" transform="translate(0,0)"/>
<path d="" fill="#FBFDFD" transform="translate(0,0)"/>
<path d="" fill="#000002" transform="translate(0,0)"/>
<path d="" fill="#000002" transform="translate(0,0)"/>
<path d="" fill="#FBFDFD" transform="translate(0,0)"/>
<path d="" fill="#758291" transform="translate(0,0)"/>
<path d="" fill="#FBFDFD" transform="translate(0,0)"/>
<path d="" fill="#000002" transform="translate(0,0)"/>
<path d="" fill="#000002" transform="translate(0,0)"/>
<path d="" fill="#FBFDFD" transform="translate(0,0)"/>
<path d="" fill="#000002" transform="translate(0,0)"/>
<path d="" fill="#000002" transform="translate(0,0)"/>
<path d="" fill="#758291" transform="translate(0,0)"/>
<path d="" fill="#000002" transform="translate(0,0)"/>
<path d="" fill="#FBFDFD" transform="translate(0,0)"/>
<path d="" fill="#FBFDFD" transform="translate(0,0)"/>
<path d="" fill="#758291" transform="translate(0,0)"/>
<path d="" fill="#000002" transform="translate(0,0)"/>
<path d="" fill="#FBFDFD" transform="translate(0,0)"/>
<path d="" fill="#000002" transform="translate(0,0)"/>
<path d="" fill="#000002" transform="translate(0,0)"/>
<path d="" fill="#000002" transform="translate(0,0)"/>
<path d="" fill="#758291" transform="translate(0,0)"/>
<path d="" fill="#000002" transform="translate(0,0)"/>
<path d="" fill="#000002" transform="translate(0,0)"/>
<path d="" fill="#000002" transform="translate(0,0)"/>
<path d="" fill="#000002" transform="translate(0,0)"/>
<path d="" fill="#000002" transform="translate(0,0)"/>
<path d="" fill="#000002" transform="translate(0,0)"/>
<path d="" fill="#000002" transform="translate(0,0)"/>
<path d="" fill="#758291" transform="translate(0,0)"/>
<path d="" fill="#000002" transform="translate(0,0)"/>
<path d="" fill="#000002" transform="translate(0,0)"/>
<path d="" fill="#000002" transform="translate(0,0)"/>
<path d="" fill="#000002" transform="translate(0,0)"/>
<path d="" fill="#000002" transform="translate(0,0)"/>
<path d="" fill="#000002" transform="translate(0,0)"/>
<path d="" fill="#000002" transform="translate(0,0)"/>
<path d="" fill="#758291" transform="translate(0,0)"/>
<path d="" fill="#000002" transform="translate(0,0)"/>
<path d="" fill="#000002" transform="translate(0,0)"/>
<path d="" fill="#FBFDFD" transform="translate(0,0)"/>
<path d="" fill="#000002" transform="translate(0,0)"/>
<path d="" fill="#000002" transform="translate(0,0)"/>
<path d="" fill="#FBFDFD" transform="translate(0,0)"/>
<path d="" fill="#000002" transform="translate(0,0)"/>
<path d="" fill="#000002" transform="translate(0,0)"/>
<path d="" fill="#000002" transform="translate(0,0)"/>
<path d="" fill="#000002" transform="translate(0,0)"/>
<path d="" fill="#758291" transform="translate(0,0)"/>
<path d="" fill="#758291" transform="translate(0,0)"/>
<path d="" fill="#000002" transform="translate(0,0)"/>
<path d="" fill="#000002" transform="translate(0,0)"/>
<path d="" fill="#758291" transform="translate(0,0)"/>
<path d="" fill="#000002" transform="translate(0,0)"/>
<path d="" fill="#000002" transform="translate(0,0)"/>
<path d="" fill="#758291" transform="translate(0,0)"/>
<path d="" fill="#FBFDFD" transform="translate(0,0)"/>
<path d="" fill="#000002" transform="translate(0,0)"/>
<path d="" fill="#758291" transform="translate(0,0)"/>
<path d="" fill="#FBFDFD" transform="translate(0,0)"/>
<path d="" fill="#000002" transform="translate(0,0)"/>
<path d="" fill="#FBFDFD" transform="translate(0,0)"/>
<path d="" fill="#000002" transform="translate(0,0)"/>
<path d="" fill="#FBFDFD" transform="translate(0,0)"/>
<path d="" fill="#000002" transform="translate(0,0)"/>
<path d="" fill="#000002" transform="translate(0,0)"/>
<path d="" fill="#000002" transform="translate(0,0)"/>
<path d="" fill="#FBFDFD" transform="translate(0,0)"/>
<path d="" fill="#000002" transform="translate(0,0)"/>
<path d="" fill="#FBFDFD" transform="translate(0,0)"/>
<path d="" fill="#000002" transform="translate(0,0)"/>
<path d="" fill="#000002" transform="translate(0,0)"/>
<path d="" fill="#000002" transform="translate(0,0)"/>
<path d="" fill="#000002" transform="translate(0,0)"/>
<path d="" fill="#000002" transform="translate(0,0)"/>
<path d="" fill="#000002" transform="translate(0,0)"/>
<path d="" fill="#000002" transform="translate(0,0)"/>
<path d="" fill="#000002" transform="translate(0,0)"/>
<path d="" fill="#000002" transform="translate(0,0)"/>
<path d="" fill="#FBFDFD" transform="translate(0,0)"/>
<path d="" fill="#000002" transform="translate(0,0)"/>
<path d="" fill="#FBFDFD" transform="translate(0,0)"/>
<path d="" fill="#000002" transform="translate(0,0)"/>
<path d="" fill="#FBFDFD" transform="translate(0,0)"/>
<path d="" fill="#000002" transform="translate(0,0)"/>
<path d="" fill="#FBFDFD" transform="translate(0,0)"/>
<path d="" fill="#000002" transform="translate(0,0)"/>
<path d="" fill="#FBFDFD" transform="translate(0,0)"/>
<path d="" fill="#000002" transform="translate(0,0)"/>
<path d="" fill="#FBFDFD" transform="translate(0,0)"/>
<path d="" fill="#000002" transform="translate(0,0)"/>
<path d="" fill="#000002" transform="translate(0,0)"/>
<path d="" fill="#000002" transform="translate(0,0)"/>
<path d="" fill="#FBFDFD" transform="translate(0,0)"/>
<path d="" fill="#000002" transform="translate(0,0)"/>
<path d="" fill="#000002" transform="translate(0,0)"/>
<path d="" fill="#000002" transform="translate(0,0)"/>
<path d="" fill="#000002" transform="translate(0,0)"/>
<path d="" fill="#000002" transform="translate(0,0)"/>
<path d="" fill="#000002" transform="translate(0,0)"/>
<path d="" fill="#000002" transform="translate(0,0)"/>
<path d="" fill="#FBFDFD" transform="translate(0,0)"/>
<path d="" fill="#000002" transform="translate(0,0)"/>
<path d="" fill="#000002" transform="translate(0,0)"/>
<path d="" fill="#000002" transform="translate(0,0)"/>
<path d="" fill="#000002" transform="translate(0,0)"/>
<path d="" fill="#000002" transform="translate(0,0)"/>
<path d="" fill="#000002" transform="translate(0,0)"/>
<path d="" fill="#000002" transform="translate(0,0)"/>
<path d="" fill="#FBFDFD" transform="translate(0,0)"/>
<path d="" fill="#000002" transform="translate(0,0)"/>
<path d="" fill="#000002" transform="translate(0,0)"/>
<path d="" fill="#000002" transform="translate(0,0)"/>
<path d="" fill="#000002" transform="translate(0,0)"/>
<path d="" fill="#000002" transform="translate(0,0)"/>
<path d="" fill="#000002" transform="translate(0,0)"/>
<path d="" fill="#000002" transform="translate(0,0)"/>
<path d="" fill="#FBFDFD" transform="translate(0,0)"/>
<path d="" fill="#FBFDFD" transform="translate(0,0)"/>
<path d="" fill="#000002" transform="translate(0,0)"/>
<path d="" fill="#000002" transform="translate(0,0)"/>
</svg>
