<?xml version="1.0" standalone="no"?>
<!DOCTYPE svg PUBLIC "-//W3C//DTD SVG 20010904//EN"
 "http://www.w3.org/TR/2001/REC-SVG-20010904/DTD/svg10.dtd">
<svg version="1.0" xmlns="http://www.w3.org/2000/svg"
 width="512.000000pt" height="512.000000pt" viewBox="0 0 512.000000 512.000000"
 preserveAspectRatio="xMidYMid meet">

<g transform="translate(0.000000,512.000000) scale(0.100000,-0.100000)"
fill="#000000" stroke="none">
<path d="M2832 4943 c-11 -10 -435 -614 -943 -1343 -650 -934 -924 -1334 -927
-1357 -3 -24 2 -38 22 -57 l25 -26 651 0 c612 0 650 -1 650 -17 0 -10 -34
-447 -76 -971 -71 -889 -75 -954 -60 -977 18 -28 54 -40 90 -31 33 8 1888
2665 1894 2713 3 24 -2 38 -22 57 l-25 26 -711 0 -711 0 -24 -25 c-33 -32 -33
-78 0 -110 l24 -25 616 0 c339 0 615 -4 613 -8 -1 -5 -354 -512 -783 -1127
-500 -716 -781 -1111 -783 -1099 -1 10 27 387 63 836 36 450 65 829 65 843 0
14 -11 37 -25 50 l-24 25 -616 0 c-339 0 -615 4 -613 8 2 5 354 512 783 1127
499 716 781 1111 783 1099 1 -10 -20 -302 -48 -649 -63 -784 -61 -742 -31
-766 30 -25 85 -25 110 0 11 11 22 35 25 53 6 34 136 1669 136 1701 0 10 -11
29 -25 42 -29 30 -74 33 -103 8z"/>
</g>
</svg>
