<?xml version="1.0" encoding="UTF-8"?>
<!-- Generator: visioncortex VTracer 0.6.3 -->
<svg version="1.1" xmlns="http://www.w3.org/2000/svg" width="1280" height="1280">
<path d="M0 0 C0.8 0.01 1.6 0.01 2.42 0.02 C3.25 0.04 4.07 0.05 4.92 0.07 C5.76 0.08 6.6 0.09 7.47 0.1 C9.54 0.12 11.6 0.16 13.67 0.2 C13.67 0.86 13.67 1.52 13.67 2.2 C14.51 2.29 14.51 2.29 15.36 2.38 C20.31 4.12 23.27 8.57 25.7 13.04 C27.35 16.71 28.52 20.53 29.74 24.36 C30.67 27.33 30.67 27.33 32.17 30.63 C33.55 33.91 34.59 37.11 35.61 40.51 C37.06 45.35 38.73 49.99 40.67 54.66 C42.2 58.53 43.45 62.5 44.74 66.46 C45.68 69.35 45.68 69.35 47.17 72.63 C48.55 75.91 49.59 79.11 50.61 82.51 C52.06 87.35 53.73 91.99 55.67 96.66 C57.2 100.53 58.45 104.5 59.74 108.46 C60.68 111.35 60.68 111.35 62.17 114.63 C63.55 117.91 64.59 121.11 65.61 124.51 C67.06 129.35 68.73 133.99 70.67 138.66 C72.2 142.53 73.45 146.5 74.74 150.46 C75.68 153.35 75.68 153.35 77.17 156.63 C78.55 159.91 79.59 163.11 80.61 166.51 C82.06 171.35 83.73 175.99 85.67 180.66 C87.2 184.53 88.45 188.5 89.74 192.46 C90.68 195.35 90.68 195.35 92.17 198.63 C93.55 201.91 94.59 205.11 95.61 208.51 C97.06 213.35 98.73 217.99 100.67 222.66 C102.2 226.53 103.45 230.5 104.74 234.46 C105.68 237.35 105.68 237.35 107.17 240.63 C108.55 243.91 109.59 247.11 110.61 250.51 C112.06 255.35 113.73 259.99 115.67 264.66 C117.2 268.53 118.45 272.5 119.74 276.46 C120.68 279.35 120.68 279.35 122.17 282.63 C123.55 285.91 124.59 289.11 125.61 292.51 C129.13 304.69 129.13 304.69 136.79 314.47 C138.85 316.36 140.7 318.36 142.55 320.45 C143.41 321.41 143.41 321.41 144.29 322.4 C145.67 324.2 145.67 324.2 146.67 327.2 C147.33 327.2 147.99 327.2 148.67 327.2 C150.29 328.84 150.29 328.84 152.11 331.01 C154.65 334.02 154.65 334.02 157.39 336.83 C158.67 338.2 158.67 338.2 158.67 340.2 C159.33 340.2 159.99 340.2 160.67 340.2 C162.18 341.66 162.18 341.66 163.8 343.57 C164.34 344.2 164.87 344.82 165.43 345.47 C166.67 347.2 166.67 347.2 166.67 349.2 C167.33 349.2 167.99 349.2 168.67 349.2 C170.29 350.84 170.29 350.84 172.11 353.01 C174.65 356.02 174.65 356.02 177.39 358.83 C178.67 360.2 178.67 360.2 178.67 362.2 C179.33 362.2 179.99 362.2 180.67 362.2 C182.08 363.59 182.08 363.59 183.73 365.57 C187.36 369.85 191.13 373.98 194.95 378.09 C196.67 380.2 196.67 380.2 196.67 382.2 C197.33 382.2 197.99 382.2 198.67 382.2 C200.29 383.84 200.29 383.84 202.11 386.01 C204.65 389.02 204.65 389.02 207.39 391.83 C208.67 393.2 208.67 393.2 208.67 395.2 C209.33 395.2 209.99 395.2 210.67 395.2 C212.18 396.66 212.18 396.66 213.8 398.57 C214.34 399.2 214.87 399.82 215.43 400.47 C216.67 402.2 216.67 402.2 216.67 404.2 C217.33 404.2 217.99 404.2 218.67 404.2 C220.29 405.84 220.29 405.84 222.11 408.01 C224.65 411.02 224.65 411.02 227.39 413.83 C228.67 415.2 228.67 415.2 228.67 417.2 C229.33 417.2 229.99 417.2 230.67 417.2 C232.08 418.59 232.08 418.59 233.73 420.57 C237.36 424.85 241.13 428.98 244.95 433.09 C246.67 435.2 246.67 435.2 246.67 437.2 C247.33 437.2 247.99 437.2 248.67 437.2 C250.29 438.84 250.29 438.84 252.11 441.01 C254.65 444.02 254.65 444.02 257.39 446.83 C258.67 448.2 258.67 448.2 258.67 450.2 C259.33 450.2 259.99 450.2 260.67 450.2 C262.18 451.66 262.18 451.66 263.8 453.57 C264.34 454.2 264.87 454.82 265.43 455.47 C266.67 457.2 266.67 457.2 266.67 459.2 C267.33 459.2 267.99 459.2 268.67 459.2 C270.29 460.84 270.29 460.84 272.11 463.01 C274.65 466.02 274.65 466.02 277.39 468.83 C278.67 470.2 278.67 470.2 278.67 472.2 C279.33 472.2 279.99 472.2 280.67 472.2 C282.08 473.59 282.08 473.59 283.73 475.57 C287.36 479.85 291.13 483.98 294.95 488.09 C296.67 490.2 296.67 490.2 296.67 492.2 C297.33 492.2 297.99 492.2 298.67 492.2 C300.29 493.84 300.29 493.84 302.11 496.01 C304.65 499.02 304.65 499.02 307.39 501.83 C308.67 503.2 308.67 503.2 308.67 505.2 C309.33 505.2 309.99 505.2 310.67 505.2 C312.18 506.66 312.18 506.66 313.8 508.57 C314.34 509.2 314.87 509.82 315.43 510.47 C316.67 512.2 316.67 512.2 316.67 514.2 C317.33 514.2 317.99 514.2 318.67 514.2 C320.29 515.84 320.29 515.84 322.11 518.01 C324.65 521.02 324.65 521.02 327.39 523.83 C328.67 525.2 328.67 525.2 328.67 527.2 C329.33 527.2 329.99 527.2 330.67 527.2 C332.26 528.77 332.26 528.77 334.05 530.88 C334.66 531.61 335.28 532.34 335.92 533.09 C336.5 533.78 337.08 534.48 337.67 535.2 C338.48 536.14 339.28 537.09 340.11 538.07 C341.67 540.2 341.67 540.2 341.67 542.2 C342.33 542.2 342.99 542.2 343.67 542.2 C345.7 545.56 345.93 548.16 345.96 552.06 C345.98 553.83 345.98 553.83 346 555.64 C346 557.55 346 557.55 346.01 559.5 C346.01 560.81 346.02 562.12 346.03 563.48 C346.04 566.25 346.04 569.03 346.04 571.8 C346.04 575.35 346.07 578.89 346.1 582.44 C346.13 585.84 346.13 589.23 346.13 592.62 C346.15 593.89 346.16 595.16 346.18 596.47 C346.13 604.52 345.4 608.12 340 614.02 C335.06 618.31 330.82 619.91 324.23 620.51 C318.7 620.02 314.28 618.27 309.67 615.2 C309.67 614.54 309.67 613.88 309.67 613.2 C309.01 613.2 308.35 613.2 307.67 613.2 C302.67 605.2 302.67 605.2 302.67 578.2 C246.9 578.2 191.13 578.2 133.67 578.2 C134 595.69 134.33 613.18 134.67 631.2 C135.66 631.69 135.66 631.69 136.67 632.2 C136.67 632.86 136.67 633.52 136.67 634.2 C137.23 634.44 137.79 634.69 138.36 634.95 C141.1 636.42 143.35 638.13 145.67 640.2 C145.67 640.86 145.67 641.52 145.67 642.2 C146.25 642.46 146.83 642.73 147.42 643.01 C149.73 644.22 151.69 645.5 153.67 647.2 C153.67 647.86 153.67 648.52 153.67 649.2 C154.66 649.53 155.65 649.86 156.67 650.2 C156.67 650.86 156.67 651.52 156.67 652.2 C157.22 652.42 157.76 652.65 158.32 652.88 C161.41 654.61 163.72 656.84 166.3 659.26 C169.71 662.61 169.71 662.61 173.67 665.2 C173.67 665.86 173.67 666.52 173.67 667.2 C174.33 667.2 174.99 667.2 175.67 667.2 C175.67 667.86 175.67 668.52 175.67 669.2 C176.66 669.53 177.65 669.86 178.67 670.2 C178.67 670.86 178.67 671.52 178.67 672.2 C179.25 672.46 179.83 672.73 180.42 673.01 C182.73 674.22 184.69 675.5 186.67 677.2 C186.67 677.86 186.67 678.52 186.67 679.2 C187.23 679.44 187.79 679.69 188.36 679.95 C191.1 681.42 193.35 683.13 195.67 685.2 C195.67 685.86 195.67 686.52 195.67 687.2 C196.25 687.46 196.83 687.73 197.42 688.01 C199.73 689.22 201.69 690.5 203.67 692.2 C203.67 692.86 203.67 693.52 203.67 694.2 C204.66 694.53 205.65 694.86 206.67 695.2 C206.67 695.86 206.67 696.52 206.67 697.2 C207.27 697.47 207.86 697.74 208.47 698.02 C210.61 699.16 212.09 700.32 213.84 701.98 C214.4 702.51 214.97 703.04 215.55 703.59 C216.12 704.14 216.7 704.69 217.3 705.26 C221.17 709.16 221.17 709.16 225.67 712.2 C225.67 712.86 225.67 713.52 225.67 714.2 C226.66 714.53 227.65 714.86 228.67 715.2 C228.67 715.86 228.67 716.52 228.67 717.2 C229.25 717.46 229.83 717.73 230.42 718.01 C232.73 719.22 234.69 720.5 236.67 722.2 C236.67 722.86 236.67 723.52 236.67 724.2 C237.22 724.42 237.76 724.65 238.32 724.88 C241.41 726.61 243.72 728.84 246.3 731.26 C249.71 734.61 249.71 734.61 253.67 737.2 C253.67 737.86 253.67 738.52 253.67 739.2 C254.66 739.53 255.65 739.86 256.67 740.2 C256.67 740.86 256.67 741.52 256.67 742.2 C257.22 742.42 257.76 742.65 258.32 742.88 C261.41 744.61 263.72 746.84 266.3 749.26 C269.71 752.61 269.71 752.61 273.67 755.2 C273.67 755.86 273.67 756.52 273.67 757.2 C274.33 757.2 274.99 757.2 275.67 757.2 C275.67 757.86 275.67 758.52 275.67 759.2 C276.66 759.53 277.65 759.86 278.67 760.2 C278.67 760.86 278.67 761.52 278.67 762.2 C279.25 762.46 279.83 762.73 280.42 763.01 C282.73 764.22 284.69 765.5 286.67 767.2 C286.67 767.86 286.67 768.52 286.67 769.2 C287.22 769.42 287.76 769.65 288.32 769.88 C291.41 771.61 293.72 773.84 296.3 776.26 C299.71 779.61 299.71 779.61 303.67 782.2 C303.67 782.86 303.67 783.52 303.67 784.2 C304.66 784.53 305.65 784.86 306.67 785.2 C306.67 785.86 306.67 786.52 306.67 787.2 C307.22 787.42 307.76 787.65 308.32 787.88 C311.41 789.61 313.72 791.84 316.3 794.26 C319.71 797.61 319.71 797.61 323.67 800.2 C323.67 800.86 323.67 801.52 323.67 802.2 C324.33 802.2 324.99 802.2 325.67 802.2 C325.67 802.86 325.67 803.52 325.67 804.2 C326.66 804.53 327.65 804.86 328.67 805.2 C328.67 805.86 328.67 806.52 328.67 807.2 C329.25 807.46 329.83 807.73 330.42 808.01 C332.73 809.22 334.69 810.5 336.67 812.2 C336.67 812.86 336.67 813.52 336.67 814.2 C337.28 814.46 337.88 814.72 338.5 814.99 C342.35 817.12 344.09 820.16 345.67 824.2 C346.33 828.84 346.26 833.42 346.16 838.1 C346.15 839.44 346.14 840.77 346.14 842.1 C346.12 845.59 346.07 849.07 346.02 852.56 C345.96 856.12 345.94 859.69 345.92 863.26 C345.86 870.24 345.78 877.22 345.67 884.2 C345.01 884.2 344.35 884.2 343.67 884.2 C343.61 884.75 343.55 885.31 343.48 885.88 C341.75 890.83 337.22 893.92 332.67 896.2 C326.22 898.06 319.91 897.58 313.67 895.2 C311.39 893.68 309.65 892.13 307.67 890.2 C307.67 889.54 307.67 888.88 307.67 888.2 C307.01 888.2 306.35 888.2 305.67 888.2 C302.67 883.2 302.67 883.2 301.67 856.2 C218.51 855.7 218.51 855.7 133.67 855.2 C134 980.93 134.33 1106.66 134.67 1236.2 C199.47 1236.29 199.47 1236.29 264.28 1236.31 C276.81 1236.35 276.81 1236.35 282.67 1236.37 C286.77 1236.39 290.87 1236.39 294.97 1236.38 C300.2 1236.36 305.43 1236.38 310.66 1236.41 C312.57 1236.42 314.49 1236.42 316.41 1236.4 C333.76 1236.29 333.76 1236.29 339.3 1241.62 C339.75 1242.14 340.21 1242.66 340.67 1243.2 C341.2 1243.72 341.74 1244.24 342.29 1244.77 C344.49 1247.04 345.56 1249.16 345.9 1252.3 C345.89 1253.03 345.88 1253.77 345.87 1254.52 C345.86 1255.32 345.85 1256.12 345.85 1256.95 C345.83 1257.77 345.81 1258.6 345.8 1259.45 C345.78 1260.71 345.78 1260.71 345.77 1261.99 C345.75 1264.06 345.71 1266.13 345.67 1268.2 C345.01 1268.2 344.35 1268.2 343.67 1268.2 C343.61 1268.75 343.55 1269.31 343.48 1269.88 C342.31 1273.22 340.33 1274.91 337.67 1277.2 C335.36 1278.01 335.36 1278.01 333.67 1278.2 C333.67 1278.86 333.67 1279.52 333.67 1280.2 C-80.81 1280.2 -495.29 1280.2 -922.33 1280.2 C-922.33 1279.54 -922.33 1278.88 -922.33 1278.2 C-922.88 1278.13 -923.44 1278.07 -924.02 1278.01 C-927.36 1276.83 -929.04 1274.85 -931.33 1272.2 C-932.14 1269.88 -932.14 1269.88 -932.33 1268.2 C-932.99 1268.2 -933.65 1268.2 -934.33 1268.2 C-934.44 1265.32 -934.52 1262.45 -934.58 1259.57 C-934.61 1258.76 -934.65 1257.95 -934.68 1257.12 C-934.77 1251.61 -934 1248.56 -930.33 1244.2 C-926.35 1240.19 -922.44 1236.96 -916.68 1236.92 C-915.72 1236.91 -914.77 1236.89 -913.78 1236.88 C-912.74 1236.88 -911.69 1236.88 -910.61 1236.88 C-909.51 1236.87 -908.41 1236.86 -907.27 1236.85 C-903.62 1236.82 -899.97 1236.8 -896.32 1236.78 C-893.79 1236.76 -891.26 1236.74 -888.73 1236.72 C-882.75 1236.68 -876.77 1236.64 -870.78 1236.61 C-863.97 1236.57 -857.16 1236.52 -850.35 1236.47 C-836.35 1236.36 -822.34 1236.28 -808.33 1236.2 C-808.32 1235.29 -808.32 1235.29 -808.31 1234.36 C-808.25 1228.01 -808.16 1221.67 -808.07 1215.33 C-808.03 1212.96 -808 1210.6 -807.98 1208.24 C-807.95 1204.83 -807.9 1201.42 -807.84 1198.01 C-807.83 1196.96 -807.83 1195.92 -807.82 1194.84 C-807.57 1182.06 -802.74 1172.02 -794.27 1162.45 C-787.75 1156.38 -779.42 1152.3 -770.58 1151.61 C-769.6 1151.53 -768.61 1151.45 -767.6 1151.37 C-766.85 1151.31 -766.1 1151.25 -765.33 1151.2 C-765.43 1119.29 -765.54 1087.38 -765.66 1055.47 C-765.67 1051.71 -765.69 1047.94 -765.7 1044.18 C-765.7 1043.43 -765.71 1042.68 -765.71 1041.9 C-765.75 1029.76 -765.79 1017.62 -765.83 1005.47 C-765.87 993.01 -765.92 980.56 -765.97 968.1 C-765.99 960.41 -766.02 952.72 -766.04 945.03 C-766.06 939.14 -766.08 933.25 -766.11 927.35 C-766.12 924.93 -766.13 922.51 -766.13 920.09 C-766.14 916.8 -766.15 913.5 -766.17 910.21 C-766.17 909.24 -766.17 908.28 -766.17 907.28 C-766.18 906.4 -766.18 905.52 -766.19 904.61 C-766.19 903.85 -766.19 903.09 -766.2 902.3 C-766.33 900.16 -766.74 898.26 -767.33 896.2 C-767.99 896.2 -768.65 896.2 -769.33 896.2 C-770.51 894.58 -770.51 894.58 -771.83 892.31 C-772.32 891.48 -772.81 890.65 -773.32 889.79 C-773.84 888.89 -774.36 888 -774.89 887.07 C-775.97 885.24 -777.05 883.4 -778.13 881.57 C-778.67 880.66 -779.2 879.75 -779.76 878.81 C-782.63 874.03 -785.7 869.39 -788.78 864.75 C-790.33 862.2 -790.33 862.2 -790.33 860.2 C-790.99 860.2 -791.65 860.2 -792.33 860.2 C-792.68 859.52 -793.03 858.84 -793.39 858.14 C-796.55 852.18 -799.96 846.69 -804.01 841.29 C-805.33 839.2 -805.33 839.2 -805.33 836.2 C-805.99 836.2 -806.65 836.2 -807.33 836.2 C-809.37 833.29 -810.33 831.79 -810.33 828.2 C-810.99 828.2 -811.65 828.2 -812.33 828.2 C-812.86 827.23 -813.4 826.26 -813.95 825.26 C-815.63 822.32 -817.43 819.5 -819.33 816.7 C-821.46 813.54 -823.41 810.36 -825.25 807.02 C-827.05 803.97 -829.11 801.1 -831.16 798.21 C-832.33 796.2 -832.33 796.2 -832.33 793.2 C-832.99 793.2 -833.65 793.2 -834.33 793.2 C-835.43 791.71 -835.43 791.71 -836.66 789.59 C-837.12 788.8 -837.58 788.01 -838.06 787.2 C-838.56 786.33 -839.06 785.46 -839.58 784.57 C-844.09 776.9 -848.72 769.32 -853.52 761.82 C-854.1 760.9 -854.69 759.98 -855.3 759.03 C-857.9 754.95 -860.53 750.88 -863.18 746.84 C-863.6 746.19 -864.02 745.55 -864.46 744.88 C-865.55 743.21 -866.65 741.54 -867.75 739.88 C-869.12 737.55 -869.89 735.83 -870.33 733.2 C-870.99 733.2 -871.65 733.2 -872.33 733.2 C-874.37 730.29 -875.33 728.79 -875.33 725.2 C-875.99 725.2 -876.65 725.2 -877.33 725.2 C-878.13 723.74 -878.13 723.74 -878.95 722.26 C-880.63 719.32 -882.43 716.5 -884.33 713.7 C-886.44 710.57 -888.38 707.41 -890.22 704.11 C-891.58 701.76 -893.03 699.48 -894.49 697.19 C-895.11 696.21 -895.73 695.24 -896.37 694.24 C-898.27 691.29 -900.17 688.35 -902.07 685.41 C-903.3 683.51 -904.54 681.6 -905.77 679.7 C-906.4 678.72 -907.04 677.75 -907.69 676.74 C-908.29 675.81 -908.89 674.88 -909.51 673.91 C-910.32 672.66 -910.32 672.66 -911.15 671.38 C-912.33 669.2 -912.33 669.2 -912.33 666.2 C-912.99 666.2 -913.65 666.2 -914.33 666.2 C-916.37 663.29 -917.33 661.79 -917.33 658.2 C-917.99 658.2 -918.65 658.2 -919.33 658.2 C-920.61 656.47 -920.61 656.47 -922.04 654.07 C-922.56 653.2 -923.09 652.32 -923.62 651.43 C-924.17 650.51 -924.71 649.58 -925.27 648.63 C-925.8 647.74 -926.34 646.84 -926.9 645.92 C-932.44 636.59 -934.85 629.78 -934.83 618.88 C-934.86 617.81 -934.88 616.73 -934.91 615.62 C-934.93 607.91 -933.25 602.77 -929.33 596.2 C-928.65 594.87 -927.98 593.54 -927.33 592.2 C-926.67 592.2 -926.01 592.2 -925.33 592.2 C-924.93 591.24 -924.93 591.24 -924.52 590.26 C-923.33 588.2 -923.33 588.2 -920.33 587.2 C-920 586.21 -919.67 585.22 -919.33 584.2 C-917.62 582.88 -917.62 582.88 -915.52 581.63 C-914.83 581.22 -914.14 580.81 -913.43 580.38 C-912.74 579.99 -912.04 579.6 -911.33 579.2 C-910.75 578.86 -910.17 578.52 -909.57 578.17 C-902.94 575.29 -896.54 574.9 -889.43 574.93 C-888.46 574.93 -887.49 574.93 -886.5 574.92 C-883.27 574.91 -880.04 574.92 -876.81 574.92 C-874.49 574.92 -872.16 574.91 -869.84 574.91 C-863.55 574.89 -857.25 574.89 -850.96 574.89 C-845.03 574.89 -839.11 574.89 -833.18 574.88 C-820.73 574.87 -808.28 574.87 -795.83 574.88 C-784.46 574.89 -773.08 574.87 -761.7 574.86 C-750 574.84 -738.31 574.83 -726.61 574.83 C-720.05 574.83 -713.49 574.83 -706.93 574.82 C-700.76 574.8 -694.59 574.81 -688.42 574.82 C-686.16 574.82 -683.89 574.82 -681.63 574.81 C-678.54 574.8 -675.45 574.81 -672.35 574.82 C-671.46 574.81 -670.57 574.81 -669.66 574.8 C-657.17 574.91 -647.15 580.21 -638.02 588.39 C-636.33 590.2 -636.33 590.2 -636.33 592.2 C-635.67 592.2 -635.01 592.2 -634.33 592.2 C-633.2 593.6 -633.2 593.6 -631.98 595.55 C-631.54 596.26 -631.1 596.96 -630.65 597.69 C-630.19 598.43 -629.74 599.18 -629.27 599.95 C-628.81 600.67 -628.35 601.4 -627.87 602.16 C-625.8 605.5 -624.13 608.31 -623.33 612.2 C-622.67 612.2 -622.01 612.2 -621.33 612.2 C-619.29 615.1 -618.33 616.6 -618.33 620.2 C-617.67 620.2 -617.01 620.2 -616.33 620.2 C-615.52 621.65 -615.52 621.65 -614.7 623.13 C-613.03 626.07 -611.22 628.89 -609.33 631.7 C-607.21 634.83 -605.27 638 -603.43 641.3 C-601.23 645.09 -598.82 648.75 -596.45 652.43 C-588.18 665.39 -580.04 678.42 -571.91 691.46 C-569.67 695.05 -567.42 698.64 -565.15 702.21 C-564.68 702.95 -564.21 703.7 -563.72 704.47 C-562.86 705.83 -561.99 707.19 -561.12 708.55 C-558.33 712.97 -558.33 712.97 -558.33 715.2 C-557.67 715.2 -557.01 715.2 -556.33 715.2 C-555.94 715.93 -555.55 716.67 -555.16 717.43 C-552.52 722.36 -549.97 726.92 -546.33 731.2 C-543.33 735.7 -543.33 735.7 -543.33 739.2 C-542.67 739.2 -542.01 739.2 -541.33 739.2 C-539.29 742.1 -538.33 743.6 -538.33 747.2 C-537.67 747.2 -537.01 747.2 -536.33 747.2 C-535.52 748.66 -535.52 748.66 -534.69 750.15 C-531.72 755.34 -528.37 760.27 -525.04 765.23 C-524.56 765.96 -524.09 766.68 -523.59 767.43 C-523.16 768.08 -522.72 768.73 -522.27 769.41 C-521.33 771.2 -521.33 771.2 -521.33 774.2 C-520.67 774.2 -520.01 774.2 -519.33 774.2 C-517.29 777.1 -516.33 778.6 -516.33 782.2 C-515.67 782.2 -515.01 782.2 -514.33 782.2 C-513.22 783.68 -513.22 783.68 -512 785.8 C-511.54 786.59 -511.07 787.38 -510.6 788.19 C-510.1 789.06 -509.59 789.93 -509.08 790.82 C-503.42 800.46 -497.49 809.9 -491.46 819.3 C-490.93 820.13 -490.4 820.95 -489.86 821.8 C-488.85 823.38 -487.83 824.96 -486.81 826.54 C-486.12 827.62 -486.12 827.62 -485.42 828.71 C-485.01 829.34 -484.61 829.96 -484.19 830.61 C-483.33 832.2 -483.33 832.2 -483.33 834.2 C-482.67 834.2 -482.01 834.2 -481.33 834.2 C-479.29 837.1 -478.33 838.6 -478.33 842.2 C-477.67 842.2 -477.01 842.2 -476.33 842.2 C-475.52 843.65 -475.52 843.65 -474.7 845.13 C-473.03 848.07 -471.22 850.89 -469.33 853.7 C-467.2 856.85 -465.24 860.03 -463.41 863.37 C-461.61 866.42 -459.54 869.29 -457.5 872.18 C-456.33 874.2 -456.33 874.2 -456.33 877.2 C-455.67 877.2 -455.01 877.2 -454.33 877.2 C-453.22 878.68 -453.22 878.68 -452 880.8 C-451.54 881.59 -451.07 882.38 -450.6 883.19 C-450.1 884.06 -449.59 884.93 -449.08 885.82 C-444.59 893.45 -439.98 900.99 -435.2 908.45 C-434.62 909.36 -434.03 910.27 -433.43 911.22 C-432.28 913.01 -431.13 914.81 -429.98 916.61 C-427.46 920.55 -424.95 924.49 -422.45 928.45 C-422.03 929.11 -421.61 929.77 -421.17 930.45 C-418.33 934.97 -418.33 934.97 -418.33 937.2 C-417.67 937.2 -417.01 937.2 -416.33 937.2 C-414.29 940.1 -413.33 941.6 -413.33 945.2 C-412.67 945.2 -412.01 945.2 -411.33 945.2 C-410.52 946.65 -410.52 946.65 -409.7 948.13 C-408.03 951.07 -406.22 953.89 -404.33 956.7 C-402.2 959.85 -400.24 963.03 -398.41 966.37 C-396.61 969.42 -394.54 972.29 -392.5 975.18 C-391.33 977.2 -391.33 977.2 -391.33 980.2 C-390.67 980.2 -390.01 980.2 -389.33 980.2 C-388.06 981.92 -388.06 981.92 -386.65 984.32 C-386.13 985.19 -385.61 986.07 -385.08 986.96 C-384.54 987.89 -384.01 988.81 -383.45 989.76 C-382.92 990.65 -382.39 991.55 -381.85 992.47 C-380.33 995.04 -378.83 997.62 -377.33 1000.2 C-376.93 1000.87 -376.53 1001.54 -376.12 1002.23 C-369.84 1012.97 -368.98 1026.42 -371.9 1038.56 C-374.59 1046.25 -379.76 1053.34 -386.33 1058.2 C-386.99 1058.2 -387.65 1058.2 -388.33 1058.2 C-388.33 1058.86 -388.33 1059.52 -388.33 1060.2 C-390.18 1061.16 -392.03 1062.12 -393.89 1063.07 C-394.92 1063.6 -395.96 1064.14 -397.02 1064.69 C-403.69 1067.73 -409.54 1068.49 -416.75 1068.47 C-417.68 1068.48 -418.61 1068.49 -419.56 1068.49 C-422.67 1068.51 -425.77 1068.51 -428.87 1068.51 C-431.1 1068.52 -433.32 1068.53 -435.55 1068.54 C-441.59 1068.57 -447.63 1068.59 -453.67 1068.6 C-459.99 1068.62 -466.3 1068.64 -472.62 1068.67 C-483.22 1068.71 -493.82 1068.74 -504.41 1068.77 C-515.33 1068.8 -526.24 1068.84 -537.16 1068.88 C-537.83 1068.88 -538.5 1068.88 -539.2 1068.89 C-542.57 1068.9 -545.95 1068.91 -549.33 1068.92 C-577.33 1069.03 -605.33 1069.12 -633.33 1069.2 C-633.35 1079.74 -633.37 1090.28 -633.38 1100.83 C-633.39 1105.72 -633.39 1110.62 -633.4 1115.51 C-633.41 1120.23 -633.42 1124.95 -633.42 1129.67 C-633.42 1131.48 -633.43 1133.28 -633.43 1135.09 C-633.44 1137.61 -633.44 1140.13 -633.44 1142.65 C-633.45 1143.4 -633.45 1144.15 -633.45 1144.93 C-633.75 1148.35 -633.75 1148.35 -632.33 1151.2 C-630.91 1151.25 -629.5 1151.29 -628.08 1151.32 C-617.95 1152.26 -609.47 1158.3 -602.62 1165.5 C-601.33 1167.2 -601.33 1167.2 -601.33 1169.2 C-600.67 1169.2 -600.01 1169.2 -599.33 1169.2 C-598.36 1171 -597.4 1172.82 -596.45 1174.63 C-595.92 1175.64 -595.39 1176.65 -594.84 1177.69 C-591.54 1185.34 -591.01 1192.89 -590.91 1201.14 C-590.9 1202.03 -590.88 1202.93 -590.86 1203.85 C-590.8 1207.15 -590.75 1210.45 -590.7 1213.76 C-590.58 1221.16 -590.46 1228.57 -590.33 1236.2 C-562.28 1236.53 -534.23 1236.86 -505.33 1237.2 C-505.99 1235.88 -506.65 1234.56 -507.33 1233.2 C-511.12 1214.2 -509.17 1196.62 -498.64 1180.01 C-491.34 1169.59 -482.44 1161.41 -470.93 1155.99 C-469.33 1155.3 -469.33 1155.3 -468.33 1154.2 C-468.22 1152.8 -468.14 1151.4 -468.08 1150.01 C-466.92 1137.88 -461.52 1127.81 -454.33 1118.2 C-453.82 1117.51 -453.3 1116.82 -452.77 1116.12 C-451.45 1114.45 -451.45 1114.45 -449.33 1112.2 C-448.67 1112.2 -448.01 1112.2 -447.33 1112.2 C-447.33 1111.54 -447.33 1110.88 -447.33 1110.2 C-434.96 1099.36 -420.38 1094.02 -404.08 1093.82 C-402.96 1093.8 -402.96 1093.8 -401.82 1093.78 C-396.4 1093.82 -392.31 1095.06 -387.33 1097.2 C-386.96 1096.35 -386.96 1096.35 -386.58 1095.5 C-379.17 1081.9 -364.35 1073.31 -350.32 1068.07 C-340.62 1065.23 -331.27 1064.95 -321.33 1066.2 C-320.13 1066.27 -320.13 1066.27 -318.9 1066.35 C-313.04 1066.76 -308.57 1068.65 -303.33 1071.2 C-302.24 1071.61 -301.14 1072.02 -300.02 1072.45 C-294.39 1074.83 -289.15 1078.47 -284.33 1082.2 C-284.33 1082.86 -284.33 1083.52 -284.33 1084.2 C-283.34 1084.53 -282.35 1084.86 -281.33 1085.2 C-281.33 1085.86 -281.33 1086.52 -281.33 1087.2 C-280.67 1087.2 -280.01 1087.2 -279.33 1087.2 C-277.82 1088.88 -277.82 1088.88 -276.2 1091.07 C-275.39 1092.15 -275.39 1092.15 -274.57 1093.25 C-273.33 1095.2 -273.33 1095.2 -273.33 1097.2 C-272.67 1097.2 -272.01 1097.2 -271.33 1097.2 C-269.35 1101.16 -267.37 1105.12 -265.33 1109.2 C-264.18 1109.11 -263.03 1109.03 -261.85 1108.94 C-238.17 1107.33 -216.44 1110.65 -197.73 1126.38 C-185.31 1137.73 -185.31 1137.73 -181.33 1143.2 C-181.33 1143.86 -181.33 1144.52 -181.33 1145.2 C-180.67 1145.2 -180.01 1145.2 -179.33 1145.2 C-171.46 1158.96 -165.6 1172.01 -165.33 1188.2 C-165.29 1189.45 -165.29 1189.45 -165.25 1190.73 C-165.2 1193.23 -165.25 1195.7 -165.33 1198.2 C-165.34 1199.24 -165.36 1200.29 -165.38 1201.36 C-165.9 1214.44 -170.03 1225.27 -175.33 1237.2 C-158.83 1237.2 -142.33 1237.2 -125.33 1237.2 C-125.33 1111.14 -125.33 985.08 -125.33 855.2 C-180.77 855.2 -236.21 855.2 -293.33 855.2 C-293.33 863.45 -293.33 871.7 -293.33 880.2 C-297.11 887.77 -299.81 892.43 -307.33 896.2 C-313.78 898.06 -320.09 897.58 -326.33 895.2 C-328.61 893.68 -330.35 892.13 -332.33 890.2 C-332.33 889.54 -332.33 888.88 -332.33 888.2 C-332.99 888.2 -333.65 888.2 -334.33 888.2 C-337.05 884.56 -337.71 881.89 -337.72 877.4 C-337.73 876.26 -337.74 875.12 -337.74 873.94 C-337.74 872.72 -337.73 871.49 -337.73 870.23 C-337.73 868.96 -337.73 867.7 -337.74 866.39 C-337.74 863.72 -337.73 861.04 -337.72 858.37 C-337.7 854.95 -337.71 851.53 -337.73 848.12 C-337.74 844.84 -337.73 841.57 -337.73 838.29 C-337.73 837.07 -337.74 835.85 -337.74 834.59 C-337.66 824.12 -337.66 824.12 -334.33 819.2 C-333.67 819.2 -333.01 819.2 -332.33 819.2 C-332.06 818.56 -331.79 817.92 -331.52 817.26 C-330.33 815.2 -330.33 815.2 -327.33 814.2 C-327.33 813.54 -327.33 812.88 -327.33 812.2 C-326.67 812.2 -326.01 812.2 -325.33 812.2 C-325 811.21 -324.67 810.22 -324.33 809.2 C-323.67 809.2 -323.01 809.2 -322.33 809.2 C-322.33 808.54 -322.33 807.88 -322.33 807.2 C-320.68 805.57 -320.68 805.57 -318.52 803.76 C-315.5 801.22 -315.5 801.22 -312.69 798.47 C-311.33 797.2 -311.33 797.2 -309.33 797.2 C-309.33 796.54 -309.33 795.88 -309.33 795.2 C-307.87 793.69 -307.87 793.69 -305.95 792.07 C-305.01 791.26 -305.01 791.26 -304.05 790.44 C-302.33 789.2 -302.33 789.2 -300.33 789.2 C-300.33 788.54 -300.33 787.88 -300.33 787.2 C-294.85 782.2 -294.85 782.2 -292.33 782.2 C-292.33 781.54 -292.33 780.88 -292.33 780.2 C-290.93 778.79 -290.93 778.79 -288.95 777.13 C-284.67 773.51 -280.54 769.73 -276.43 765.92 C-274.33 764.2 -274.33 764.2 -272.33 764.2 C-272.33 763.54 -272.33 762.88 -272.33 762.2 C-271.67 762.2 -271.01 762.2 -270.33 762.2 C-270.33 761.54 -270.33 760.88 -270.33 760.2 C-268.93 758.79 -268.93 758.79 -266.95 757.13 C-262.67 753.51 -258.54 749.73 -254.43 745.92 C-252.33 744.2 -252.33 744.2 -250.33 744.2 C-250.33 743.54 -250.33 742.88 -250.33 742.2 C-244.85 737.2 -244.85 737.2 -242.33 737.2 C-242.33 736.54 -242.33 735.88 -242.33 735.2 C-240.93 733.79 -240.93 733.79 -238.95 732.13 C-234.67 728.51 -230.54 724.73 -226.43 720.92 C-224.33 719.2 -224.33 719.2 -222.33 719.2 C-222.33 718.54 -222.33 717.88 -222.33 717.2 C-221.67 717.2 -221.01 717.2 -220.33 717.2 C-220.33 716.54 -220.33 715.88 -220.33 715.2 C-218.93 713.79 -218.93 713.79 -216.95 712.13 C-212.67 708.51 -208.54 704.73 -204.43 700.92 C-202.33 699.2 -202.33 699.2 -200.33 699.2 C-200.33 698.54 -200.33 697.88 -200.33 697.2 C-194.85 692.2 -194.85 692.2 -192.33 692.2 C-192.33 691.54 -192.33 690.88 -192.33 690.2 C-190.93 688.79 -190.93 688.79 -188.95 687.13 C-184.67 683.51 -180.54 679.73 -176.43 675.92 C-174.33 674.2 -174.33 674.2 -172.33 674.2 C-172.33 673.54 -172.33 672.88 -172.33 672.2 C-171.67 672.2 -171.01 672.2 -170.33 672.2 C-170.33 671.54 -170.33 670.88 -170.33 670.2 C-168.68 668.5 -168.68 668.5 -166.52 666.63 C-165.45 665.7 -165.45 665.7 -164.37 664.75 C-162.33 663.2 -162.33 663.2 -159.33 662.2 C-159.33 661.54 -159.33 660.88 -159.33 660.2 C-157.87 658.69 -157.87 658.69 -155.95 657.07 C-155.01 656.26 -155.01 656.26 -154.05 655.44 C-152.33 654.2 -152.33 654.2 -150.33 654.2 C-150.33 653.54 -150.33 652.88 -150.33 652.2 C-144.85 647.2 -144.85 647.2 -142.33 647.2 C-142.33 646.54 -142.33 645.88 -142.33 645.2 C-140.86 643.71 -140.86 643.71 -138.83 642.01 C-137.85 641.18 -137.85 641.18 -136.86 640.34 C-136.02 639.63 -135.19 638.92 -134.33 638.2 C-131.69 635.89 -129.05 633.58 -126.33 631.2 C-126 613.71 -125.67 596.22 -125.33 578.2 C-180.77 578.2 -236.21 578.2 -293.33 578.2 C-293.33 586.45 -293.33 594.7 -293.33 603.2 C-297.41 611.35 -300.44 616.22 -308.89 619.63 C-317.19 620.99 -323.37 619.83 -330.33 615.2 C-330.33 614.54 -330.33 613.88 -330.33 613.2 C-330.99 613.2 -331.65 613.2 -332.33 613.2 C-338.25 607.17 -338.07 600.01 -338.03 592.04 C-338.04 590.16 -338.04 590.16 -338.05 588.24 C-338.06 585.59 -338.05 582.95 -338.03 580.31 C-338.01 576.94 -338.04 573.57 -338.08 570.21 C-338.11 566.96 -338.1 563.72 -338.09 560.48 C-338.11 559.28 -338.12 558.09 -338.14 556.85 C-338.03 548.96 -336.48 544.2 -331.33 538.2 C-330.5 537.23 -330.5 537.23 -329.66 536.25 C-328.17 534.56 -326.64 532.94 -325.08 531.32 C-320.93 526.98 -320.93 526.98 -317.33 522.2 C-316.67 522.2 -316.01 522.2 -315.33 522.2 C-315 521.21 -314.67 520.22 -314.33 519.2 C-313.67 519.2 -313.01 519.2 -312.33 519.2 C-312.06 518.6 -311.78 518.01 -311.5 517.39 C-310.36 515.26 -309.21 513.78 -307.54 512.03 C-307.01 511.47 -306.48 510.9 -305.94 510.32 C-305.38 509.74 -304.83 509.17 -304.27 508.57 C-300.36 504.7 -300.36 504.7 -297.33 500.2 C-296.67 500.2 -296.01 500.2 -295.33 500.2 C-295 499.21 -294.67 498.22 -294.33 497.2 C-293.67 497.2 -293.01 497.2 -292.33 497.2 C-292.06 496.62 -291.79 496.04 -291.52 495.45 C-290.3 493.14 -289.02 491.17 -287.33 489.2 C-286.67 489.2 -286.01 489.2 -285.33 489.2 C-285.07 488.61 -284.81 488.03 -284.54 487.43 C-283.24 485.02 -281.78 483.35 -279.89 481.38 C-278.89 480.33 -278.89 480.33 -277.87 479.25 C-277.17 478.53 -276.48 477.81 -275.77 477.07 C-274.39 475.63 -273.01 474.19 -271.64 472.75 C-271.03 472.12 -270.42 471.48 -269.79 470.83 C-268.24 469.24 -268.24 469.24 -267.33 467.2 C-266.67 467.2 -266.01 467.2 -265.33 467.2 C-265 466.21 -264.67 465.22 -264.33 464.2 C-263.67 464.2 -263.01 464.2 -262.33 464.2 C-262.06 463.6 -261.78 463.01 -261.5 462.39 C-260.36 460.26 -259.21 458.78 -257.54 457.03 C-257.01 456.47 -256.48 455.9 -255.94 455.32 C-255.38 454.74 -254.83 454.17 -254.27 453.57 C-250.36 449.7 -250.36 449.7 -247.33 445.2 C-246.67 445.2 -246.01 445.2 -245.33 445.2 C-245 444.21 -244.67 443.22 -244.33 442.2 C-243.67 442.2 -243.01 442.2 -242.33 442.2 C-242.06 441.62 -241.79 441.04 -241.52 440.45 C-240.3 438.14 -239.02 436.17 -237.33 434.2 C-236.67 434.2 -236.01 434.2 -235.33 434.2 C-235.07 433.61 -234.81 433.03 -234.54 432.43 C-233.24 430.02 -231.78 428.35 -229.89 426.38 C-228.89 425.33 -228.89 425.33 -227.87 424.25 C-227.17 423.53 -226.48 422.81 -225.77 422.07 C-224.39 420.63 -223.01 419.19 -221.64 417.75 C-221.03 417.12 -220.42 416.48 -219.79 415.83 C-218.24 414.24 -218.24 414.24 -217.33 412.2 C-216.67 412.2 -216.01 412.2 -215.33 412.2 C-215 411.21 -214.67 410.22 -214.33 409.2 C-213.67 409.2 -213.01 409.2 -212.33 409.2 C-212.06 408.6 -211.78 408.01 -211.5 407.39 C-210.36 405.26 -209.21 403.78 -207.54 402.03 C-207.01 401.47 -206.48 400.9 -205.94 400.32 C-205.38 399.74 -204.83 399.17 -204.27 398.57 C-200.36 394.7 -200.36 394.7 -197.33 390.2 C-196.67 390.2 -196.01 390.2 -195.33 390.2 C-195 389.21 -194.67 388.22 -194.33 387.2 C-193.67 387.2 -193.01 387.2 -192.33 387.2 C-192.06 386.62 -191.79 386.04 -191.52 385.45 C-190.3 383.14 -189.02 381.17 -187.33 379.2 C-186.67 379.2 -186.01 379.2 -185.33 379.2 C-185.07 378.61 -184.81 378.03 -184.54 377.43 C-183.24 375.02 -181.78 373.35 -179.89 371.38 C-178.89 370.33 -178.89 370.33 -177.87 369.25 C-177.17 368.53 -176.48 367.81 -175.77 367.07 C-174.39 365.63 -173.01 364.19 -171.64 362.75 C-171.03 362.12 -170.42 361.48 -169.79 360.83 C-168.24 359.24 -168.24 359.24 -167.33 357.2 C-166.67 357.2 -166.01 357.2 -165.33 357.2 C-165 356.21 -164.67 355.22 -164.33 354.2 C-163.67 354.2 -163.01 354.2 -162.33 354.2 C-162.1 353.65 -161.88 353.11 -161.64 352.55 C-159.92 349.46 -157.68 347.15 -155.27 344.57 C-151.91 341.15 -151.91 341.15 -149.33 337.2 C-148.67 337.2 -148.01 337.2 -147.33 337.2 C-147.33 336.54 -147.33 335.88 -147.33 335.2 C-146.67 335.2 -146.01 335.2 -145.33 335.2 C-145 334.21 -144.67 333.22 -144.33 332.2 C-143.67 332.2 -143.01 332.2 -142.33 332.2 C-142.06 331.62 -141.79 331.04 -141.52 330.45 C-140.3 328.14 -139.02 326.17 -137.33 324.2 C-136.67 324.2 -136.01 324.2 -135.33 324.2 C-134.99 323.37 -134.99 323.37 -134.64 322.53 C-132.95 319.52 -130.78 317.36 -128.39 314.88 C-124.59 310.82 -122.06 307.5 -120.33 302.2 C-119.69 300.65 -119.04 299.11 -118.39 297.57 C-116.82 293.64 -115.53 289.69 -114.33 285.63 C-112.97 281.07 -111.35 276.88 -109.33 272.58 C-107.64 268.56 -106.5 264.37 -105.26 260.19 C-104.19 256.74 -102.75 253.51 -101.33 250.2 C-100.67 248.08 -100.02 245.95 -99.39 243.82 C-98.01 239.2 -96.38 234.94 -94.33 230.58 C-92.64 226.56 -91.5 222.37 -90.26 218.19 C-89.19 214.74 -87.75 211.51 -86.33 208.2 C-85.67 206.08 -85.02 203.95 -84.39 201.82 C-83.01 197.2 -81.38 192.94 -79.33 188.58 C-77.64 184.56 -76.5 180.37 -75.26 176.19 C-74.19 172.74 -72.75 169.51 -71.33 166.2 C-70.67 164.08 -70.02 161.95 -69.39 159.82 C-68.01 155.2 -66.38 150.94 -64.33 146.58 C-62.64 142.56 -61.5 138.37 -60.26 134.19 C-59.19 130.74 -57.75 127.51 -56.33 124.2 C-55.67 122.08 -55.02 119.95 -54.39 117.82 C-53.01 113.2 -51.38 108.94 -49.33 104.58 C-47.64 100.56 -46.5 96.37 -45.26 92.19 C-44.19 88.74 -42.75 85.51 -41.33 82.2 C-40.67 80.08 -40.02 77.95 -39.39 75.82 C-38.01 71.2 -36.38 66.94 -34.33 62.58 C-32.64 58.56 -31.5 54.37 -30.26 50.19 C-29.19 46.74 -27.75 43.51 -26.33 40.2 C-25.67 38.08 -25.02 35.95 -24.39 33.82 C-22.96 29.06 -21.31 24.61 -19.2 20.12 C-18.2 18.02 -18.2 18.02 -17.33 15.01 C-15.33 9.38 -11.68 4.18 -6.47 1.1 C-4.12 0.11 -2.54 -0.04 0 0 Z " fill="#000102" transform="translate(934.328125,-0.1953125)"/>
<path d="M0 0 C0 0.66 0 1.32 0 2 C1.08 2.35 1.08 2.35 2.19 2.71 C11.48 6.98 18.22 17.28 22.64 26.22 C23.08 27.12 23.53 28.01 23.98 28.94 C24.49 29.96 24.49 29.96 25 31 C26.09 31 27.18 31 28.3 31 C76.25 31.03 124.2 31.06 172.16 31.12 C173.25 31.12 173.25 31.12 174.36 31.12 C190.14 31.14 205.92 31.16 221.7 31.18 C229.43 31.19 237.17 31.2 244.91 31.21 C245.68 31.21 246.45 31.21 247.24 31.21 C272.2 31.24 297.16 31.26 322.11 31.27 C347.76 31.28 373.41 31.31 399.06 31.35 C402.68 31.36 406.3 31.36 409.93 31.37 C410.64 31.37 411.35 31.37 412.09 31.37 C423.56 31.39 435.04 31.39 446.51 31.39 C458.05 31.39 469.59 31.4 481.13 31.43 C487.38 31.45 493.63 31.45 499.88 31.45 C505.61 31.44 511.33 31.45 517.05 31.47 C519.12 31.48 521.19 31.48 523.26 31.47 C545.41 31.39 545.41 31.39 553.88 38.38 C558.31 43.86 560.72 47.69 560.56 54.88 C560.55 55.58 560.54 56.29 560.53 57.02 C560.25 64 558.37 67.84 553.39 72.51 C546.81 77.78 539.1 78.3 530.97 78.26 C530.09 78.27 529.22 78.27 528.31 78.27 C525.37 78.28 522.43 78.28 519.49 78.28 C517.36 78.28 515.22 78.29 513.09 78.3 C507.24 78.31 501.39 78.32 495.53 78.32 C489.22 78.32 482.9 78.34 476.59 78.35 C465.65 78.37 454.72 78.39 443.78 78.4 C432.31 78.41 420.84 78.42 409.37 78.44 C408.65 78.44 407.94 78.44 407.21 78.45 C403.58 78.45 399.96 78.46 396.34 78.46 C370.68 78.51 345.02 78.55 319.36 78.58 C294.44 78.61 269.52 78.64 244.59 78.68 C243.44 78.68 243.44 78.68 242.26 78.69 C234.55 78.7 226.83 78.71 219.11 78.72 C203.4 78.75 187.68 78.77 171.96 78.8 C171.23 78.8 170.51 78.8 169.77 78.8 C121.51 78.88 73.26 78.94 25 79 C24.29 80.34 24.29 80.34 23.57 81.7 C22.95 82.89 22.32 84.07 21.69 85.25 C21.07 86.41 20.46 87.57 19.82 88.77 C18.35 91.38 16.98 93.75 15 96 C14.34 96 13.68 96 13 96 C12.63 96.87 12.63 96.87 12.25 97.75 C10.82 100.33 9.22 102.06 7 104 C6.34 104 5.68 104 5 104 C5 104.66 5 105.32 5 106 C1.12 109.12 -2.79 111.47 -7.26 113.67 C-8.15 114.11 -9.04 114.55 -9.96 115 C-10.63 115.33 -11.31 115.66 -12 116 C-12 116.55 -12 117.09 -12 117.66 C-12.08 150.07 -12.18 182.49 -12.28 214.91 C-12.29 218.8 -12.31 222.7 -12.32 226.59 C-12.32 227.75 -12.32 227.75 -12.32 228.94 C-12.36 241.48 -12.4 254.03 -12.43 266.58 C-12.46 279.45 -12.5 292.33 -12.54 305.2 C-12.57 313.15 -12.59 321.09 -12.61 329.03 C-12.62 335.13 -12.64 341.22 -12.67 347.32 C-12.68 349.81 -12.68 352.31 -12.68 354.81 C-12.69 358.22 -12.7 361.63 -12.72 365.05 C-12.72 366.03 -12.72 367.02 -12.72 368.03 C-12.78 376.15 -13.03 383.86 -18.94 389.94 C-19.63 390.67 -20.32 391.4 -21.03 392.15 C-25.76 396.59 -30.68 397.48 -37 398 C-40.18 397.63 -42.91 396.91 -46 396 C-46 395.34 -46 394.68 -46 394 C-46.6 393.9 -47.19 393.79 -47.81 393.69 C-50.37 392.88 -51.32 392.01 -53.06 390 C-53.55 389.46 -54.03 388.93 -54.54 388.38 C-58.87 381.34 -59.44 374.1 -59.4 366.01 C-59.41 364.94 -59.41 363.86 -59.42 362.76 C-59.44 359.18 -59.43 355.6 -59.43 352.02 C-59.44 349.45 -59.45 346.87 -59.46 344.3 C-59.49 338.77 -59.5 333.24 -59.5 327.71 C-59.51 319.72 -59.53 311.72 -59.56 303.73 C-59.6 290.76 -59.63 277.78 -59.65 264.81 C-59.67 252.21 -59.7 239.61 -59.74 227.02 C-59.74 226.24 -59.74 225.46 -59.74 224.66 C-59.76 220.76 -59.77 216.86 -59.78 212.96 C-59.87 180.64 -59.94 148.32 -60 116 C-61.34 115.29 -61.34 115.29 -62.71 114.57 C-63.9 113.94 -65.08 113.31 -66.27 112.68 C-68.01 111.76 -68.01 111.76 -69.79 110.82 C-73.61 108.66 -76.41 106.42 -79.56 103.38 C-80.51 102.48 -81.46 101.58 -82.44 100.65 C-89 93.86 -89 93.86 -89 91 C-89.66 91 -90.32 91 -91 91 C-101.09 75.55 -102.93 58.65 -100.56 40.64 C-96.38 22.85 -84.61 8.18 -69.49 -1.59 C-47.76 -13.94 -21.05 -13.74 0 0 Z " fill="#000102" transform="translate(228,137)"/>
<path d="M0 0 C1.33 -0.01 1.33 -0.01 2.69 -0.02 C5.68 -0.04 8.67 -0.06 11.66 -0.08 C13.79 -0.09 15.93 -0.1 18.07 -0.12 C37.58 -0.25 57.09 -0.32 76.6 -0.37 C91.03 -0.41 105.46 -0.47 119.89 -0.58 C130.03 -0.65 140.17 -0.69 150.3 -0.71 C156.36 -0.72 162.42 -0.74 168.48 -0.8 C174.18 -0.86 179.88 -0.87 185.58 -0.86 C187.67 -0.86 189.76 -0.87 191.86 -0.91 C207.66 -1.14 207.66 -1.14 212.29 2.13 C214.12 4.43 215.35 6.5 216.53 9.18 C217.21 10.35 217.89 11.52 218.59 12.68 C219.04 13.52 219.04 13.52 219.5 14.37 C220.74 16.55 222.12 18.6 223.53 20.68 C225.67 23.84 227.62 27.04 229.47 30.37 C230.74 32.53 232.12 34.6 233.53 36.68 C235.64 39.8 237.57 42.95 239.41 46.24 C242.91 52.3 246.81 58.13 250.72 63.93 C252.79 67.01 254.67 70.13 256.47 73.37 C257.74 75.53 259.12 77.6 260.53 79.68 C262.3 82.3 263.99 84.92 265.53 87.68 C267.47 91.16 269.67 94.43 271.89 97.73 C274.26 101.27 276.52 104.88 278.8 108.48 C280.83 111.64 282.93 114.74 285.07 117.82 C286.39 119.95 287.51 122.08 288.62 124.33 C289.16 125.41 289.16 125.41 289.71 126.51 C290.11 127.34 290.11 127.34 290.53 128.18 C250.54 129.33 210.56 129.34 170.55 129.31 C163.42 129.31 156.28 129.31 149.14 129.31 C142.14 129.32 135.14 129.32 128.15 129.32 C124.02 129.31 119.88 129.31 115.75 129.32 C111.89 129.32 108.03 129.32 104.17 129.31 C102.78 129.31 101.38 129.31 99.98 129.31 C92.42 129.32 84.86 129.19 77.3 128.86 C76.58 128.84 75.86 128.82 75.12 128.8 C71.04 128.59 68.57 128.19 65.78 125.12 C64.58 123.2 64.58 123.2 63.53 121.18 C62.7 119.9 61.87 118.61 61.03 117.33 C60.19 115.93 59.36 114.53 58.53 113.12 C57.57 111.51 56.61 109.91 55.64 108.31 C55.14 107.47 54.63 106.63 54.11 105.77 C51.4 101.32 48.59 96.94 45.78 92.56 C40.75 84.69 35.78 76.79 30.84 68.87 C26.12 61.29 21.33 53.75 16.45 46.27 C12.74 40.56 9.2 34.76 5.68 28.94 C1.92 22.75 -2 16.68 -6.03 10.66 C-6.47 10 -6.9 9.34 -7.35 8.66 C-7.74 8.08 -8.12 7.5 -8.52 6.91 C-9.56 5.02 -10.04 3.28 -10.47 1.18 C-7.2 -0.45 -3.59 0.01 0 0 Z " fill="#00A8F2" transform="translate(228.4695281982422,894.8191833496094)"/>
<path d="M0 0 C28.62 -0.12 57.23 -0.2 85.85 -0.26 C99.13 -0.28 112.42 -0.32 125.7 -0.38 C137.28 -0.43 148.86 -0.46 160.44 -0.47 C166.57 -0.48 172.7 -0.49 178.83 -0.53 C184.6 -0.56 190.37 -0.57 196.14 -0.57 C198.26 -0.57 200.38 -0.58 202.5 -0.6 C205.39 -0.62 208.28 -0.61 211.17 -0.6 C212.01 -0.62 212.86 -0.63 213.73 -0.65 C217.71 -0.59 219.55 -0.44 222.46 2.39 C222.97 3.25 223.48 4.11 224 5 C224.48 5.76 224.96 6.51 225.46 7.29 C225.9 8.06 226.35 8.83 226.81 9.62 C231.46 17.5 236.39 25.18 241.54 32.73 C243.09 35.14 244.5 37.61 245.91 40.1 C247.8 43.39 249.8 46.6 251.81 49.81 C252.25 50.51 252.69 51.22 253.14 51.94 C256.09 56.63 259.19 61.19 262.42 65.71 C264.62 68.9 266.56 72.22 268.53 75.55 C269.99 77.99 271.54 80.34 273.12 82.69 C275.18 85.73 277.07 88.82 278.86 92.04 C280.97 95.66 283.31 99.14 285.61 102.64 C287 105 287 105 287 107 C258.42 107.16 229.84 107.29 201.26 107.36 C187.99 107.4 174.72 107.45 161.45 107.53 C149.88 107.6 138.32 107.64 126.75 107.66 C120.63 107.67 114.5 107.69 108.38 107.74 C102.61 107.79 96.85 107.8 91.09 107.79 C88.97 107.79 86.85 107.81 84.74 107.83 C81.85 107.87 78.96 107.86 76.07 107.84 C74.82 107.87 74.82 107.87 73.53 107.9 C70.11 107.84 67.89 107.73 65.19 105.51 C63.64 103.74 62.3 101.96 61 100 C60.58 99.37 60.15 98.74 59.72 98.09 C58.54 96.3 57.42 94.47 56.31 92.62 C55.44 91.2 54.57 89.78 53.7 88.36 C53.25 87.64 52.81 86.92 52.35 86.17 C50.18 82.68 47.93 79.25 45.69 75.81 C41.03 68.66 36.52 61.42 32.05 54.15 C28.09 47.73 24.06 41.36 20 35 C15.19 27.45 10.38 19.9 5.62 12.31 C4.78 10.98 4.78 10.98 3.91 9.61 C3.4 8.79 2.88 7.96 2.35 7.11 C1.67 6.03 1.67 6.03 0.97 4.92 C0 3 0 3 0 0 Z " fill="#00A9F3" transform="translate(124,746)"/>
<path d="M0 0 C4.65 2.59 7.8 5.53 10.75 9.94 C11.15 10.51 11.55 11.08 11.96 11.67 C14.56 15.99 15 19.75 15.25 24.75 C15.6 31.81 16.28 39.31 21.39 44.66 C27.94 49.56 34.68 51.02 42.75 49.94 C46.29 48.6 49.47 46.81 52.75 44.94 C61.66 40.72 70.94 39.18 80.68 41.69 C92.87 46.41 102.15 55.12 107.75 66.94 C111.15 76.47 111.72 89.94 108.25 99.56 C102.54 110.93 93.43 119.44 81.65 124.05 C76.54 125.61 71.49 125.61 66.18 125.68 C64.93 125.71 63.68 125.73 62.4 125.76 C58.18 125.85 53.97 125.9 49.75 125.94 C49 125.95 48.26 125.95 47.49 125.96 C35.57 126.08 23.65 126.1 11.74 126.1 C8.88 126.11 6.03 126.11 3.18 126.11 C-6.8 126.12 -16.78 126.12 -26.77 126.12 C-36.03 126.12 -45.3 126.13 -54.56 126.15 C-62.57 126.16 -70.59 126.17 -78.6 126.17 C-83.36 126.17 -88.12 126.17 -92.88 126.18 C-97.34 126.19 -101.8 126.19 -106.26 126.18 C-107.89 126.18 -109.52 126.18 -111.15 126.19 C-113.38 126.2 -115.61 126.19 -117.84 126.18 C-119.71 126.19 -119.71 126.19 -121.61 126.19 C-127.45 125.79 -132.89 124.79 -137.56 121.06 C-138.2 120.57 -138.83 120.08 -139.49 119.57 C-143.07 116.25 -145.04 113.26 -145.49 108.3 C-145.65 101.59 -145.36 96.42 -141.25 90.94 C-135.41 84.97 -129.26 83.15 -121.25 82.12 C-115.31 81.2 -111.28 79.48 -107.25 74.94 C-103.64 69.39 -102.63 64.46 -103.25 57.94 C-103.58 56.62 -103.94 55.31 -104.31 54 C-106.05 47.54 -105.07 42.05 -102.06 36.12 C-98.81 30.75 -94.26 27.7 -88.25 25.94 C-81.26 25.44 -77.15 26.94 -71.88 31.44 C-66.04 36.08 -60.71 37.57 -53.25 36.94 C-49.8 36.22 -46.43 35.49 -43.25 33.94 C-42.02 32.05 -42.02 32.05 -41.25 29.94 C-40.29 28.42 -40.29 28.42 -39.31 26.88 C-37.52 23.82 -36.75 21.01 -36 17.56 C-34.09 10.17 -30.04 5.35 -23.63 1.27 C-15.48 -2.85 -8.43 -3.79 0 0 Z " fill="#9EBF0A" transform="translate(614.25,1111.0625)"/>
<path d="M0 0 C28.56 -0.21 57.13 -0.37 85.69 -0.47 C98.95 -0.51 112.22 -0.58 125.48 -0.68 C137.04 -0.77 148.6 -0.83 160.15 -0.85 C166.28 -0.86 172.4 -0.89 178.52 -0.95 C184.28 -1.01 190.04 -1.03 195.8 -1.02 C197.91 -1.02 200.03 -1.04 202.14 -1.07 C218.12 -1.32 218.12 -1.32 222.77 1.95 C224.6 4.25 225.83 6.32 227 9 C227.68 10.17 228.36 11.34 229.06 12.5 C229.51 13.34 229.51 13.34 229.97 14.19 C231.21 16.37 232.59 18.42 234 20.5 C236.11 23.62 238.04 26.77 239.88 30.06 C243.38 36.12 247.28 41.95 251.19 47.75 C253.26 50.83 255.14 53.95 256.94 57.19 C258.21 59.35 259.59 61.42 261 63.5 C263.12 66.64 265.09 69.8 266.93 73.11 C268.29 75.51 269.7 77.86 271.12 80.22 C271.66 81.12 272.2 82.01 272.76 82.94 C273.17 83.62 273.58 84.3 274 85 C233.17 86.04 192.36 86.16 151.52 86.13 C144.6 86.12 137.68 86.13 130.76 86.13 C123.96 86.14 117.17 86.14 110.38 86.13 C106.37 86.13 102.36 86.13 98.36 86.14 C90.03 86.14 81.7 86.12 73.37 86.03 C71.26 86.01 69.14 86 67.02 85.99 C64.6 85.98 62.17 85.93 59.74 85.87 C58.52 85.84 57.3 85.82 56.04 85.8 C50.25 84.28 47.74 78.83 44.72 73.94 C44.13 72.99 43.55 72.04 42.94 71.06 C42.32 70.05 41.7 69.04 41.06 68 C39.72 65.83 38.38 63.67 37.04 61.5 C36.02 59.86 36.02 59.86 34.99 58.2 C32.03 53.44 29.02 48.72 26 44 C20.26 35.02 14.6 25.99 8.97 16.94 C8.38 15.99 7.79 15.04 7.18 14.06 C6.63 13.18 6.08 12.29 5.51 11.38 C4.24 9.38 2.93 7.44 1.57 5.5 C0 3 0 3 0 0 Z " fill="#00A8F2" transform="translate(43,618)"/>
<path d="M0 0 C0.99 0.5 0.99 0.5 2 1 C1.5 77.23 1.5 77.23 1 155 C-10.25 156.12 -10.25 156.12 -15.18 156.12 C-16.29 156.12 -17.41 156.12 -18.56 156.12 C-20.34 156.12 -20.34 156.12 -22.16 156.11 C-23.44 156.11 -24.72 156.11 -26.04 156.11 C-29.51 156.11 -32.99 156.11 -36.47 156.1 C-40.11 156.1 -43.76 156.09 -47.4 156.09 C-54.29 156.09 -61.18 156.08 -68.07 156.07 C-75.91 156.06 -83.76 156.06 -91.61 156.05 C-107.74 156.04 -123.87 156.02 -140 156 C-140 152 -140 152 -138.28 149.92 C-137.51 149.21 -136.73 148.49 -135.94 147.75 C-133.04 144.98 -130.24 142.23 -127.62 139.19 C-124.65 135.73 -121.59 132.35 -118.5 129 C-115.5 125.74 -112.52 122.48 -109.62 119.12 C-105.78 114.69 -101.76 110.42 -97.76 106.14 C-94.39 102.52 -91.09 98.85 -87.86 95.11 C-83.84 90.55 -79.68 86.13 -75.56 81.68 C-67.49 72.99 -67.49 72.99 -59.62 64.12 C-55.78 59.69 -51.76 55.42 -47.76 51.14 C-44.39 47.52 -41.09 43.85 -37.86 40.11 C-34.84 36.68 -31.73 33.35 -28.62 30 C-19.33 19.97 -19.33 19.97 -10.31 9.69 C-7.17 6.05 -3.72 3.04 0 0 Z " fill="#607A89" transform="translate(809,377)"/>
<path d="M0 0 C7.88 3.69 13.65 11.45 19.25 17.96 C25.42 25.14 31.89 32.04 38.34 38.97 C41.68 42.55 44.94 46.18 48.14 49.89 C50.65 52.74 53.23 55.53 55.81 58.31 C69.6 73.21 69.6 73.21 75.69 80.25 C77.83 82.72 80.03 85.04 82.38 87.31 C85.3 90.18 87.87 93.24 90.44 96.44 C93.79 100.6 97.29 104.4 101.12 108.12 C103.53 110.53 105.73 113.09 107.95 115.67 C110.58 118.66 113.29 121.58 116 124.5 C119.32 128.08 122.62 131.67 125.81 135.38 C127.95 137.85 130.15 140.16 132.5 142.44 C136.42 146.28 139.83 150.52 143 155 C143 155.33 143 155.66 143 156 C109.39 156.64 75.78 157.11 42.16 157.12 C39.88 157.12 37.6 157.13 35.31 157.13 C31.71 157.14 28.11 157.14 24.51 157.13 C22.55 157.13 20.6 157.14 18.65 157.14 C3.1 157.1 3.1 157.1 1 155 C0.89 153 0.85 151 0.84 149 C0.83 147.69 0.82 146.38 0.81 145.04 C0.81 143.58 0.8 142.12 0.79 140.66 C0.79 139.13 0.78 137.6 0.76 136.08 C0.74 131.92 0.72 127.76 0.7 123.6 C0.67 119.26 0.65 114.92 0.62 110.57 C0.57 102.35 0.53 94.12 0.48 85.89 C0.43 76.53 0.38 67.17 0.32 57.8 C0.21 38.53 0.1 19.27 0 0 Z " fill="#617B8A" transform="translate(1065,376)"/>
<path d="M0 0 C0.66 0 1.32 0 2 0 C2.2 0.97 2.2 0.97 2.41 1.96 C3.86 8.29 5.75 14.27 8.04 20.33 C10.88 27.95 13.66 35.59 16.39 43.24 C16.78 44.33 17.16 45.41 17.56 46.53 C18.79 49.98 20.02 53.43 21.25 56.88 C22.79 61.2 24.33 65.52 25.87 69.84 C26.33 71.11 26.78 72.37 27.23 73.64 C30.59 83.07 33.97 92.5 37.36 101.92 C38 103.71 38 103.71 38.66 105.55 C41.15 112.48 41.15 112.48 43.64 119.41 C44.78 122.58 45.92 125.74 47.06 128.91 C47.38 129.81 47.71 130.72 48.05 131.65 C50.83 139.4 53.39 147.18 56 155 C19.7 155 -16.6 155 -54 155 C-52.88 147.13 -52.88 147.13 -51.72 143.92 C-51.46 143.18 -51.2 142.45 -50.93 141.7 C-50.65 140.92 -50.36 140.14 -50.07 139.34 C-49.77 138.49 -49.47 137.65 -49.16 136.78 C-48.15 133.97 -47.14 131.17 -46.12 128.38 C-45.41 126.38 -44.69 124.39 -43.98 122.39 C-42.45 118.14 -40.92 113.89 -39.39 109.64 C-36.99 102.97 -34.59 96.29 -32.2 89.61 C-27.85 77.44 -23.48 65.27 -19.11 53.1 C-17.69 49.12 -16.26 45.14 -14.83 41.16 C-13.54 37.57 -12.25 33.97 -10.96 30.38 C-10.37 28.74 -9.78 27.1 -9.2 25.46 C-6.15 16.97 -3.09 8.48 0 0 Z " fill="#617A89" transform="translate(917,143)"/>
<path d="M0 0 C3.38 0.74 5.03 1.64 7.54 4.06 C8.2 4.69 8.85 5.32 9.53 5.96 C10.22 6.64 10.91 7.31 11.62 8 C13.07 9.38 14.52 10.76 15.97 12.14 C16.67 12.81 17.36 13.48 18.08 14.17 C23.64 19.47 29.42 24.51 35.27 29.49 C35.88 30.01 36.49 30.53 37.12 31.06 C37.73 31.58 38.34 32.09 38.96 32.62 C42.84 35.94 46.46 39.4 50.01 43.07 C53.27 46.23 56.86 49 60.4 51.84 C63.23 54.19 65.78 56.69 68.34 59.33 C70.72 61.72 73.27 63.91 75.83 66.12 C78.25 68.22 80.63 70.35 83 72.5 C85.94 75.15 88.89 77.78 91.88 80.38 C95.84 83.83 99.71 87.39 103.58 90.96 C106.31 93.47 109.06 95.95 111.88 98.38 C115.72 101.71 119.46 105.16 123.19 108.62 C123.78 109.18 124.38 109.73 124.99 110.29 C128.4 113.46 131.78 116.64 135 120 C135 120.33 135 120.66 135 121 C117.69 121.05 100.39 121.08 83.08 121.1 C75.05 121.11 67.01 121.13 58.97 121.15 C51.97 121.17 44.97 121.18 37.97 121.19 C34.26 121.19 30.55 121.2 26.84 121.21 C22.71 121.23 18.57 121.23 14.44 121.23 C13.2 121.23 11.96 121.24 10.69 121.25 C9.57 121.25 8.45 121.24 7.29 121.24 C6.31 121.24 5.33 121.24 4.32 121.25 C2 121 2 121 0 119 C-0.25 116.9 -0.25 116.9 -0.24 114.24 C-0.24 113.24 -0.25 112.23 -0.25 111.2 C-0.24 109.54 -0.24 109.54 -0.23 107.85 C-0.23 106.69 -0.23 105.53 -0.23 104.33 C-0.23 100.48 -0.21 96.63 -0.2 92.77 C-0.19 90.11 -0.19 87.44 -0.19 84.78 C-0.18 78.47 -0.16 72.16 -0.14 65.86 C-0.12 58.68 -0.11 51.5 -0.1 44.32 C-0.08 29.54 -0.04 14.77 0 0 Z " fill="#617B8A" transform="translate(1066,689)"/>
<path d="M0 0 C0 39.6 0 79.2 0 120 C-43.89 120 -87.78 120 -133 120 C-133 117 -133 117 -131.75 115.42 C-131.17 114.87 -130.6 114.32 -130 113.75 C-129.35 113.13 -128.71 112.51 -128.04 111.88 C-125.5 109.54 -122.91 107.27 -120.3 105.02 C-117.49 102.56 -114.75 100.03 -112 97.5 C-108.09 93.9 -104.14 90.36 -100.12 86.88 C-97.38 84.45 -94.69 81.98 -92 79.5 C-88.7 76.46 -85.39 73.44 -82 70.5 C-78.65 67.6 -75.38 64.62 -72.12 61.62 C-65.52 55.55 -58.9 49.51 -52.12 43.62 C-48.16 40.17 -44.29 36.61 -40.42 33.05 C-37.65 30.49 -34.85 27.97 -32 25.5 C-28.65 22.6 -25.38 19.62 -22.12 16.62 C-18.24 13.05 -14.35 9.48 -10.44 5.94 C-9.65 5.22 -8.87 4.51 -8.06 3.78 C-3.68 0 -3.68 0 0 0 Z " fill="#607A89" transform="translate(810,690)"/>
<path d="M0 0 C0.66 0 1.32 0 2 0 C9.12 19.64 16.19 39.31 23.19 59 C23.53 59.97 23.87 60.93 24.23 61.93 C25.58 65.72 26.92 69.52 28.27 73.32 C35 92.26 41.78 111.17 48.57 130.09 C52.07 139.81 55.55 149.54 59.02 159.27 C59.35 160.21 59.69 161.14 60.03 162.11 C61.64 166.62 63.25 171.13 64.85 175.64 C65.44 177.3 66.03 178.96 66.62 180.62 C66.91 181.42 67.19 182.21 67.48 183.03 C68.86 186.9 70.28 190.76 71.77 194.6 C72.05 195.33 72.33 196.05 72.62 196.8 C73.15 198.16 73.68 199.52 74.22 200.87 C75.68 204.63 76 206.82 76 211 C62.8 211 49.6 211 36 211 C32.71 203.12 29.6 195.33 26.81 187.28 C26.43 186.2 26.05 185.11 25.66 184 C24.86 181.69 24.05 179.38 23.25 177.08 C21.13 170.99 18.99 164.92 16.86 158.84 C16.44 157.64 16.02 156.44 15.59 155.2 C12.17 145.47 8.7 135.76 5.19 126.06 C4.94 125.37 4.68 124.67 4.42 123.96 C3.41 121.17 2.4 118.38 1.39 115.59 C-2.28 105.47 -5.91 95.34 -9.54 85.21 C-10.39 82.82 -11.25 80.43 -12.1 78.05 C-12.35 77.35 -12.6 76.65 -12.86 75.93 C-13.1 75.27 -13.33 74.6 -13.58 73.92 C-13.93 72.94 -13.93 72.94 -14.28 71.95 C-14.77 70.63 -15.28 69.33 -15.81 68.04 C-19.78 58.3 -19.12 51.58 -15.45 41.8 C-15.08 40.76 -14.7 39.72 -14.32 38.64 C-13.12 35.34 -11.91 32.04 -10.69 28.75 C-9.88 26.52 -9.07 24.29 -8.27 22.06 C-2.7 6.69 -2.7 6.69 0 0 Z " fill="#37474F" transform="translate(937,87)"/>
<path d="M0 0 C16.78 -0.05 33.57 -0.08 50.35 -0.1 C58.15 -0.11 65.94 -0.13 73.73 -0.15 C80.53 -0.17 87.32 -0.18 94.11 -0.19 C97.7 -0.19 101.3 -0.2 104.9 -0.21 C108.91 -0.23 112.92 -0.23 116.93 -0.23 C118.13 -0.23 119.33 -0.24 120.56 -0.25 C121.65 -0.25 122.74 -0.24 123.86 -0.24 C125.29 -0.24 125.29 -0.24 126.74 -0.25 C129 0 129 0 131 2 C130.54 2.69 130.08 3.38 129.6 4.1 C128.95 5.08 128.3 6.05 127.62 7.06 C123.61 13.09 119.59 19.12 115.57 25.14 C115.15 25.78 114.72 26.42 114.28 27.08 C112.6 29.59 110.92 32.11 109.25 34.63 C108.83 35.25 108.42 35.86 108 36.5 C102.17 45.25 96.33 54 90.5 62.75 C90.09 63.37 89.67 63.99 89.25 64.63 C88.42 65.87 87.59 67.12 86.76 68.36 C84.63 71.55 82.51 74.74 80.39 77.93 C75.69 85.02 70.93 92.06 66 99 C65.67 98.34 65.34 97.68 65 97 C64.41 96.77 63.83 96.53 63.23 96.29 C59.95 94.39 58.35 91.44 56.38 88.31 C55.49 86.94 54.6 85.58 53.71 84.21 C53.26 83.51 52.81 82.81 52.35 82.08 C50.27 78.87 48.13 75.68 46 72.5 C45.17 71.25 44.33 70 43.5 68.75 C43.09 68.13 42.67 67.51 42.25 66.88 C30.38 49.06 30.38 49.06 18.5 31.25 C18.09 30.63 17.67 30.01 17.25 29.37 C16.42 28.13 15.59 26.89 14.77 25.65 C12.6 22.38 10.41 19.13 8.18 15.9 C7.72 15.22 7.26 14.55 6.79 13.86 C5.91 12.57 5.03 11.29 4.13 10.01 C1.85 6.64 0.66 3.99 0 0 Z " fill="#617B8A" transform="translate(873,341)"/>
<path d="M0 0 C16.78 -0.05 33.57 -0.08 50.35 -0.1 C58.15 -0.11 65.94 -0.13 73.73 -0.15 C80.53 -0.17 87.32 -0.18 94.11 -0.19 C97.7 -0.19 101.3 -0.2 104.9 -0.21 C108.91 -0.23 112.92 -0.23 116.93 -0.23 C118.13 -0.23 119.33 -0.24 120.56 -0.25 C121.65 -0.25 122.74 -0.24 123.86 -0.24 C125.29 -0.24 125.29 -0.24 126.74 -0.25 C129 0 129 0 131 2 C130.54 2.69 130.08 3.38 129.6 4.1 C128.95 5.08 128.3 6.05 127.62 7.06 C123.61 13.09 119.59 19.12 115.57 25.14 C115.15 25.78 114.72 26.42 114.28 27.08 C112.6 29.59 110.92 32.11 109.25 34.63 C108.83 35.25 108.42 35.86 108 36.5 C102.17 45.25 96.33 54 90.5 62.75 C90.09 63.37 89.67 63.99 89.25 64.63 C88.42 65.87 87.59 67.12 86.76 68.36 C84.63 71.55 82.51 74.74 80.39 77.93 C75.69 85.02 70.93 92.06 66 99 C65.67 98.34 65.34 97.68 65 97 C64.41 96.77 63.83 96.53 63.23 96.29 C59.95 94.39 58.35 91.44 56.38 88.31 C55.49 86.94 54.6 85.58 53.71 84.21 C53.26 83.51 52.81 82.81 52.35 82.08 C50.27 78.87 48.13 75.68 46 72.5 C45.17 71.25 44.33 70 43.5 68.75 C43.09 68.13 42.67 67.51 42.25 66.88 C30.38 49.06 30.38 49.06 18.5 31.25 C18.09 30.63 17.67 30.01 17.25 29.37 C16.42 28.13 15.59 26.89 14.77 25.65 C12.6 22.38 10.41 19.13 8.18 15.9 C7.72 15.22 7.26 14.55 6.79 13.86 C5.91 12.57 5.03 11.29 4.13 10.01 C1.85 6.64 0.66 3.99 0 0 Z " fill="#617B8A" transform="translate(873,661)"/>
<path d="M0 0 C0.66 0 1.32 0 2 0 C3.45 1.98 3.45 1.98 5.12 4.75 C7.63 8.79 10.17 12.8 12.81 16.75 C13.48 17.75 14.15 18.75 14.84 19.78 C15.55 20.84 16.27 21.9 17 23 C18.63 25.44 20.25 27.87 21.88 30.31 C22.73 31.59 23.58 32.87 24.43 34.14 C51 74 51 74 52.91 76.88 C54.49 79.23 56.07 81.59 57.65 83.94 C58.1 84.61 58.55 85.29 59.02 85.98 C59.9 87.3 60.79 88.61 61.68 89.93 C63.67 92.9 65.39 95.79 67 99 C23.77 99 -19.46 99 -64 99 C-64 94.88 -61.89 92.52 -59.62 89.25 C-58.7 87.89 -57.78 86.53 -56.85 85.17 C-56.38 84.48 -55.9 83.78 -55.41 83.07 C-53.25 79.9 -51.12 76.7 -49 73.5 C-48.17 72.25 -47.33 71 -46.5 69.75 C-46.09 69.13 -45.67 68.51 -45.25 67.88 C-35.26 52.89 -25.27 37.9 -15.28 22.91 C-14.86 22.28 -14.43 21.65 -14 21 C-13.56 20.33 -13.11 19.67 -12.65 18.98 C-12.2 18.3 -11.75 17.63 -11.29 16.93 C-9.99 14.99 -8.7 13.04 -7.4 11.1 C-6.82 10.23 -6.82 10.23 -6.23 9.34 C-5.85 8.79 -5.48 8.23 -5.1 7.66 C-4.35 6.53 -3.61 5.39 -2.89 4.23 C-1.98 2.79 -0.99 1.39 0 0 Z " fill="#607A89" transform="translate(937,839)"/>
<path d="M0 0 C0.66 0 1.32 0 2 0 C3.45 1.98 3.45 1.98 5.12 4.75 C7.63 8.79 10.17 12.8 12.81 16.75 C13.48 17.75 14.15 18.75 14.84 19.78 C15.55 20.84 16.27 21.9 17 23 C18.63 25.44 20.25 27.87 21.88 30.31 C22.73 31.59 23.58 32.87 24.43 34.14 C32.79 46.68 41.14 59.21 49.5 71.75 C49.91 72.37 50.33 72.99 50.75 73.63 C51.58 74.87 52.4 76.11 53.23 77.34 C55.43 80.65 57.64 83.95 59.85 87.24 C60.32 87.93 60.78 88.63 61.26 89.34 C62.15 90.67 63.05 92.01 63.95 93.34 C67 97.89 67 97.89 67 99 C23.77 99 -19.46 99 -64 99 C-64 94.88 -61.89 92.52 -59.62 89.25 C-58.7 87.89 -57.78 86.53 -56.85 85.17 C-56.38 84.48 -55.9 83.78 -55.41 83.07 C-53.25 79.9 -51.12 76.7 -49 73.5 C-48.17 72.25 -47.33 71 -46.5 69.75 C-46.09 69.13 -45.67 68.51 -45.25 67.88 C-35.26 52.89 -25.27 37.9 -15.28 22.91 C-14.86 22.28 -14.43 21.65 -14 21 C-13.56 20.33 -13.11 19.67 -12.65 18.98 C-12.2 18.3 -11.75 17.63 -11.29 16.93 C-9.99 14.99 -8.7 13.04 -7.4 11.1 C-6.82 10.23 -6.82 10.23 -6.23 9.34 C-5.85 8.79 -5.48 8.23 -5.1 7.66 C-4.35 6.53 -3.61 5.39 -2.89 4.23 C-1.98 2.79 -0.99 1.39 0 0 Z " fill="#607A89" transform="translate(937,519)"/>
<path d="M0 0 C3.8 4.42 6.63 9.25 9.56 14.25 C13.84 21.47 18.24 28.58 22.84 35.61 C26.98 41.94 31.02 48.34 35.03 54.76 C35.74 55.89 35.74 55.89 36.47 57.05 C36.89 57.72 37.3 58.38 37.73 59.07 C38.97 61.04 38.97 61.04 40.56 62.82 C42.27 65.42 42.37 66.79 42.36 69.88 C42.36 70.87 42.37 71.85 42.37 72.86 C42.36 73.93 42.35 75 42.34 76.1 C42.34 77.8 42.34 77.8 42.34 79.53 C42.34 83.28 42.32 87.02 42.29 90.77 C42.29 93.36 42.28 95.96 42.28 98.55 C42.27 104.68 42.25 110.82 42.22 116.95 C42.18 123.94 42.17 130.92 42.15 137.91 C42.12 152.27 42.07 166.64 42 181 C36.18 181.02 30.36 181.04 24.54 181.05 C22.56 181.06 20.57 181.07 18.59 181.08 C15.75 181.09 12.91 181.09 10.07 181.1 C8.73 181.11 8.73 181.11 7.36 181.11 C5.24 181.11 3.12 181.06 1 181 C-0.91 179.09 -0.15 175.62 -0.16 173.09 C-0.17 172.36 -0.18 171.63 -0.18 170.88 C-0.2 168.41 -0.21 165.94 -0.22 163.47 C-0.23 161.71 -0.24 159.95 -0.26 158.18 C-0.29 153.39 -0.31 148.59 -0.34 143.79 C-0.36 138.78 -0.39 133.76 -0.42 128.75 C-0.47 120.34 -0.52 111.92 -0.56 103.5 C-0.61 93.76 -0.66 84.01 -0.72 74.26 C-0.77 65.91 -0.82 57.56 -0.87 49.21 C-0.89 44.22 -0.92 39.22 -0.95 34.23 C-0.98 29.53 -1 24.84 -1.02 20.14 C-1.03 18.41 -1.04 16.68 -1.06 14.96 C-1.07 12.61 -1.08 10.26 -1.09 7.91 C-1.1 6.59 -1.1 5.27 -1.11 3.92 C-1 1 -1 1 0 0 Z " fill="#A7AAAB" transform="translate(213,970)"/>
<path d="M0 0 C16.39 -0.05 32.79 -0.08 49.18 -0.1 C56.79 -0.11 64.4 -0.13 72.02 -0.15 C78.65 -0.17 85.28 -0.18 91.91 -0.19 C95.43 -0.19 98.94 -0.2 102.45 -0.21 C106.37 -0.23 110.29 -0.23 114.21 -0.23 C115.38 -0.23 116.55 -0.24 117.76 -0.25 C119.35 -0.24 119.35 -0.24 120.98 -0.24 C121.9 -0.24 122.83 -0.24 123.79 -0.25 C126 0 126 0 128 2 C120.06 13.73 111.97 25.32 103.63 36.76 C100.89 40.52 98.16 44.29 95.44 48.06 C94.9 48.81 94.36 49.55 93.81 50.31 C90.13 55.41 86.49 60.54 82.88 65.69 C81.41 67.76 79.94 69.84 78.48 71.91 C77.47 73.34 76.46 74.77 75.46 76.2 C73.96 78.33 72.45 80.45 70.94 82.56 C70.48 83.21 70.03 83.86 69.56 84.53 C68.45 86.08 67.23 87.55 66 89 C63 89 63 89 61.6 87.85 C55.74 81.03 50.7 73.64 45.58 66.27 C43.09 62.69 40.58 59.12 38.06 55.56 C37.57 54.86 37.08 54.17 36.57 53.45 C32.38 47.52 28.13 41.63 23.87 35.75 C18.62 28.49 13.45 21.18 8.3 13.84 C7.11 12.15 5.9 10.47 4.7 8.79 C3.73 7.44 3.73 7.44 2.75 6.06 C1.94 4.94 1.94 4.94 1.11 3.79 C0 2 0 2 0 0 Z " fill="#617B8A" transform="translate(874,981)"/>
<path d="M0 0 C3.51 4.29 6.76 8.75 10 13.25 C10.57 14.04 11.14 14.83 11.73 15.65 C16.02 21.61 20.26 27.6 24.48 33.6 C28.11 38.76 31.8 43.89 35.5 49 C40.27 55.58 44.99 62.2 49.67 68.85 C54.41 75.59 59.2 82.3 64 89 C63.34 89.66 62.68 90.32 62 91 C60.11 90.97 60.11 90.97 57.63 90.62 C48.73 89.64 39.81 89.99 30.87 90.12 C28.91 90.15 26.95 90.17 24.99 90.19 C19.85 90.26 14.71 90.32 9.57 90.39 C2.37 90.49 -4.84 90.58 -12.04 90.67 C-15.87 90.72 -19.7 90.77 -23.52 90.82 C-27.85 90.88 -32.18 90.93 -36.5 90.97 C-39.02 91 -41.54 91.04 -44.06 91.09 C-45.67 91.1 -47.27 91.12 -48.88 91.14 C-49.6 91.16 -50.32 91.17 -51.06 91.19 C-55.79 91.22 -59.56 90.47 -64 89 C-60.11 83.09 -56.1 77.28 -51.94 71.56 C-50.79 69.98 -49.65 68.4 -48.5 66.82 C-47.92 66.02 -47.34 65.22 -46.74 64.4 C-39.77 54.8 -32.82 45.2 -26 35.5 C-8.13 10.11 -8.13 10.11 0 0 Z " fill="#617B8A" transform="translate(938,1146)"/>
<path d="M0 0 C1.05 -0 2.11 -0.01 3.19 -0.01 C4.35 -0.01 5.51 -0 6.71 -0 C8.53 -0.01 8.53 -0.01 10.4 -0.01 C13.74 -0.01 17.09 -0.01 20.43 -0.01 C23.93 -0 27.42 -0.01 30.92 -0.01 C36.79 -0.01 42.65 -0.01 48.52 -0 C55.32 0 62.11 0 68.9 -0.01 C74.73 -0.01 80.55 -0.01 86.38 -0.01 C89.86 -0.01 93.34 -0.01 96.83 -0.01 C100.71 -0.01 104.59 -0.01 108.46 -0 C109.63 -0 110.79 -0.01 111.99 -0.01 C113.04 -0.01 114.09 -0 115.17 0 C116.55 0 116.55 0 117.95 0 C120.02 0.13 120.02 0.13 121.02 1.13 C121.12 4.15 121.16 7.14 121.15 10.16 C121.15 11.06 121.16 11.97 121.16 12.9 C121.16 14.82 121.16 16.74 121.15 18.66 C121.15 21.61 121.15 24.56 121.16 27.51 C121.16 29.37 121.16 31.24 121.15 33.1 C121.16 33.98 121.16 34.87 121.16 35.79 C121.14 42.01 121.14 42.01 120.02 43.13 C117.52 43.22 115.04 43.25 112.54 43.24 C111.75 43.24 110.97 43.24 110.16 43.24 C107.53 43.24 104.9 43.23 102.27 43.22 C100.42 43.21 98.57 43.21 96.71 43.21 C77.7 43.16 58.68 42.98 39.67 42.75 C34.85 42.7 30.04 42.65 25.23 42.6 C21.47 42.56 17.71 42.52 13.95 42.47 C12.17 42.45 10.39 42.43 8.61 42.42 C6.17 42.39 3.73 42.36 1.29 42.33 C0.56 42.33 -0.17 42.32 -0.92 42.31 C-5.87 42.24 -5.87 42.24 -6.98 41.13 C-7.07 38.17 -7.09 35.24 -7.08 32.28 C-7.08 31.39 -7.07 30.51 -7.07 29.59 C-7.07 26.75 -7.05 23.91 -7.04 21.06 C-7.04 19.14 -7.03 17.22 -7.03 15.3 C-7.02 10.57 -7 5.85 -6.98 1.13 C-4.48 -0.12 -2.8 0 0 0 Z " fill="#647D8B" transform="translate(176.97926330566406,1193.8730163574219)"/>
<path d="M0 0 C0.66 0.33 1.32 0.66 2 1 C2 57.76 2 114.52 2 173 C-4.73 167.39 -4.73 167.39 -7.38 162.94 C-9.78 158.99 -12.24 155.09 -14.81 151.25 C-15.48 150.25 -16.15 149.26 -16.83 148.23 C-17.55 147.17 -18.26 146.1 -19 145 C-20.67 142.5 -22.33 140 -24 137.5 C-24.85 136.22 -25.71 134.94 -26.56 133.66 C-33 124 -33 124 -34.94 121.09 C-36.43 118.86 -37.91 116.64 -39.4 114.41 C-41.52 111.26 -43.62 108.09 -45.72 104.92 C-47.02 102.98 -48.33 101.04 -49.64 99.11 C-50.47 97.86 -51.3 96.62 -52.12 95.38 C-52.52 94.81 -52.91 94.24 -53.31 93.65 C-55.51 90.31 -56.74 88.01 -56 84 C-54.6 81.41 -54.6 81.41 -52.62 78.62 C-51.89 77.57 -51.16 76.52 -50.41 75.43 C-50.01 74.88 -49.62 74.32 -49.21 73.74 C-47.13 70.76 -45.13 67.72 -43.12 64.69 C-42.27 63.41 -41.42 62.13 -40.57 60.86 C-39.93 59.9 -39.93 59.9 -39.28 58.92 C-37.6 56.41 -35.92 53.89 -34.25 51.37 C-33.83 50.75 -33.42 50.14 -33 49.5 C-28 42 -28 42 -23 34.5 C-22.59 33.88 -22.18 33.27 -21.75 32.63 C-20.08 30.11 -18.4 27.59 -16.72 25.08 C-16.29 24.44 -15.87 23.8 -15.43 23.14 C-11.41 17.12 -7.39 11.09 -3.38 5.06 C-2.72 4.08 -2.07 3.11 -1.4 2.1 C-0.94 1.41 -0.48 0.71 0 0 Z " fill="#617B8A" transform="translate(1021,713)"/>
<path d="M0 0 C0.66 0.33 1.32 0.66 2 1 C2 57.76 2 114.52 2 173 C-4.7 167.41 -4.7 167.41 -7 163.5 C-10.46 157.82 -14.11 152.28 -17.81 146.75 C-18.42 145.84 -19.04 144.92 -19.67 143.98 C-20.88 142.16 -22.09 140.34 -23.31 138.53 C-25.63 135.06 -27.94 131.59 -30.25 128.12 C-31.05 126.93 -31.84 125.73 -32.64 124.54 C-34.26 122.12 -35.87 119.7 -37.48 117.27 C-37.9 116.65 -38.32 116.03 -38.74 115.39 C-39.57 114.14 -40.4 112.89 -41.23 111.64 C-43.39 108.39 -45.58 105.16 -47.82 101.97 C-48.28 101.3 -48.74 100.64 -49.21 99.96 C-50.08 98.69 -50.97 97.43 -51.87 96.19 C-54.64 92.14 -55.98 88.92 -56 84 C-54.7 81.22 -54.7 81.22 -52.69 78.5 C-51.95 77.46 -51.21 76.43 -50.44 75.36 C-50.04 74.82 -49.64 74.27 -49.23 73.71 C-47.11 70.76 -45.13 67.72 -43.12 64.69 C-42.27 63.41 -41.42 62.13 -40.57 60.86 C-39.93 59.9 -39.93 59.9 -39.28 58.92 C-37.6 56.41 -35.92 53.89 -34.25 51.37 C-33.83 50.75 -33.42 50.14 -33 49.5 C-28 42 -28 42 -23 34.5 C-22.59 33.88 -22.18 33.27 -21.75 32.63 C-20.08 30.11 -18.4 27.59 -16.72 25.08 C-16.29 24.44 -15.87 23.8 -15.43 23.14 C-11.41 17.12 -7.39 11.09 -3.38 5.06 C-2.72 4.08 -2.07 3.11 -1.4 2.1 C-0.94 1.41 -0.48 0.71 0 0 Z " fill="#617B8A" transform="translate(1021,393)"/>
<path d="M0 0 C2.36 2.93 4.64 5.84 6.7 8.99 C7.2 9.74 7.7 10.5 8.21 11.28 C8.74 12.09 9.27 12.9 9.82 13.74 C10.39 14.61 10.96 15.47 11.54 16.36 C13.41 19.2 15.27 22.04 17.12 24.88 C24.92 36.78 32.74 48.66 40.77 60.41 C42.58 63.07 44.39 65.73 46.19 68.39 C47.35 70.08 48.52 71.78 49.69 73.46 C51.32 75.81 52.93 78.17 54.53 80.53 C55.01 81.21 55.5 81.9 56 82.61 C57.3 84.55 57.3 84.55 59 88 C58.41 90.76 58.41 90.76 57 93 C56.33 94.07 55.66 95.14 54.97 96.24 C54.15 97.46 53.33 98.67 52.5 99.88 C51.59 101.22 50.69 102.56 49.78 103.9 C49.32 104.58 48.86 105.26 48.38 105.96 C46.23 109.13 44.12 112.32 42 115.5 C41.17 116.75 40.33 118 39.5 119.25 C39.09 119.87 38.67 120.49 38.25 121.12 C24.5 141.75 24.5 141.75 23.25 143.63 C22.42 144.87 21.59 146.12 20.76 147.36 C18.62 150.57 16.47 153.79 14.32 157 C10.12 163.28 5.95 169.55 2 176 C-0.47 172.3 -0.25 170.49 -0.24 166.07 C-0.24 165.36 -0.24 164.65 -0.25 163.92 C-0.25 161.54 -0.24 159.16 -0.23 156.78 C-0.23 155.07 -0.23 153.37 -0.23 151.66 C-0.23 147.03 -0.22 142.4 -0.2 137.76 C-0.19 132.92 -0.19 128.08 -0.19 123.24 C-0.18 114.07 -0.16 104.9 -0.14 95.73 C-0.12 85.3 -0.11 74.86 -0.1 64.42 C-0.08 42.95 -0.04 21.47 0 0 Z " fill="#607A89" transform="translate(853,391)"/>
<path d="M0 0 C2.37 2.95 4.66 5.87 6.74 9.04 C7.24 9.8 7.74 10.57 8.26 11.36 C9.07 12.59 9.07 12.59 9.89 13.85 C10.46 14.72 11.04 15.59 11.63 16.49 C13.5 19.35 15.38 22.21 17.25 25.06 C19.86 29.05 22.48 33.03 25.1 37.01 C25.76 38.01 26.42 39.02 27.1 40.05 C31.43 46.63 35.79 53.2 40.18 59.74 C40.74 60.57 41.3 61.4 41.87 62.26 C44.5 66.17 47.12 70.08 49.76 73.99 C50.7 75.39 51.64 76.79 52.57 78.18 C53 78.81 53.42 79.43 53.85 80.07 C58.07 86.37 58.07 86.37 59 90 C58.28 91.98 58.28 91.98 56.92 93.9 C56.43 94.62 55.93 95.34 55.42 96.08 C54.87 96.84 54.32 97.59 53.75 98.38 C52.62 99.99 51.49 101.61 50.37 103.23 C49.8 104.04 49.23 104.84 48.64 105.67 C46.32 108.97 44.1 112.32 41.88 115.69 C41.06 116.91 40.25 118.13 39.43 119.36 C38.83 120.26 38.83 120.26 38.22 121.17 C36.56 123.66 34.91 126.14 33.25 128.62 C32.84 129.24 32.43 129.86 32 130.5 C24.5 141.75 24.5 141.75 23.25 143.63 C22.42 144.87 21.59 146.12 20.76 147.36 C18.62 150.57 16.47 153.79 14.32 157 C10.12 163.28 5.95 169.55 2 176 C-0.3 172.35 -0.25 169.25 -0.24 164.99 C-0.24 163.93 -0.24 163.93 -0.25 162.85 C-0.25 160.49 -0.24 158.12 -0.23 155.76 C-0.23 154.06 -0.23 152.37 -0.23 150.67 C-0.23 146.07 -0.22 141.47 -0.2 136.86 C-0.19 132.05 -0.19 127.24 -0.19 122.43 C-0.18 113.32 -0.16 104.21 -0.14 95.11 C-0.12 84.74 -0.11 74.37 -0.1 64 C-0.08 42.66 -0.04 21.33 0 0 Z " fill="#607A89" transform="translate(853,711)"/>
<path d="M0 0 C1.63 -0.04 3.26 -0.09 4.89 -0.16 C18.41 -0.76 18.41 -0.76 22.8 2.49 C24.6 4.79 25.94 6.95 27.2 9.57 C27.89 10.74 28.57 11.91 29.27 13.07 C29.57 13.63 29.87 14.18 30.18 14.76 C31.41 16.94 32.8 18.99 34.2 21.07 C36.34 24.23 38.29 27.42 40.14 30.76 C41.41 32.92 42.8 34.99 44.2 37.07 C46.31 40.19 48.25 43.34 50.08 46.63 C53.59 52.69 57.48 58.52 61.39 64.32 C63.46 67.4 65.34 70.52 67.14 73.76 C68.41 75.92 69.8 77.99 71.2 80.07 C72.98 82.69 74.67 85.3 76.2 88.07 C78.14 91.55 80.34 94.82 82.57 98.12 C84.93 101.66 87.2 105.27 89.47 108.87 C91.5 112.03 93.61 115.13 95.75 118.21 C97.8 121.53 99.46 125.08 101.2 128.57 C87.34 128.57 73.48 128.57 59.2 128.57 C57.55 124.61 55.9 120.65 54.2 116.57 C52.41 113.46 50.61 110.49 48.64 107.51 C47.58 105.86 46.51 104.21 45.45 102.57 C44.91 101.74 44.37 100.91 43.82 100.06 C41.24 96.09 38.73 92.08 36.2 88.07 C35.2 86.49 34.2 84.9 33.2 83.32 C27.2 73.82 21.2 64.32 15.2 54.82 C14.71 54.04 14.21 53.25 13.7 52.44 C12.71 50.86 11.71 49.28 10.71 47.7 C7.67 42.9 4.64 38.09 1.6 33.29 C0.1 30.92 -1.39 28.55 -2.88 26.18 C-4.83 23.09 -6.8 20 -8.77 16.93 C-9.7 15.47 -10.62 14.02 -11.55 12.57 C-11.98 11.91 -12.41 11.24 -12.85 10.56 C-15.8 5.91 -15.8 5.91 -15.8 2.57 C-16.46 2.24 -17.12 1.91 -17.8 1.57 C-12.16 -0.31 -5.91 0.1 0 0 Z " fill="#0077BC" transform="translate(417.79541015625,894.43017578125)"/>
<path d="M0 0 C7.88 3.69 13.65 11.45 19.25 17.96 C25.42 25.14 31.89 32.04 38.34 38.97 C41.68 42.55 44.94 46.18 48.14 49.89 C50.65 52.74 53.23 55.53 55.81 58.31 C69.6 73.21 69.6 73.21 75.69 80.25 C77.83 82.72 80.03 85.04 82.38 87.31 C85.3 90.18 87.87 93.24 90.44 96.44 C93.79 100.6 97.29 104.4 101.12 108.12 C103.53 110.53 105.73 113.09 107.95 115.67 C110.58 118.66 113.29 121.58 116 124.5 C119.32 128.08 122.62 131.67 125.81 135.38 C127.95 137.85 130.15 140.16 132.5 142.44 C136.42 146.28 139.83 150.52 143 155 C143 155.33 143 155.66 143 156 C110.19 158.6 110.19 158.6 103.34 153.26 C100.53 150.25 98.48 146.8 96.43 143.23 C93.76 139.07 90.2 135.7 86.75 132.19 C85.39 130.76 84.03 129.33 82.68 127.89 C82.04 127.22 81.41 126.55 80.76 125.87 C75.83 120.63 71.08 115.25 66.38 109.81 C64.21 107.33 61.99 104.98 59.62 102.69 C56.7 99.82 54.13 96.76 51.56 93.56 C48.21 89.4 44.71 85.6 40.88 81.88 C38.47 79.47 36.27 76.91 34.05 74.33 C31.42 71.34 28.71 68.42 26 65.5 C22.68 61.92 19.38 58.33 16.19 54.62 C13.52 51.54 10.71 48.66 7.77 45.84 C6.9 44.93 6.9 44.93 6 44 C5.15 43.16 4.31 42.31 3.43 41.44 C0.23 37.56 0.27 33.98 0.29 29.1 C0.28 28.27 0.26 27.43 0.25 26.57 C0.2 23.92 0.2 21.27 0.19 18.62 C0.16 16.82 0.14 15.02 0.11 13.21 C0.05 8.81 0.02 4.41 0 0 Z " fill="#37474F" transform="translate(1065,376)"/>
<path d="M0 0 C0.66 0.33 1.32 0.66 2 1 C2 53.47 2 105.94 2 160 C-4.75 154.38 -4.75 154.38 -6.79 151.39 C-7.25 150.73 -7.71 150.06 -8.18 149.38 C-8.66 148.68 -9.13 147.97 -9.62 147.25 C-10.68 145.72 -11.73 144.2 -12.79 142.67 C-13.32 141.9 -13.85 141.12 -14.4 140.32 C-16.9 136.69 -19.45 133.1 -22 129.5 C-23 128.08 -24 126.66 -25 125.25 C-25.5 124.54 -25.99 123.84 -26.5 123.12 C-27.99 121.01 -29.48 118.9 -30.96 116.79 C-42.5 100.11 -42.5 100.11 -54.67 83.91 C-56 82 -56 82 -56.05 79.76 C-54.48 75.62 -51.91 72.39 -49.25 68.88 C-48.06 67.27 -46.87 65.66 -45.68 64.04 C-45.07 63.21 -44.46 62.38 -43.83 61.53 C-40.9 57.48 -38.11 53.33 -35.31 49.19 C-31.65 43.77 -27.92 38.46 -23.88 33.31 C-19.68 27.97 -15.81 22.45 -11.99 16.84 C-8.11 11.13 -4.1 5.54 0 0 Z " fill="#617B8A" transform="translate(1021,1029)"/>
<path d="M0 0 C3.26 1.09 3.62 1.49 5.46 4.18 C5.93 4.85 6.39 5.53 6.87 6.22 C7.61 7.32 7.61 7.32 8.38 8.44 C9.45 10 10.54 11.56 11.62 13.12 C12.45 14.33 12.45 14.33 13.31 15.57 C15.99 19.42 18.74 23.21 21.5 27 C26.21 33.49 30.86 40.03 35.47 46.59 C39.74 52.66 44.09 58.68 48.46 64.67 C49.99 66.77 51.49 68.89 53 71 C53.58 71.79 54.16 72.58 54.75 73.39 C55.31 74.18 55.87 74.97 56.45 75.78 C57.22 76.85 57.22 76.85 58 77.94 C59 80 59 80 58.82 82.01 C57.91 84.22 56.83 86.02 55.48 87.98 C54.96 88.75 54.44 89.51 53.9 90.29 C53.05 91.51 53.05 91.51 52.19 92.75 C51.6 93.6 51.02 94.44 50.42 95.32 C46.26 101.3 41.94 107.14 37.52 112.94 C33.09 118.79 28.98 124.83 24.87 130.91 C20.78 136.94 16.5 142.8 12.04 148.57 C8.74 152.89 5.81 157.35 3 162 C0.83 158.47 0.74 155.62 0.72 151.52 C0.72 150.87 0.71 150.22 0.7 149.56 C0.69 147.38 0.68 145.21 0.68 143.04 C0.67 141.48 0.66 139.93 0.65 138.37 C0.62 134.14 0.61 129.92 0.6 125.69 C0.58 121.27 0.55 116.85 0.53 112.44 C0.48 104.07 0.44 95.71 0.41 87.34 C0.37 77.82 0.32 68.29 0.27 58.77 C0.17 39.18 0.08 19.59 0 0 Z " fill="#617B8A" transform="translate(852,1028)"/>
<path d="M0 0 C5.34 -0.12 10.68 -0.21 16.02 -0.27 C17.83 -0.3 19.65 -0.33 21.46 -0.38 C24.07 -0.44 26.68 -0.47 29.3 -0.49 C30.11 -0.51 30.92 -0.54 31.75 -0.57 C35.74 -0.57 37.54 -0.45 40.45 2.39 C40.96 3.25 41.47 4.11 42 5 C42.72 6.13 42.72 6.13 43.46 7.29 C44.13 8.45 44.13 8.45 44.81 9.62 C49.46 17.5 54.39 25.18 59.54 32.73 C61.09 35.14 62.5 37.61 63.91 40.1 C65.8 43.39 67.8 46.6 69.81 49.81 C70.25 50.51 70.69 51.22 71.14 51.94 C74.09 56.63 77.19 61.19 80.42 65.71 C82.62 68.9 84.56 72.22 86.53 75.55 C87.99 77.99 89.54 80.34 91.12 82.69 C93.18 85.73 95.07 88.82 96.86 92.04 C98.97 95.66 101.31 99.14 103.61 102.64 C105 105 105 105 105 107 C92.46 107 79.92 107 67 107 C67 106.34 67 105.68 67 105 C66.34 105 65.68 105 65 105 C63.62 103.15 63.62 103.15 62.02 100.52 C61.42 99.55 60.82 98.58 60.2 97.59 C59.56 96.53 58.91 95.47 58.25 94.38 C56.88 92.15 55.51 89.93 54.14 87.71 C53.79 87.15 53.44 86.58 53.09 86 C49.78 80.63 46.4 75.31 43 70 C37.44 61.29 31.95 52.54 26.48 43.78 C22.51 37.4 18.51 31.04 14.5 24.69 C14.01 23.91 13.52 23.14 13.02 22.34 C10.95 19.07 8.88 15.8 6.77 12.56 C6.15 11.59 5.52 10.62 4.88 9.62 C4.36 8.83 3.84 8.04 3.3 7.23 C1.93 4.89 0.98 2.53 0 0 Z " fill="#0077BC" transform="translate(306,746)"/>
<path d="M0 0 C3.39 0.59 5.08 1.69 7.54 4.06 C8.2 4.69 8.85 5.32 9.53 5.96 C10.22 6.64 10.91 7.31 11.62 8 C13.07 9.38 14.52 10.76 15.97 12.14 C16.67 12.81 17.36 13.48 18.08 14.17 C23.64 19.47 29.42 24.51 35.27 29.49 C35.88 30.01 36.49 30.53 37.12 31.06 C37.73 31.58 38.34 32.09 38.96 32.62 C42.84 35.94 46.46 39.4 50.01 43.07 C53.27 46.23 56.86 49 60.4 51.84 C63.23 54.19 65.78 56.69 68.34 59.33 C70.72 61.72 73.27 63.91 75.83 66.12 C78.25 68.22 80.63 70.35 83 72.5 C85.94 75.15 88.89 77.78 91.88 80.38 C95.84 83.83 99.71 87.39 103.58 90.96 C106.31 93.47 109.06 95.95 111.88 98.38 C115.72 101.71 119.46 105.16 123.19 108.62 C123.78 109.18 124.38 109.73 124.99 110.29 C128.4 113.46 131.78 116.64 135 120 C135 120.33 135 120.66 135 121 C130.73 121.17 126.47 121.3 122.19 121.38 C120.75 121.42 119.3 121.47 117.85 121.53 C104.27 122.08 104.27 122.08 99.48 117.92 C98.29 116.64 97.13 115.33 96 114 C94.75 112.81 93.49 111.62 92.21 110.46 C90.93 109.24 89.65 108.03 88.38 106.81 C82.61 101.37 76.73 96.12 70.67 91.01 C67.13 88 63.78 84.9 60.56 81.57 C58.21 79.21 55.69 77.06 53.17 74.88 C50.75 72.78 48.37 70.65 46 68.5 C43.04 65.83 40.07 63.18 37.06 60.56 C32.86 56.91 28.76 53.15 24.64 49.39 C22.51 47.46 20.36 45.57 18.19 43.69 C17.57 43.12 16.96 42.55 16.32 41.96 C14.39 40.33 12.51 39.01 10.39 37.63 C5.05 33.83 0.67 30.47 -0.63 23.77 C-1.22 15.82 -0.77 7.92 0 0 Z " fill="#37474F" transform="translate(1066,689)"/>
<path d="M0 0 C5.28 -0.22 10.56 -0.39 15.85 -0.49 C17.65 -0.54 19.44 -0.6 21.24 -0.68 C36.15 -1.31 36.15 -1.31 40.7 1.92 C42.51 4.22 43.79 6.35 45 9 C45.68 10.17 46.37 11.34 47.06 12.5 C47.36 13.06 47.66 13.61 47.97 14.19 C49.21 16.37 50.59 18.42 52 20.5 C54.11 23.62 56.04 26.77 57.88 30.06 C61.38 36.12 65.28 41.95 69.19 47.75 C71.26 50.83 73.14 53.95 74.94 57.19 C76.21 59.35 77.59 61.42 79 63.5 C81.12 66.64 83.09 69.8 84.93 73.11 C86.29 75.51 87.7 77.86 89.12 80.22 C89.66 81.12 90.2 82.01 90.76 82.94 C91.17 83.62 91.58 84.3 92 85 C82.13 85.78 72.26 86.28 62.36 86.04 C61.11 86.04 61.11 86.04 59.84 86.05 C55.1 85.86 52.51 85.05 49.04 81.73 C46.7 79.07 45.05 76.72 44.02 73.29 C41.8 67.05 38.29 61.84 34.69 56.31 C33.4 54.25 32.11 52.19 30.83 50.12 C27.22 44.33 23.55 38.57 19.88 32.81 C15.08 25.3 10.33 17.76 5.62 10.19 C5.06 9.28 4.49 8.37 3.91 7.43 C3.4 6.6 2.88 5.77 2.35 4.92 C1.9 4.18 1.44 3.45 0.97 2.69 C0 1 0 1 0 0 Z " fill="#0077BC" transform="translate(225,618)"/>
<path d="M0 0 C6.11 -0.02 12.21 -0.04 18.32 -0.05 C20.4 -0.06 22.47 -0.07 24.55 -0.08 C27.53 -0.09 30.52 -0.09 33.5 -0.1 C34.9 -0.11 34.9 -0.11 36.33 -0.11 C37.19 -0.11 38.05 -0.11 38.94 -0.11 C40.08 -0.12 40.08 -0.12 41.25 -0.12 C43 0 43 0 44 1 C44.1 4.02 44.14 7.01 44.13 10.03 C44.13 10.94 44.13 11.84 44.14 12.78 C44.14 14.7 44.13 16.62 44.13 18.54 C44.13 21.49 44.13 24.44 44.14 27.39 C44.14 29.25 44.13 31.11 44.13 32.97 C44.13 33.86 44.14 34.75 44.14 35.66 C44.11 41.89 44.11 41.89 43 43 C39.97 43.09 36.96 43.12 33.93 43.1 C33.02 43.1 32.12 43.09 31.18 43.09 C28.27 43.09 25.35 43.08 22.44 43.06 C20.47 43.06 18.5 43.05 16.53 43.05 C11.68 43.04 6.84 43.02 2 43 C0.37 39.74 0.86 36.15 0.87 32.56 C0.87 31.73 0.87 30.89 0.86 30.03 C0.86 28.26 0.87 26.49 0.87 24.72 C0.87 22.01 0.87 19.3 0.86 16.59 C0.86 14.87 0.87 13.15 0.87 11.44 C0.87 10.62 0.86 9.81 0.86 8.97 C0.89 3.23 0.89 3.23 2 1 C1.34 0.67 0.68 0.34 0 0 Z " fill="#374850" transform="translate(254,1194)"/>
<path d="M0 0 C4.8 3.3 9.76 7.33 11.81 12.94 C12.59 19.88 13.47 27.77 9.19 33.69 C5.53 37.83 1.53 40.65 -3.96 41.57 C-5.3 41.62 -6.65 41.64 -8 41.62 C-8.7 41.62 -9.41 41.62 -10.13 41.61 C-15.95 41.37 -19.32 39.75 -23.48 35.82 C-24.05 35.2 -24.61 34.58 -25.19 33.94 C-26.01 33.03 -26.84 32.12 -27.69 31.19 C-30.87 26.41 -30.75 21.48 -30.19 15.94 C-28.41 9.23 -24.99 4.7 -19.19 0.94 C-13.22 -1.98 -6.25 -2.08 0 0 Z " fill="#A8ABAC" transform="translate(200.1875,171.0625)"/>
</svg>
